{"glyphs":{"0":{"ha":850,"x_min":0,"x_max":0,"o":"m 425 -17 b 779 463 678 -17 779 238 b 425 940 779 689 678 940 b 71 463 171 940 71 689 b 425 -17 71 238 171 -17 z m 425 86 b 189 463 249 86 189 278 b 425 838 189 647 249 838 b 661 463 601 838 661 647 b 425 86 661 278 601 86 z "},"1":{"ha":471,"x_min":0,"x_max":0,"o":"m 363 0 l 363 926 l 261 926 l 29 688 l 99 617 l 247 775 l 247 0 z "},"2":{"ha":817,"x_min":0,"x_max":0,"o":"m 711 0 l 711 103 l 257 103 b 707 668 515 307 707 479 b 396 940 707 853 550 940 b 74 794 265 940 144 889 l 144 721 b 396 838 199 790 285 838 b 590 668 492 838 590 788 b 75 93 590 508 408 354 l 75 0 z "},"3":{"ha":774,"x_min":0,"x_max":0,"o":"m 369 -17 b 699 250 574 -17 699 96 b 485 479 699 400 568 471 b 683 694 571 493 683 560 b 371 940 683 850 549 940 b 53 797 226 940 119 879 l 117 725 b 361 838 185 799 260 838 b 568 679 474 838 568 782 b 353 526 568 572 469 526 b 257 528 315 526 272 526 l 257 422 b 353 424 271 424 314 424 b 583 260 489 424 583 375 b 367 86 583 154 501 86 b 108 208 257 86 163 136 l 40 136 b 369 -17 97 53 213 -17 z "},"4":{"ha":775,"x_min":0,"x_max":0,"o":"m 600 0 l 600 235 l 731 235 l 731 336 l 600 336 l 600 926 l 442 926 l 44 331 l 44 235 l 485 235 l 485 0 z m 485 336 l 160 336 l 485 819 z "},"5":{"ha":819,"x_min":0,"x_max":0,"o":"m 418 -17 b 749 289 604 -17 749 101 b 453 585 749 481 608 585 b 236 501 360 585 282 546 l 236 824 l 688 824 l 688 926 l 121 926 l 121 428 l 206 399 b 419 485 268 458 339 485 b 632 285 544 485 632 407 b 418 86 632 172 544 86 b 163 210 306 86 224 131 l 92 132 b 418 -17 161 40 263 -17 z "},"6":{"ha":821,"x_min":0,"x_max":0,"o":"m 429 -17 b 753 286 631 -17 753 126 b 450 582 753 483 617 582 b 188 438 331 582 228 501 b 188 474 188 450 188 461 b 449 838 188 656 268 838 b 646 743 544 838 599 799 l 704 829 b 449 940 647 896 567 940 b 71 463 188 940 71 713 b 429 -17 71 210 169 -17 z m 424 86 b 192 344 263 86 201 229 b 424 482 242 425 331 482 b 636 282 542 482 636 418 b 424 86 636 194 567 86 z "},"7":{"ha":715,"x_min":0,"x_max":0,"o":"m 296 0 l 675 847 l 675 926 l 43 926 l 43 824 l 542 824 l 168 0 z "},"8":{"ha":808,"x_min":0,"x_max":0,"o":"m 404 -17 b 736 235 586 -17 736 78 b 515 478 736 358 631 443 b 722 700 622 508 722 579 b 404 940 722 867 557 940 b 88 700 250 940 88 867 b 293 478 88 579 186 508 b 72 235 178 443 72 358 b 404 -17 72 76 221 -17 z m 404 525 b 204 685 349 535 204 572 b 404 838 204 781 292 838 b 606 685 515 838 606 781 b 404 525 606 572 461 535 z m 404 86 b 189 247 289 86 189 147 b 404 426 189 368 347 419 b 619 247 461 419 619 368 b 404 86 619 147 518 86 z "},"9":{"ha":821,"x_min":0,"x_max":0,"o":"m 374 -15 b 751 463 633 -15 751 213 b 393 942 751 715 651 942 b 68 639 190 942 68 799 b 372 343 68 442 206 343 b 633 488 490 343 593 424 b 635 451 635 475 635 463 b 374 88 635 275 561 88 b 175 182 278 88 222 126 l 117 96 b 374 -15 175 31 256 -15 z m 399 443 b 185 643 279 443 185 507 b 397 839 185 732 256 839 b 631 582 558 839 619 696 b 399 443 581 500 490 443 z "}," ":{"ha":360,"x_min":0,"x_max":0,"o":""},"!":{"ha":319,"x_min":0,"x_max":0,"o":"m 203 260 l 225 926 l 94 926 l 117 260 z m 160 -14 b 236 63 201 -14 236 22 b 160 139 236 104 201 139 b 83 63 118 139 83 104 b 160 -14 83 22 118 -14 z "},"\"":{"ha":478,"x_min":0,"x_max":0,"o":"m 164 572 b 201 876 164 572 201 857 b 138 940 201 911 174 940 b 75 876 103 940 75 911 b 113 572 75 857 113 572 z m 365 572 b 403 876 365 572 403 857 b 340 940 403 911 375 940 b 276 876 304 940 276 911 b 314 572 276 857 314 572 z "},"#":{"ha":821,"x_min":0,"x_max":0,"o":"m 417 0 l 500 251 l 657 251 l 679 325 l 525 325 l 618 601 l 769 601 l 790 674 l 642 674 l 726 926 l 642 926 l 558 674 l 406 674 l 489 926 l 403 926 l 319 674 l 167 674 l 144 601 l 294 601 l 203 325 l 54 325 l 31 251 l 178 251 l 93 0 l 179 0 l 263 251 l 417 251 l 332 0 z m 440 325 l 288 325 l 381 601 l 533 601 z "},"$":{"ha":824,"x_min":0,"x_max":0,"o":"m 376 -139 l 461 -139 l 461 -15 b 757 256 676 0 757 131 b 461 531 757 438 604 490 l 461 833 b 667 726 539 822 611 788 l 736 811 b 461 939 668 882 576 929 l 461 1067 l 376 1067 l 376 940 b 89 683 210 928 89 826 b 376 426 89 513 235 465 l 376 89 b 129 219 267 101 182 157 l 60 131 b 376 -15 129 51 236 -7 z m 638 247 b 461 88 638 181 593 101 l 461 404 b 638 247 558 375 638 338 z m 208 690 b 376 836 208 771 278 829 l 376 553 b 208 690 282 581 208 614 z "},"%":{"ha":1017,"x_min":0,"x_max":0,"o":"m 267 483 b 490 710 400 483 490 582 b 267 940 490 842 400 940 b 43 710 135 940 43 842 b 267 483 43 582 135 483 z m 254 0 l 847 926 l 769 926 l 178 0 z m 750 -17 b 972 211 882 -17 972 82 b 750 440 972 340 882 440 b 526 211 618 440 526 340 b 750 -17 526 82 618 -17 z m 267 554 b 126 710 185 554 126 622 b 267 869 126 801 185 869 b 407 710 350 869 407 801 b 267 554 407 622 350 554 z m 750 54 b 608 211 665 54 608 122 b 750 369 608 301 665 369 b 890 211 833 369 890 301 b 750 54 890 122 833 54 z "},"&":{"ha":892,"x_min":0,"x_max":0,"o":"m 851 0 b 671 175 783 63 726 118 b 797 414 726 253 767 340 l 708 454 b 608 242 692 403 658 318 b 499 365 572 281 536 321 b 390 497 468 400 428 447 b 626 758 508 558 626 619 b 418 940 626 875 538 940 b 185 726 286 940 185 849 b 256 518 185 661 214 589 b 51 242 149 460 51 386 b 339 -17 51 71 181 -17 b 606 97 451 -17 538 29 b 707 0 643 60 679 24 z m 350 69 b 163 249 251 69 163 133 b 300 449 163 344 222 401 b 415 301 336 396 376 346 b 543 161 442 269 490 217 b 350 69 490 107 426 69 z m 292 724 b 421 860 292 804 350 860 b 531 754 483 860 531 822 b 347 564 531 661 446 613 b 292 724 315 618 292 675 z "},"’":{"ha":319,"x_min":0,"x_max":0,"o":"m 244 835 b 157 940 244 903 204 940 b 83 865 115 940 83 906 b 150 794 83 825 113 794 b 169 797 157 794 167 796 b 79 668 164 753 124 697 l 132 625 b 244 835 196 671 244 750 z "},"(":{"ha":344,"x_min":0,"x_max":0,"o":"m 321 -228 b 175 338 231 -53 175 107 b 321 904 175 569 231 728 l 257 951 b 61 338 132 779 61 561 b 257 -276 61 114 132 -104 z "},")":{"ha":344,"x_min":0,"x_max":0,"o":"m 24 -228 b 169 338 114 -53 169 107 b 24 904 169 569 114 728 l 88 951 b 283 338 213 779 283 561 b 88 -276 283 114 213 -104 z "},"*":{"ha":472,"x_min":0,"x_max":0,"o":"m 268 540 l 260 700 l 393 614 l 425 668 l 283 740 l 425 813 l 393 868 l 260 781 l 268 940 l 204 940 l 213 781 l 78 868 l 47 813 l 189 740 l 47 668 l 78 614 l 213 700 l 204 540 z "},"+":{"ha":693,"x_min":0,"x_max":0,"o":"m 653 432 l 653 504 l 386 504 l 386 792 l 307 792 l 307 504 l 40 504 l 40 432 l 307 432 l 307 136 l 386 136 l 386 432 z "},",":{"ha":319,"x_min":0,"x_max":0,"o":"m 244 33 b 157 139 244 100 204 139 b 83 64 115 139 83 104 b 150 -7 83 24 113 -7 b 169 -4 157 -7 167 -6 b 79 -133 164 -50 124 -104 l 132 -176 b 244 33 196 -131 244 -51 z "},"-":{"ha":417,"x_min":0,"x_max":0,"o":"m 375 290 l 375 382 l 42 382 l 42 290 z "},".":{"ha":321,"x_min":0,"x_max":0,"o":"m 160 -14 b 236 63 201 -14 236 21 b 160 139 236 104 201 139 b 83 63 118 139 83 104 b 160 -14 83 21 118 -14 z "},"/":{"ha":411,"x_min":0,"x_max":0,"o":"m 82 -28 l 411 954 l 329 954 l 0 -28 z "},":":{"ha":313,"x_min":0,"x_max":0,"o":"m 160 528 b 236 604 201 528 236 564 b 160 681 236 646 201 681 b 83 604 118 681 83 646 b 160 528 83 564 118 528 z m 160 -14 b 236 63 201 -14 236 21 b 160 139 236 104 201 139 b 83 63 118 139 83 104 b 160 -14 83 21 118 -14 z "},";":{"ha":319,"x_min":0,"x_max":0,"o":"m 160 528 b 236 604 201 528 236 564 b 160 681 236 646 201 681 b 83 604 118 681 83 646 b 160 528 83 564 118 528 z m 244 36 b 157 142 244 103 204 142 b 83 67 115 142 83 107 b 150 -4 83 25 113 -4 b 169 -1 157 -4 167 -3 b 79 -132 164 -47 124 -103 l 132 -174 b 244 36 196 -128 244 -50 z "},"<":{"ha":693,"x_min":0,"x_max":0,"o":"m 653 125 l 653 213 l 129 464 l 653 718 l 653 806 l 40 501 l 40 428 z "},"=":{"ha":693,"x_min":0,"x_max":0,"o":"m 653 561 l 653 635 l 40 635 l 40 561 z m 653 293 l 653 367 l 40 367 l 40 293 z "},">":{"ha":693,"x_min":0,"x_max":0,"o":"m 653 428 l 653 501 l 40 806 l 40 718 l 564 464 l 40 213 l 40 125 z "},"?":{"ha":642,"x_min":0,"x_max":0,"o":"m 282 257 l 367 294 b 331 361 343 311 331 339 b 599 725 331 497 599 515 b 326 940 599 844 496 940 b 25 799 194 940 92 886 l 94 724 b 317 838 146 793 211 838 b 479 708 425 838 479 778 b 229 371 479 561 229 547 b 282 257 229 328 244 289 z m 311 -14 b 388 63 353 -14 388 21 b 311 139 388 104 353 139 b 235 63 269 139 235 104 b 311 -14 235 21 269 -14 z "},"@":{"ha":1088,"x_min":0,"x_max":0,"o":"m 489 -97 b 778 -10 592 -97 692 -65 l 753 26 b 494 -51 678 -21 593 -51 b 97 342 264 -51 97 119 b 596 839 97 601 326 839 b 989 446 832 839 989 674 b 838 193 989 254 892 193 b 772 265 801 193 772 219 b 775 294 772 274 774 286 l 854 671 l 760 671 l 742 585 b 564 693 715 644 654 693 b 238 344 400 693 238 538 b 450 118 238 210 321 118 b 671 240 539 118 622 171 l 671 231 b 797 118 675 172 719 118 b 1038 446 914 118 1038 229 b 600 886 1038 689 863 886 b 49 339 311 886 49 639 b 489 -97 49 93 236 -97 z m 479 196 b 338 350 389 196 338 261 b 582 615 338 485 443 615 b 725 514 664 615 710 557 l 685 321 b 479 196 644 263 574 196 z "},"A":{"ha":914,"x_min":0,"x_max":0,"o":"m 901 0 l 529 926 l 386 926 l 13 0 l 144 0 l 226 207 l 688 207 l 769 0 z m 654 308 l 261 308 l 457 808 z "},"B":{"ha":874,"x_min":0,"x_max":0,"o":"m 531 0 b 799 250 700 0 799 101 b 618 478 799 361 717 463 b 781 690 703 496 781 574 b 521 926 781 829 682 926 l 108 926 l 108 0 z m 501 525 l 224 525 l 224 824 l 501 824 b 661 674 606 824 661 757 b 501 525 661 589 606 525 z m 508 103 l 224 103 l 224 422 l 508 422 b 679 263 621 422 679 347 b 508 103 679 164 615 103 z "},"C":{"ha":939,"x_min":0,"x_max":0,"o":"m 547 -17 b 900 168 711 -17 822 61 l 803 221 b 547 86 750 143 653 86 b 190 463 344 86 190 243 b 547 839 190 685 344 839 b 803 704 653 839 750 783 l 899 758 b 547 942 825 864 711 942 b 71 463 281 942 71 747 b 547 -17 71 178 281 -17 z "},"D":{"ha":972,"x_min":0,"x_max":0,"o":"m 425 0 b 900 463 714 0 900 199 b 425 926 900 725 714 926 l 108 926 l 108 0 z m 425 103 l 224 103 l 224 824 l 425 824 b 781 463 654 824 781 663 b 425 103 781 264 650 103 z "},"E":{"ha":790,"x_min":0,"x_max":0,"o":"m 715 0 l 715 103 l 224 103 l 224 422 l 706 422 l 706 525 l 224 525 l 224 824 l 715 824 l 715 926 l 108 926 l 108 0 z "},"F":{"ha":765,"x_min":0,"x_max":0,"o":"m 224 0 l 224 422 l 706 422 l 706 525 l 224 525 l 224 824 l 715 824 l 715 926 l 108 926 l 108 0 z "},"G":{"ha":990,"x_min":0,"x_max":0,"o":"m 547 -18 b 911 143 699 -18 825 46 l 911 476 l 478 476 l 478 374 l 797 374 l 797 186 b 547 86 750 139 658 86 b 190 463 344 86 190 243 b 547 839 190 685 344 839 b 815 711 658 839 757 786 l 907 769 b 547 942 826 869 713 942 b 71 463 283 942 71 751 b 547 -18 71 175 283 -18 z "},"H":{"ha":989,"x_min":0,"x_max":0,"o":"m 881 0 l 881 926 l 765 926 l 765 528 l 224 528 l 224 926 l 108 926 l 108 0 l 224 0 l 224 425 l 765 425 l 765 0 z "},"I":{"ha":332,"x_min":0,"x_max":0,"o":"m 224 0 l 224 926 l 108 926 l 108 0 z "},"J":{"ha":660,"x_min":0,"x_max":0,"o":"m 257 -17 b 551 279 422 -17 551 79 l 551 926 l 436 926 l 436 281 b 250 86 436 165 364 86 b 76 178 169 86 115 129 l 15 90 b 257 -17 79 15 160 -17 z "},"K":{"ha":835,"x_min":0,"x_max":0,"o":"m 813 0 l 392 488 l 778 926 l 633 926 l 224 449 l 224 926 l 108 926 l 108 0 l 224 0 l 224 311 l 317 417 l 668 0 z "},"L":{"ha":685,"x_min":0,"x_max":0,"o":"m 639 0 l 639 103 l 208 103 l 208 926 l 93 926 l 93 0 z "},"M":{"ha":1124,"x_min":0,"x_max":0,"o":"m 1015 0 l 1015 926 l 850 926 l 563 213 l 274 926 l 108 926 l 108 0 l 224 0 l 224 779 l 539 0 l 586 0 l 900 779 l 900 0 z "},"N":{"ha":983,"x_min":0,"x_max":0,"o":"m 875 0 l 875 926 l 760 926 l 760 203 l 226 926 l 108 926 l 108 0 l 224 0 l 224 739 l 764 0 z "},"O":{"ha":1063,"x_min":0,"x_max":0,"o":"m 531 -17 b 992 463 804 -17 992 189 b 531 942 992 736 804 942 b 71 463 257 942 71 736 b 531 -17 71 189 257 -17 z m 531 86 b 190 463 322 86 190 247 b 531 839 190 679 322 839 b 872 463 738 839 872 679 b 531 86 872 247 738 86 z "},"P":{"ha":815,"x_min":0,"x_max":0,"o":"m 224 0 l 224 368 l 481 368 b 771 647 665 368 771 496 b 481 926 771 799 667 926 l 108 926 l 108 0 z m 467 471 l 224 471 l 224 824 l 467 824 b 651 647 576 824 651 751 b 467 471 651 543 576 471 z "},"Q":{"ha":1063,"x_min":0,"x_max":0,"o":"m 531 -17 b 782 53 626 -17 713 8 l 872 -43 l 951 26 l 864 119 b 992 463 944 206 992 325 b 531 942 992 736 804 942 b 71 463 257 942 71 736 b 531 -17 71 189 257 -17 z m 531 86 b 190 463 322 86 190 247 b 531 839 190 679 322 839 b 872 463 738 839 872 679 b 786 203 872 360 840 269 l 656 344 l 575 276 l 707 133 b 531 86 657 103 597 86 z "},"R":{"ha":846,"x_min":0,"x_max":0,"o":"m 781 0 l 531 378 b 772 647 657 389 772 481 b 481 926 772 818 650 926 l 108 926 l 108 0 l 224 0 l 224 368 l 410 368 l 644 0 z m 467 469 l 224 469 l 224 824 l 467 824 b 653 647 576 824 653 753 b 467 469 653 543 576 469 z "},"S":{"ha":814,"x_min":0,"x_max":0,"o":"m 408 -17 b 750 256 658 -17 750 122 b 201 690 750 601 201 482 b 392 838 201 778 282 838 b 660 726 493 838 590 804 l 729 811 b 401 942 651 893 542 942 b 82 683 218 942 82 836 b 631 247 82 353 631 486 b 413 86 631 175 578 86 b 122 219 282 86 182 150 l 53 131 b 408 -17 129 44 249 -17 z "},"T":{"ha":792,"x_min":0,"x_max":0,"o":"m 453 0 l 453 824 l 747 824 l 747 926 l 44 926 l 44 824 l 338 824 l 338 0 z "},"U":{"ha":974,"x_min":0,"x_max":0,"o":"m 486 -17 b 865 361 738 -17 865 131 l 865 926 l 749 926 l 749 363 b 486 86 749 193 657 86 b 225 363 315 86 225 193 l 225 926 l 108 926 l 108 360 b 486 -17 108 132 236 -17 z "},"V":{"ha":914,"x_min":0,"x_max":0,"o":"m 529 0 l 901 926 l 769 926 l 457 126 l 144 926 l 13 926 l 386 0 z "},"W":{"ha":1226,"x_min":0,"x_max":0,"o":"m 942 0 l 1207 926 l 1078 926 l 874 154 l 661 926 l 565 926 l 353 154 l 147 926 l 19 926 l 283 0 l 408 0 l 613 747 l 817 0 z "},"X":{"ha":906,"x_min":0,"x_max":0,"o":"m 889 0 l 528 476 l 868 926 l 726 926 l 453 557 l 178 926 l 38 926 l 378 475 l 17 0 l 157 0 l 453 394 l 749 0 z "},"Y":{"ha":869,"x_min":0,"x_max":0,"o":"m 493 0 l 493 392 l 857 926 l 722 926 l 435 496 l 147 926 l 13 926 l 378 392 l 378 0 z "},"Z":{"ha":813,"x_min":0,"x_max":0,"o":"m 746 0 l 746 103 l 214 103 l 736 831 l 736 926 l 67 926 l 67 824 l 588 824 l 67 96 l 67 0 z "},"[":{"ha":338,"x_min":0,"x_max":0,"o":"m 314 -264 l 314 -187 l 138 -187 l 138 865 l 314 865 l 314 942 l 56 942 l 56 -264 z "},"\\":{"ha":411,"x_min":0,"x_max":0,"o":"m 329 -28 l 411 -28 l 82 954 l 0 954 z "},"]":{"ha":338,"x_min":0,"x_max":0,"o":"m 283 -264 l 283 942 l 24 942 l 24 865 l 201 865 l 201 -187 l 24 -187 l 24 -264 z "},"^":{"ha":600,"x_min":0,"x_max":0,"o":"m 574 463 l 340 926 l 261 926 l 26 463 l 113 463 l 300 850 l 488 463 z "},"_":{"ha":783,"x_min":0,"x_max":0,"o":"m 788 -132 l 788 -56 l -4 -56 l -4 -132 z "},"‘":{"ha":319,"x_min":0,"x_max":0,"o":"m 67 732 b 153 626 67 664 107 626 b 226 701 194 626 226 660 b 160 772 226 742 197 772 b 140 769 153 772 143 769 b 231 899 146 814 186 869 l 178 940 b 67 732 115 896 67 817 z "},"a":{"ha":733,"x_min":0,"x_max":0,"o":"m 628 0 l 628 461 b 368 688 628 624 511 688 b 100 576 258 688 172 651 l 149 504 b 354 597 208 569 274 597 b 524 457 451 597 524 546 l 524 336 b 301 426 469 397 393 426 b 68 206 188 426 68 357 b 301 -17 68 60 189 -17 b 524 76 392 -17 469 15 l 524 0 z m 340 58 b 174 206 242 58 174 119 b 340 351 174 290 242 351 b 524 269 413 351 483 324 l 524 142 b 340 58 483 86 413 58 z "},"b":{"ha":799,"x_min":0,"x_max":0,"o":"m 208 182 l 208 486 b 410 594 244 544 326 594 b 625 335 544 594 625 483 b 410 76 625 186 544 76 b 208 182 326 76 244 124 z m 208 0 l 208 100 b 435 -17 258 32 340 -17 b 733 335 610 -17 733 117 b 435 688 733 550 611 688 b 208 569 344 688 263 643 l 208 926 l 104 926 l 104 0 z "},"c":{"ha":689,"x_min":0,"x_max":0,"o":"m 400 -17 b 646 100 522 -17 594 33 l 576 164 b 406 76 532 104 475 76 b 174 336 264 76 174 188 b 406 594 174 485 264 594 b 576 508 475 594 532 569 l 646 571 b 400 688 594 638 522 688 b 65 336 200 688 65 535 b 400 -17 65 138 200 -17 z "},"d":{"ha":799,"x_min":0,"x_max":0,"o":"m 694 0 l 694 926 l 590 926 l 590 569 b 364 688 536 643 454 688 b 65 335 189 688 65 550 b 364 -17 65 117 189 -17 b 590 100 458 -17 540 32 l 590 0 z m 390 76 b 174 335 254 76 174 186 b 390 594 174 483 254 594 b 590 486 472 594 554 544 l 590 183 b 390 76 554 125 472 76 z "},"e":{"ha":782,"x_min":0,"x_max":0,"o":"m 408 -17 b 675 88 517 -17 607 21 l 625 156 b 417 69 571 100 494 69 b 176 301 272 69 185 175 l 718 301 l 718 328 b 396 688 718 529 599 688 b 65 336 204 688 65 531 b 408 -17 65 126 208 -17 z m 615 379 l 175 379 b 394 601 181 481 251 601 b 615 379 547 601 614 478 z "},"f":{"ha":394,"x_min":0,"x_max":0,"o":"m 238 0 l 238 579 l 374 579 l 374 671 l 238 671 l 238 722 b 344 854 238 808 275 854 b 426 822 378 854 404 842 l 469 889 b 328 940 428 928 382 940 b 133 722 210 940 133 860 l 133 671 l 22 671 l 22 579 l 133 579 l 133 0 z "},"g":{"ha":799,"x_min":0,"x_max":0,"o":"m 374 -272 b 694 10 538 -272 694 -203 l 694 671 l 590 671 l 590 569 b 364 688 536 643 454 688 b 65 339 188 688 65 554 b 364 -8 65 122 189 -8 b 590 111 458 -8 540 43 l 590 10 b 374 -186 590 -132 485 -186 b 156 -96 278 -186 211 -161 l 103 -171 b 374 -272 183 -250 261 -272 z m 390 85 b 174 339 254 85 174 192 b 390 594 174 488 254 594 b 590 488 472 594 553 544 l 590 193 b 390 85 553 135 472 85 z "},"h":{"ha":767,"x_min":0,"x_max":0,"o":"m 663 0 l 663 474 b 449 688 663 619 589 688 b 210 574 347 688 256 631 l 210 926 l 106 926 l 106 0 l 210 0 l 210 490 b 407 594 249 544 326 594 b 558 442 499 594 558 561 l 558 0 z "},"i":{"ha":313,"x_min":0,"x_max":0,"o":"m 157 767 b 226 836 196 767 226 797 b 157 907 226 875 196 907 b 86 836 118 907 86 875 b 157 767 86 797 118 767 z m 208 0 l 208 671 l 104 671 l 104 0 z "},"j":{"ha":313,"x_min":0,"x_max":0,"o":"m 157 767 b 226 836 196 767 226 797 b 157 907 226 875 196 907 b 86 836 118 907 86 875 b 157 767 86 797 118 767 z m 10 -272 b 208 -65 139 -272 208 -197 l 208 671 l 104 671 l 104 -65 b -4 -186 104 -150 58 -186 b -100 -144 -46 -186 -76 -168 l -136 -222 b 10 -272 -94 -256 -58 -272 z "},"k":{"ha":714,"x_min":0,"x_max":0,"o":"m 694 0 l 396 367 l 693 671 l 561 671 l 208 314 l 208 926 l 104 926 l 104 0 l 208 0 l 208 192 l 321 301 l 561 0 z "},"l":{"ha":313,"x_min":0,"x_max":0,"o":"m 208 0 l 208 926 l 104 926 l 104 0 z "},"m":{"ha":1122,"x_min":0,"x_max":0,"o":"m 1018 0 l 1018 485 b 831 688 1018 619 953 688 b 606 563 733 688 643 624 b 426 688 586 632 528 688 b 208 574 326 688 238 617 l 208 671 l 104 671 l 104 0 l 208 0 l 208 490 b 385 594 244 544 317 594 b 508 456 474 594 508 540 l 508 0 l 613 0 l 613 492 b 790 594 647 546 721 594 b 914 456 878 594 914 540 l 914 0 z "},"n":{"ha":767,"x_min":0,"x_max":0,"o":"m 661 0 l 661 471 b 449 688 661 617 588 688 b 208 574 347 688 256 631 l 208 671 l 104 671 l 104 0 l 208 0 l 208 490 b 407 594 249 544 325 594 b 558 439 497 594 558 558 l 558 0 z "},"o":{"ha":794,"x_min":0,"x_max":0,"o":"m 397 -17 b 729 336 601 -17 729 142 b 397 688 729 531 601 688 b 65 336 193 688 65 531 b 397 -17 65 142 193 -17 z m 397 76 b 175 336 254 76 175 199 b 397 594 175 472 254 594 b 619 336 540 594 619 472 b 397 76 619 199 540 76 z "},"p":{"ha":794,"x_min":0,"x_max":0,"o":"m 435 -17 b 733 336 611 -17 733 119 b 435 688 733 554 611 688 b 208 571 340 688 257 639 l 208 671 l 104 671 l 104 -256 l 208 -256 l 208 101 b 435 -17 264 28 343 -17 z m 408 76 b 208 185 326 76 244 126 l 208 488 b 408 594 244 546 326 594 b 624 336 543 594 624 485 b 408 76 624 188 543 76 z "},"q":{"ha":794,"x_min":0,"x_max":0,"o":"m 386 76 b 171 336 251 76 171 188 b 386 594 171 485 251 594 b 586 488 468 594 550 546 l 586 185 b 386 76 550 126 468 76 z m 360 -17 b 586 101 451 -17 531 28 l 586 -256 l 690 -256 l 690 671 l 586 671 l 586 571 b 360 688 538 639 454 688 b 61 336 183 688 61 554 b 360 -17 61 119 183 -17 z "},"r":{"ha":458,"x_min":0,"x_max":0,"o":"m 208 0 l 208 475 b 392 582 239 529 326 582 b 432 579 407 582 419 581 l 432 686 b 208 564 340 686 263 633 l 208 671 l 104 671 l 104 0 z "},"s":{"ha":646,"x_min":0,"x_max":0,"o":"m 318 -17 b 581 186 490 -17 581 74 b 165 497 581 447 165 351 b 314 603 165 557 222 603 b 514 518 401 603 474 567 l 563 590 b 314 688 510 644 429 688 b 65 494 154 688 65 600 b 481 183 65 246 481 346 b 321 68 481 117 424 68 b 100 164 229 68 144 113 l 47 89 b 318 -17 115 18 207 -17 z "},"t":{"ha":408,"x_min":0,"x_max":0,"o":"m 275 -17 b 399 26 335 -17 372 1 l 368 106 b 297 76 354 90 328 76 b 231 163 253 76 231 113 l 231 579 l 367 579 l 367 671 l 231 671 l 231 854 l 125 854 l 125 671 l 14 671 l 14 579 l 125 579 l 125 140 b 275 -17 125 40 175 -17 z "},"u":{"ha":765,"x_min":0,"x_max":0,"o":"m 661 0 l 661 671 l 557 671 l 557 178 b 360 76 518 124 440 76 b 208 229 268 76 208 111 l 208 671 l 104 671 l 104 197 b 318 -17 104 53 178 -17 b 557 94 418 -17 506 36 l 557 0 z "},"v":{"ha":681,"x_min":0,"x_max":0,"o":"m 397 0 l 676 671 l 564 671 l 340 121 l 118 671 l 4 671 l 283 0 z "},"w":{"ha":1019,"x_min":0,"x_max":0,"o":"m 790 0 l 1004 671 l 894 671 l 731 136 l 556 671 l 465 671 l 289 136 l 125 671 l 17 671 l 231 0 l 335 0 l 510 539 l 685 0 z "},"x":{"ha":676,"x_min":0,"x_max":0,"o":"m 660 0 l 401 344 l 644 671 l 525 671 l 338 415 l 151 671 l 31 671 l 274 344 l 17 0 l 136 0 l 338 275 l 540 0 z "},"y":{"ha":681,"x_min":0,"x_max":0,"o":"m 68 -262 b 143 -272 86 -268 121 -272 b 340 -136 232 -271 300 -233 l 676 671 l 564 671 l 340 121 l 118 671 l 4 671 l 285 -7 l 240 -108 b 140 -179 217 -164 186 -179 b 83 -168 124 -179 99 -175 z "},"z":{"ha":656,"x_min":0,"x_max":0,"o":"m 583 0 l 583 92 l 206 92 l 578 592 l 578 671 l 72 671 l 72 579 l 442 579 l 72 82 l 72 0 z "},"{":{"ha":363,"x_min":0,"x_max":0,"o":"m 339 -264 l 339 -187 l 253 -187 b 161 -76 204 -187 161 -140 l 161 217 b 99 339 161 275 144 319 b 161 461 144 358 161 403 l 161 756 b 253 865 161 821 204 865 l 339 865 l 339 942 l 253 942 b 81 754 165 942 81 869 l 81 469 b 7 374 81 418 57 374 l 7 304 b 81 208 57 304 81 260 l 81 -78 b 253 -264 81 -192 165 -264 z "},"|":{"ha":293,"x_min":0,"x_max":0,"o":"m 185 -28 l 185 954 l 108 954 l 108 -28 z "},"}":{"ha":363,"x_min":0,"x_max":0,"o":"m 24 -264 l 108 -264 b 282 -78 197 -264 282 -192 l 282 208 b 354 304 282 260 306 304 l 354 374 b 282 469 306 374 282 418 l 282 754 b 108 942 282 869 197 942 l 24 942 l 24 865 l 108 865 b 201 756 158 865 201 821 l 201 461 b 264 339 201 403 218 358 b 201 217 218 319 201 275 l 201 -76 b 108 -187 201 -140 158 -187 l 24 -187 z "},"~":{"ha":699,"x_min":0,"x_max":0,"o":"m 583 926 b 469 660 568 768 538 660 b 229 925 361 660 404 925 b 38 596 93 925 53 764 l 115 586 b 229 851 131 742 161 851 b 469 588 338 851 294 588 b 660 918 607 588 644 750 z "},"¡":{"ha":319,"x_min":0,"x_max":0,"o":"m 94 -256 l 225 -256 l 203 411 l 115 411 z m 83 608 b 160 533 83 568 118 533 b 235 608 201 533 235 568 b 160 685 235 650 201 685 b 83 608 118 685 83 650 z "},"¢":{"ha":689,"x_min":0,"x_max":0,"o":"m 350 -139 l 432 -139 l 432 -15 b 646 100 535 -7 599 39 l 576 164 b 432 78 538 111 489 83 l 432 593 b 576 508 489 588 538 561 l 646 571 b 432 686 599 631 535 678 l 432 785 l 350 785 l 350 683 b 65 336 178 660 65 517 b 350 -12 65 154 178 10 z m 174 336 b 350 589 174 464 240 564 l 350 82 b 174 336 240 107 174 207 z "},"£":{"ha":719,"x_min":0,"x_max":0,"o":"m 28 372 l 228 372 b 249 289 240 347 249 319 b 65 78 249 206 183 129 l 106 -10 b 269 46 164 21 222 46 b 518 -18 374 46 393 -18 b 706 47 606 -18 667 10 l 656 140 b 524 85 638 115 585 85 b 318 142 446 85 407 142 b 246 129 293 142 267 136 b 351 313 303 169 351 228 b 342 372 351 335 347 354 l 511 372 l 511 447 l 303 447 b 192 665 256 511 192 564 b 389 843 192 776 283 843 b 565 729 474 843 542 789 l 658 785 b 378 940 607 883 504 940 b 67 667 210 940 67 821 b 174 447 67 565 124 506 l 28 447 z "},"⁄":{"ha":193,"x_min":0,"x_max":0,"o":"m 431 926 l 354 926 l -237 0 l -162 0 z "},"¥":{"ha":869,"x_min":0,"x_max":0,"o":"m 493 0 l 493 169 l 840 169 l 840 243 l 493 243 l 493 392 l 840 392 l 840 464 l 542 464 l 857 926 l 722 926 l 435 496 l 147 926 l 13 926 l 328 464 l 31 464 l 31 392 l 378 392 l 378 243 l 31 243 l 31 169 l 378 169 l 378 0 z "},"ƒ":{"ha":600,"x_min":0,"x_max":0,"o":"m 151 -224 l 281 353 l 493 353 l 493 447 l 300 447 l 358 710 b 499 838 376 790 431 838 b 567 806 529 838 550 828 l 618 890 b 488 940 583 928 540 940 b 246 731 368 940 274 860 l 182 447 l 68 447 l 68 353 l 163 353 l 35 -224 z "},"§":{"ha":650,"x_min":0,"x_max":0,"o":"m 581 438 b 165 751 581 699 165 596 b 318 863 165 819 228 863 b 514 779 390 863 467 836 l 563 842 b 314 940 517 893 439 940 b 65 753 157 940 65 854 b 224 581 65 660 128 611 b 65 404 140 558 65 501 b 481 85 65 157 481 256 b 318 -35 481 10 413 -35 b 100 64 218 -35 142 14 l 47 -4 b 318 -112 106 -61 181 -112 b 581 92 472 -112 581 -37 b 453 261 581 182 531 231 b 581 438 538 297 581 361 z m 478 425 b 363 288 478 360 436 319 b 165 414 263 313 165 332 b 321 551 165 474 200 521 b 478 425 397 532 478 504 z "},"¤":{"ha":725,"x_min":0,"x_max":0,"o":"m 675 190 l 597 268 b 667 463 642 324 667 393 b 597 657 667 533 642 603 l 675 736 l 635 775 l 557 697 b 363 767 503 742 432 767 b 168 697 292 767 222 743 l 89 775 l 50 736 l 128 657 b 58 463 83 603 58 533 b 128 268 58 393 83 324 l 50 190 l 89 150 l 168 229 b 363 158 222 183 292 158 b 557 229 432 158 503 183 l 635 150 z m 600 463 b 363 225 600 332 493 225 b 125 463 232 225 125 332 b 363 700 125 594 232 700 b 600 463 493 700 600 594 z "},"'":{"ha":276,"x_min":0,"x_max":0,"o":"m 164 572 b 201 876 164 572 201 857 b 138 940 201 911 174 940 b 75 876 103 940 75 911 b 113 572 75 857 113 572 z "},"“":{"ha":542,"x_min":0,"x_max":0,"o":"m 75 732 b 161 626 75 664 115 626 b 236 701 203 626 236 660 b 168 772 236 742 207 772 b 150 769 161 772 151 769 b 239 899 156 814 194 869 l 188 940 b 75 732 124 896 75 817 z m 297 732 b 383 626 297 664 338 626 b 458 701 425 626 458 660 b 390 772 458 742 429 772 b 372 769 385 772 375 769 b 461 899 378 814 417 869 l 410 940 b 297 732 346 896 297 817 z "},"«":{"ha":610,"x_min":0,"x_max":0,"o":"m 568 88 l 346 338 l 568 583 l 464 583 l 242 338 l 464 88 z m 368 88 l 146 338 l 368 583 l 264 583 l 42 338 l 264 88 z "},"‹":{"ha":410,"x_min":0,"x_max":0,"o":"m 368 88 l 146 338 l 368 583 l 264 583 l 42 338 l 264 88 z "},"›":{"ha":410,"x_min":0,"x_max":0,"o":"m 368 338 l 146 583 l 42 583 l 264 338 l 42 88 l 146 88 z "},"ﬁ":{"ha":707,"x_min":0,"x_max":0,"o":"m 238 0 l 238 579 l 374 579 l 374 671 l 238 671 l 238 722 b 344 854 238 808 275 854 b 404 839 369 854 388 849 l 431 918 b 328 940 403 933 368 940 b 133 722 213 940 133 861 l 133 671 l 22 671 l 22 579 l 133 579 l 133 0 z m 551 767 b 621 836 590 767 621 797 b 551 907 621 875 590 907 b 481 836 513 907 481 875 b 551 767 481 797 513 767 z m 603 0 l 603 671 l 499 671 l 499 0 z "},"ﬂ":{"ha":707,"x_min":0,"x_max":0,"o":"m 238 0 l 238 579 l 374 579 l 374 671 l 238 671 l 238 722 b 344 854 238 808 275 854 b 404 839 369 854 388 849 l 431 918 b 328 940 403 933 368 940 b 133 722 213 940 133 861 l 133 671 l 22 671 l 22 579 l 133 579 l 133 0 z m 603 0 l 603 926 l 499 926 l 499 0 z "},"–":{"ha":824,"x_min":0,"x_max":0,"o":"m 782 290 l 782 382 l 42 382 l 42 290 z "},"†":{"ha":365,"x_min":0,"x_max":0,"o":"m 333 738 l 333 797 l 210 793 l 215 940 l 149 940 l 156 793 l 32 797 l 32 738 l 156 743 l 149 454 l 215 454 l 210 743 z "},"‡":{"ha":365,"x_min":0,"x_max":0,"o":"m 333 797 l 210 793 l 215 940 l 149 940 l 154 793 l 32 797 l 32 738 l 154 743 l 154 447 l 32 453 l 32 393 l 154 397 l 149 250 l 215 250 l 210 397 l 333 393 l 333 453 l 210 447 l 210 743 l 333 738 z "},"·":{"ha":321,"x_min":0,"x_max":0,"o":"m 236 340 b 160 415 236 381 201 415 b 83 340 118 415 83 381 b 160 264 83 299 118 264 b 236 340 201 264 236 299 z "},"¶":{"ha":624,"x_min":0,"x_max":0,"o":"m 525 -139 l 525 926 l 276 926 b 38 688 144 926 38 819 b 276 449 38 556 144 449 l 276 -139 l 339 -139 l 339 864 l 463 864 l 463 -139 z "},"•":{"ha":497,"x_min":0,"x_max":0,"o":"m 400 336 b 250 486 400 418 332 486 b 100 336 168 486 100 418 b 250 188 100 256 168 188 b 400 336 332 188 400 256 z "},"‚":{"ha":319,"x_min":0,"x_max":0,"o":"m 244 33 b 157 139 244 100 204 139 b 83 64 115 139 83 104 b 150 -7 83 24 113 -7 b 169 -4 157 -7 167 -6 b 79 -133 164 -50 124 -104 l 132 -176 b 244 33 196 -131 244 -51 z "},"„":{"ha":542,"x_min":0,"x_max":0,"o":"m 244 33 b 157 139 244 100 204 139 b 83 64 115 139 83 104 b 150 -7 83 24 113 -7 b 169 -4 157 -7 167 -6 b 79 -133 164 -50 124 -104 l 132 -176 b 244 33 196 -131 244 -51 z m 467 33 b 381 139 467 100 426 139 b 306 64 339 139 306 104 b 374 -7 306 24 335 -7 b 392 -4 379 -7 390 -6 b 303 -133 386 -50 347 -104 l 354 -176 b 467 33 418 -131 467 -51 z "},"”":{"ha":542,"x_min":0,"x_max":0,"o":"m 467 835 b 381 940 467 903 426 940 b 306 865 339 940 306 906 b 374 794 306 825 335 794 b 392 797 379 794 390 796 b 303 668 386 753 347 697 l 354 625 b 467 835 418 671 467 750 z m 244 835 b 157 940 244 903 204 940 b 83 865 115 940 83 906 b 150 794 83 825 113 794 b 169 797 157 794 167 796 b 79 668 164 753 124 697 l 132 625 b 244 835 196 671 244 750 z "},"»":{"ha":610,"x_min":0,"x_max":0,"o":"m 368 338 l 146 583 l 42 583 l 264 338 l 42 88 l 146 88 z m 568 338 l 346 583 l 242 583 l 464 338 l 242 88 l 346 88 z "},"…":{"ha":960,"x_min":0,"x_max":0,"o":"m 236 63 b 160 139 236 104 201 139 b 83 63 118 139 83 104 b 160 -14 83 22 118 -14 b 236 63 201 -14 236 22 z m 556 63 b 479 139 556 104 521 139 b 403 63 438 139 403 104 b 479 -14 403 22 438 -14 b 556 63 521 -14 556 22 z m 875 63 b 800 139 875 104 842 139 b 724 63 758 139 724 104 b 800 -14 724 22 758 -14 b 875 63 842 -14 875 22 z "},"‰":{"ha":1506,"x_min":0,"x_max":0,"o":"m 490 710 b 267 940 490 842 400 940 b 43 710 135 940 43 842 b 267 483 43 582 135 483 b 490 710 400 483 490 582 z m 847 926 l 769 926 l 178 0 l 254 0 z m 972 211 b 750 440 972 340 882 440 b 526 211 618 440 526 340 b 750 -17 526 82 618 -17 b 972 211 882 -17 972 82 z m 407 710 b 267 549 407 619 350 549 b 126 710 185 549 126 619 b 267 875 126 806 185 875 b 407 710 350 875 407 806 z m 890 211 b 750 49 890 119 833 49 b 608 211 665 49 608 119 b 750 375 608 304 665 375 b 890 211 833 375 890 304 z m 1463 211 b 1239 440 1463 340 1371 440 b 1015 211 1107 440 1015 340 b 1239 -17 1015 82 1107 -17 b 1463 211 1371 -17 1463 82 z m 1379 211 b 1239 49 1379 119 1322 49 b 1099 211 1156 49 1099 119 b 1239 375 1099 304 1156 375 b 1379 211 1322 375 1379 304 z "},"¿":{"ha":547,"x_min":0,"x_max":0,"o":"m 360 411 l 275 374 b 311 307 299 357 311 329 b 43 -57 311 171 43 153 b 315 -272 43 -176 146 -272 b 617 -131 447 -272 550 -218 l 547 -57 b 325 -169 496 -125 431 -169 b 163 -40 217 -169 163 -110 b 413 297 163 107 413 121 b 360 411 413 340 397 379 z m 331 685 b 254 608 289 685 254 650 b 331 532 254 567 289 532 b 407 608 372 532 407 567 b 331 685 407 650 372 685 z "},"`":{"ha":314,"x_min":0,"x_max":0,"o":"m 314 772 l 108 972 l 0 972 l 235 772 z "},"´":{"ha":314,"x_min":0,"x_max":0,"o":"m 314 972 l 206 972 l 0 772 l 79 772 z "},"ˆ":{"ha":368,"x_min":0,"x_max":0,"o":"m 368 772 l 232 972 l 132 972 l 0 772 l 71 772 l 182 919 l 297 772 z "},"˜":{"ha":435,"x_min":0,"x_max":0,"o":"m 300 769 b 435 956 388 769 435 847 l 372 956 b 306 836 372 872 343 836 b 135 964 239 836 235 964 b 0 778 47 964 0 886 l 63 778 b 129 897 63 861 92 897 b 300 769 196 897 200 769 z "},"¯":{"ha":504,"x_min":0,"x_max":0,"o":"m 504 821 l 504 888 l 0 888 l 0 821 z "},"˘":{"ha":488,"x_min":0,"x_max":0,"o":"m 488 904 l 438 949 b 244 849 393 886 325 849 b 53 949 163 849 96 888 l 0 904 b 244 782 57 829 146 782 b 488 904 344 782 432 829 z "},"˙":{"ha":156,"x_min":0,"x_max":0,"o":"m 78 796 b 143 861 114 796 143 825 b 78 926 143 897 114 926 b 13 861 43 926 13 897 b 78 796 13 825 43 796 z "},"¨":{"ha":378,"x_min":0,"x_max":0,"o":"m 397 839 b 332 903 397 875 368 903 b 268 839 297 903 268 875 b 332 775 268 804 297 775 b 397 839 368 775 397 804 z m 110 839 b 46 903 110 875 81 903 b -19 839 10 903 -19 875 b 46 775 -19 804 10 775 b 110 839 81 775 110 804 z "},"˚":{"ha":272,"x_min":0,"x_max":0,"o":"m 138 769 b 272 907 213 769 272 832 b 138 1044 272 982 213 1044 b 0 907 63 1044 0 982 b 138 769 0 832 63 769 z m 138 825 b 56 907 92 825 56 863 b 138 989 56 951 92 989 b 218 907 182 989 218 951 b 138 825 218 863 182 825 z "},"¸":{"ha":285,"x_min":0,"x_max":0,"o":"m 140 -265 b 285 -154 221 -265 285 -222 b 193 -61 285 -97 246 -61 b 142 -76 175 -61 156 -65 l 178 15 l 115 15 l 72 -101 l 118 -128 b 171 -104 131 -112 151 -104 b 222 -153 206 -104 222 -124 b 138 -211 222 -190 183 -211 b 26 -171 100 -211 61 -199 l 0 -224 b 140 -265 28 -246 81 -265 z "},"˝":{"ha":424,"x_min":0,"x_max":0,"o":"m 226 972 l 131 972 l 0 772 l 67 772 z m 424 972 l 328 972 l 197 772 l 264 772 z "},"˛":{"ha":247,"x_min":0,"x_max":0,"o":"m 196 -146 b 125 -204 183 -183 163 -204 b 63 -135 88 -204 63 -182 b 168 0 63 -76 101 -33 l 122 32 b 0 -137 50 -6 0 -68 b 125 -258 0 -222 60 -258 b 247 -175 190 -258 228 -219 z "},"ˇ":{"ha":368,"x_min":0,"x_max":0,"o":"m 236 772 l 368 972 l 297 972 l 186 825 l 71 972 l 0 972 l 136 772 z "},"—":{"ha":1157,"x_min":0,"x_max":0,"o":"m 1115 290 l 1115 382 l 42 382 l 42 290 z "},"Æ":{"ha":1317,"x_min":0,"x_max":0,"o":"m 1240 0 l 1240 103 l 749 103 l 749 422 l 1231 422 l 1231 525 l 749 525 l 749 824 l 1240 824 l 1240 926 l 588 926 l 10 0 l 142 0 l 269 207 l 633 207 l 633 0 z m 633 308 l 325 308 l 633 808 z "},"ª":{"ha":525,"x_min":0,"x_max":0,"o":"m 442 453 l 442 746 b 261 900 442 858 358 900 b 79 826 189 900 128 876 l 115 774 b 251 838 153 818 203 838 b 363 747 311 838 363 804 l 363 671 b 213 729 328 707 279 729 b 57 586 136 729 57 682 b 213 442 57 493 136 442 b 363 501 279 442 328 465 l 363 453 z m 243 494 b 138 586 182 494 138 531 b 243 678 138 640 182 678 b 363 625 290 678 336 658 l 363 547 b 243 494 336 514 290 494 z "},"Ł":{"ha":728,"x_min":0,"x_max":0,"o":"m 14 307 l 136 378 l 136 0 l 682 0 l 682 103 l 251 103 l 251 444 l 385 521 l 385 621 l 251 544 l 251 926 l 136 926 l 136 478 l 14 407 z "},"Ø":{"ha":1063,"x_min":0,"x_max":0,"o":"m 531 -17 b 992 463 804 -17 992 189 b 826 839 992 618 929 753 l 885 926 l 792 926 l 763 883 b 531 942 696 921 618 942 b 71 463 257 942 71 736 b 229 90 71 308 129 176 l 168 0 l 261 0 l 292 46 b 531 -17 360 6 440 -17 z m 531 86 b 351 135 461 86 401 103 l 764 747 b 872 463 833 679 872 579 b 531 86 872 247 738 86 z m 190 463 b 531 839 190 679 322 839 b 703 794 596 839 654 822 l 292 183 b 190 463 226 251 190 349 z "},"Œ":{"ha":1535,"x_min":0,"x_max":0,"o":"m 1460 0 l 1460 103 l 968 103 l 968 422 l 1450 422 l 1450 525 l 968 525 l 968 824 l 1460 824 l 1460 926 l 853 926 l 853 758 b 521 940 783 879 651 940 b 71 463 251 940 71 736 b 521 -17 71 189 251 -17 b 853 168 651 -17 783 46 l 853 0 z m 853 311 b 535 86 797 163 676 86 b 190 463 322 86 190 247 b 535 838 190 679 322 838 b 853 615 676 838 797 764 z "},"º":{"ha":563,"x_min":0,"x_max":0,"o":"m 281 442 b 507 671 421 442 507 546 b 281 900 507 797 421 900 b 56 671 143 900 56 797 b 281 442 56 546 143 442 z m 281 508 b 139 671 190 508 139 581 b 281 832 139 761 190 832 b 425 671 372 832 425 761 b 281 508 425 581 372 508 z "},"æ":{"ha":1235,"x_min":0,"x_max":0,"o":"m 1171 301 l 1171 328 b 853 688 1171 529 1051 688 b 596 540 725 688 642 621 b 368 688 574 638 493 688 b 100 576 258 688 172 651 l 149 504 b 354 597 208 569 274 597 b 524 457 451 597 524 546 l 524 338 b 301 426 468 399 392 426 b 68 206 181 426 68 351 b 307 -17 68 60 189 -17 b 583 122 449 -17 536 56 b 861 -17 640 43 731 -17 b 1128 88 969 -17 1060 21 l 1078 157 b 869 72 1024 101 947 72 b 629 301 725 72 638 175 z m 628 379 b 847 601 633 481 704 601 b 1068 379 1000 601 1067 478 z m 544 176 b 340 58 494 86 413 58 b 174 206 242 58 174 119 b 340 351 174 290 242 351 b 524 267 413 351 483 322 b 544 176 524 235 536 196 z "},"ı":{"ha":313,"x_min":0,"x_max":0,"o":"m 208 0 l 208 671 l 104 671 l 104 0 z "},"ł":{"ha":399,"x_min":0,"x_max":0,"o":"m 14 317 l 147 393 l 147 0 l 251 0 l 251 453 l 383 528 l 383 611 l 251 536 l 251 926 l 147 926 l 147 476 l 14 400 z "},"ø":{"ha":794,"x_min":0,"x_max":0,"o":"m 164 0 l 200 46 b 397 -17 253 6 319 -17 b 729 336 601 -17 729 142 b 633 592 729 436 694 528 l 696 671 l 619 671 l 588 631 b 397 688 536 667 471 688 b 65 336 193 688 65 531 b 156 85 65 238 97 149 l 89 0 z m 397 76 b 261 124 342 76 297 93 l 567 508 b 619 336 601 463 619 400 b 397 76 619 199 540 76 z m 175 336 b 397 594 175 472 254 594 b 525 553 449 594 492 579 l 222 168 b 175 336 190 214 175 274 z "},"œ":{"ha":1336,"x_min":0,"x_max":0,"o":"m 1272 301 l 1272 328 b 950 688 1272 529 1153 688 b 675 496 790 688 706 569 b 397 688 644 567 564 688 b 65 336 193 688 65 531 b 397 -17 65 142 193 -17 b 674 175 564 -17 640 101 b 963 -17 708 97 790 -17 b 1229 88 1071 -17 1161 21 l 1179 156 b 971 69 1125 100 1049 69 b 731 301 828 69 739 175 z m 729 379 b 950 601 735 481 806 601 b 1171 379 1101 601 1168 478 z m 619 336 b 397 75 619 194 538 75 b 175 336 257 75 175 194 b 397 594 175 476 257 594 b 619 336 538 594 619 476 z "},"ß":{"ha":829,"x_min":0,"x_max":0,"o":"m 803 188 b 404 496 803 449 404 351 b 613 765 404 610 613 614 b 369 940 613 874 497 940 b 106 693 207 940 106 829 l 106 0 l 210 0 l 210 693 b 368 847 210 789 281 847 b 506 754 433 847 506 815 b 303 496 506 664 303 646 b 701 185 303 251 701 346 b 544 69 701 125 651 69 b 339 164 451 69 378 113 l 286 92 b 544 -17 344 33 411 -17 b 803 188 718 -17 803 79 z "},"¹":{"ha":326,"x_min":0,"x_max":0,"o":"m 243 585 l 243 1140 l 169 1140 l 19 988 l 68 936 l 160 1032 l 160 585 z "},"¬":{"ha":700,"x_min":0,"x_max":0,"o":"m 653 635 l 40 635 l 40 561 l 576 561 l 576 293 l 653 293 z "},"µ":{"ha":765,"x_min":0,"x_max":0,"o":"m 208 -256 l 208 3 b 318 -17 238 -10 275 -17 b 557 94 418 -17 506 36 l 557 0 l 661 0 l 661 671 l 557 671 l 557 178 b 360 74 518 124 440 74 b 208 229 268 74 208 111 l 208 671 l 104 671 l 104 -256 z "},"™":{"ha":631,"x_min":0,"x_max":0,"o":"m 582 621 l 582 926 l 522 926 l 433 704 l 344 926 l 285 926 l 285 621 l 324 621 l 324 874 l 428 621 l 439 621 l 543 874 l 543 621 z m 235 890 l 235 926 l 24 926 l 24 890 l 110 890 l 110 621 l 149 621 l 149 890 z "},"Ð":{"ha":1011,"x_min":0,"x_max":0,"o":"m 464 0 b 939 463 753 0 939 199 b 464 926 939 725 753 926 l 147 926 l 147 500 l 14 500 l 14 415 l 147 415 l 147 0 z m 497 415 l 497 500 l 263 500 l 263 824 l 464 824 b 819 463 693 824 819 663 b 464 103 819 264 689 103 l 263 103 l 263 415 z "},"½":{"ha":1121,"x_min":0,"x_max":0,"o":"m 819 926 l 743 926 l 151 0 l 226 0 z m 1056 0 l 1056 68 l 774 68 b 1053 400 938 188 1053 289 b 854 564 1053 514 956 564 b 650 476 776 564 696 535 l 696 424 b 851 496 725 463 783 496 b 969 394 911 496 969 465 b 651 63 969 304 864 215 l 651 0 z m 243 371 l 243 926 l 169 926 l 19 774 l 68 722 l 160 818 l 160 371 z "},"±":{"ha":693,"x_min":0,"x_max":0,"o":"m 653 450 l 653 522 l 386 522 l 386 810 l 307 810 l 307 522 l 40 522 l 40 450 l 307 450 l 307 154 l 386 154 l 386 450 z m 653 0 l 653 74 l 40 74 l 40 0 z "},"Þ":{"ha":815,"x_min":0,"x_max":0,"o":"m 224 0 l 224 203 l 481 203 b 771 481 665 203 771 329 b 481 761 771 632 667 761 l 224 761 l 224 926 l 108 926 l 108 0 z m 467 306 l 224 306 l 224 658 l 467 658 b 651 481 576 658 651 585 b 467 306 651 376 576 306 z "},"¼":{"ha":1069,"x_min":0,"x_max":0,"o":"m 819 926 l 743 926 l 151 0 l 226 0 z m 1018 139 l 1018 207 l 939 207 l 939 556 l 824 556 l 583 201 l 583 139 l 856 139 l 856 0 l 939 0 l 939 139 z m 856 207 l 667 207 l 856 482 z m 243 371 l 243 926 l 169 926 l 19 774 l 68 722 l 160 818 l 160 371 z "},"÷":{"ha":710,"x_min":0,"x_max":0,"o":"m 419 732 b 356 794 419 767 390 794 b 292 732 321 794 292 767 b 356 667 292 696 321 667 b 419 732 390 667 419 696 z m 669 432 l 669 504 l 40 504 l 40 432 z m 419 200 b 356 264 419 235 390 264 b 292 200 321 264 292 235 b 356 136 292 165 321 136 b 419 200 390 136 419 165 z "},"¦":{"ha":293,"x_min":0,"x_max":0,"o":"m 185 -28 l 185 411 l 108 411 l 108 -28 z m 185 515 l 185 954 l 108 954 l 108 515 z "},"°":{"ha":403,"x_min":0,"x_max":0,"o":"m 371 771 b 201 940 371 864 294 940 b 32 771 107 940 32 864 b 201 601 32 676 107 601 b 371 771 294 601 371 676 z m 304 771 b 201 669 304 714 257 669 b 100 771 144 669 100 714 b 201 874 100 826 144 874 b 304 771 257 874 304 826 z "},"þ":{"ha":794,"x_min":0,"x_max":0,"o":"m 435 -17 b 733 336 611 -17 733 119 b 435 688 733 554 611 688 b 208 571 340 688 257 639 l 208 926 l 104 926 l 104 -256 l 208 -256 l 208 101 b 435 -17 264 28 343 -17 z m 408 76 b 208 185 326 76 244 126 l 208 488 b 408 594 244 546 326 594 b 624 336 543 594 624 485 b 408 76 624 188 543 76 z "},"¾":{"ha":1219,"x_min":0,"x_max":0,"o":"m 969 926 l 893 926 l 301 0 l 376 0 z m 1169 139 l 1169 207 l 1090 207 l 1090 556 l 975 556 l 735 201 l 735 139 l 1007 139 l 1007 0 l 1090 0 l 1090 139 z m 1007 207 l 818 207 l 1007 482 z m 476 522 b 343 658 476 611 396 653 b 467 786 397 667 467 706 b 268 935 467 878 385 935 b 65 849 175 935 108 897 l 108 800 b 260 867 150 844 199 867 b 385 778 328 867 385 836 b 249 689 385 713 325 689 b 193 690 225 689 203 689 l 193 621 b 249 622 201 622 225 622 b 393 526 329 622 393 597 b 265 429 393 467 344 429 b 104 504 201 429 140 458 l 58 451 b 267 361 94 401 168 361 b 476 522 397 361 476 428 z "},"²":{"ha":539,"x_min":0,"x_max":0,"o":"m 474 585 l 474 653 l 192 653 b 471 985 356 772 471 874 b 272 1149 471 1099 374 1149 b 68 1061 194 1149 114 1119 l 114 1008 b 269 1081 143 1047 201 1081 b 388 979 329 1081 388 1050 b 69 647 388 889 282 800 l 69 585 z "},"®":{"ha":686,"x_min":0,"x_max":0,"o":"m 638 646 b 343 940 638 810 507 940 b 49 646 181 940 49 810 b 343 351 49 483 181 351 b 638 646 507 351 638 483 z m 597 646 b 343 392 597 507 483 392 b 89 646 203 392 89 507 b 343 900 89 789 203 900 b 597 646 483 900 597 789 z m 479 476 l 389 611 b 475 711 408 611 475 636 b 368 814 475 774 425 814 l 231 814 l 231 476 l 275 476 l 275 610 l 336 610 l 424 476 z m 429 711 b 368 650 429 676 397 650 l 275 650 l 275 775 l 368 775 b 429 711 397 775 429 749 z "},"−":{"ha":693,"x_min":0,"x_max":0,"o":"m 653 428 l 653 500 l 40 500 l 40 428 z "},"ð":{"ha":794,"x_min":0,"x_max":0,"o":"m 169 690 l 368 779 b 590 543 461 711 539 635 b 371 665 531 631 457 665 b 65 325 192 665 65 519 b 397 -17 65 131 197 -17 b 729 343 601 -17 729 136 b 471 825 729 539 621 697 l 590 878 l 567 935 l 417 868 b 261 974 368 906 315 940 l 204 888 b 308 821 239 865 275 843 l 144 749 z m 397 76 b 175 325 254 76 175 193 b 397 572 175 456 254 572 b 619 325 540 572 619 456 b 397 76 619 193 540 76 z "},"×":{"ha":693,"x_min":0,"x_max":0,"o":"m 553 206 l 604 257 l 399 464 l 604 671 l 553 722 l 346 515 l 140 722 l 89 671 l 296 464 l 89 257 l 140 206 l 346 413 z "},"³":{"ha":539,"x_min":0,"x_max":0,"o":"m 476 736 b 343 872 476 825 396 867 b 467 1000 397 881 467 919 b 268 1149 467 1092 385 1149 b 65 1063 175 1149 108 1111 l 108 1014 b 260 1081 150 1058 199 1081 b 385 992 328 1081 385 1050 b 249 903 385 926 325 903 b 193 904 225 903 203 903 l 193 835 b 249 836 201 836 225 836 b 393 740 329 836 393 811 b 265 643 393 681 344 643 b 104 718 201 643 140 672 l 58 665 b 267 575 94 615 168 575 b 476 736 397 575 476 642 z "},"©":{"ha":1081,"x_min":0,"x_max":0,"o":"m 1019 464 b 540 943 1019 729 806 943 b 61 464 276 943 61 729 b 540 -15 61 200 276 -15 b 1019 464 806 -15 1019 200 z m 976 464 b 540 28 976 225 781 28 b 104 464 301 28 104 225 b 540 900 104 704 301 900 b 976 464 781 900 976 704 z m 711 294 b 543 214 675 246 610 214 b 306 465 418 214 306 319 b 543 715 306 615 418 715 b 711 636 608 715 675 685 l 746 671 b 543 761 697 728 629 761 b 254 467 383 761 254 636 b 543 168 254 297 383 168 b 747 260 629 168 697 201 z "},"Á":{"ha":914,"x_min":0,"x_max":0,"o":"m 681 1211 l 572 1211 l 367 1011 l 446 1011 z m 901 0 l 529 926 l 386 926 l 13 0 l 144 0 l 226 207 l 688 207 l 769 0 z m 654 308 l 261 308 l 457 808 z "},"Â":{"ha":914,"x_min":0,"x_max":0,"o":"m 643 1011 l 507 1211 l 407 1211 l 275 1011 l 346 1011 l 457 1158 l 572 1011 z m 901 0 l 529 926 l 386 926 l 13 0 l 144 0 l 226 207 l 688 207 l 769 0 z m 654 308 l 261 308 l 457 808 z "},"Ä":{"ha":914,"x_min":0,"x_max":0,"o":"m 667 1074 b 601 1138 667 1110 638 1138 b 538 1074 567 1138 538 1110 b 601 1010 538 1039 567 1010 b 667 1074 638 1010 667 1039 z m 379 1074 b 315 1138 379 1110 350 1138 b 250 1074 279 1138 250 1110 b 315 1010 250 1039 279 1010 b 379 1074 350 1010 379 1039 z m 901 0 l 529 926 l 386 926 l 13 0 l 144 0 l 226 207 l 688 207 l 769 0 z m 654 308 l 261 308 l 457 808 z "},"À":{"ha":914,"x_min":0,"x_max":0,"o":"m 550 1011 l 344 1211 l 236 1211 l 471 1011 z m 901 0 l 529 926 l 386 926 l 13 0 l 144 0 l 226 207 l 688 207 l 769 0 z m 654 308 l 261 308 l 457 808 z "},"Å":{"ha":914,"x_min":0,"x_max":0,"o":"m 458 961 b 593 1099 533 961 593 1024 b 458 1236 593 1174 533 1236 b 321 1099 383 1236 321 1174 b 458 961 321 1024 383 961 z m 458 1017 b 376 1099 413 1017 376 1054 b 458 1181 376 1143 413 1181 b 539 1099 503 1181 539 1143 b 458 1017 539 1054 503 1017 z m 901 0 l 529 926 l 386 926 l 13 0 l 144 0 l 226 207 l 688 207 l 769 0 z m 654 308 l 261 308 l 457 808 z "},"Ã":{"ha":914,"x_min":0,"x_max":0,"o":"m 540 1008 b 675 1194 628 1008 675 1086 l 613 1194 b 546 1075 613 1111 583 1075 b 375 1203 479 1075 475 1203 b 240 1017 288 1203 240 1125 l 303 1017 b 369 1136 303 1100 332 1136 b 540 1008 436 1136 440 1008 z m 901 0 l 529 926 l 386 926 l 13 0 l 144 0 l 226 207 l 688 207 l 769 0 z m 654 308 l 261 308 l 457 808 z "},"Ç":{"ha":939,"x_min":0,"x_max":0,"o":"m 539 -260 b 683 -149 619 -260 683 -217 b 592 -56 683 -92 644 -56 b 540 -71 574 -56 554 -60 l 561 -17 b 900 168 718 -12 824 64 l 803 221 b 547 86 750 143 653 86 b 190 463 344 86 190 243 b 547 839 190 685 344 839 b 803 704 653 839 750 783 l 899 758 b 547 942 825 864 711 942 b 71 463 281 942 71 747 b 500 -14 71 194 256 7 l 471 -96 l 517 -122 b 569 -99 529 -107 550 -99 b 621 -147 604 -99 621 -118 b 536 -206 621 -185 582 -206 b 425 -165 499 -206 460 -193 l 399 -218 b 539 -260 426 -240 479 -260 z "},"É":{"ha":790,"x_min":0,"x_max":0,"o":"m 633 1211 l 525 1211 l 319 1011 l 399 1011 z m 715 0 l 715 103 l 224 103 l 224 422 l 706 422 l 706 525 l 224 525 l 224 824 l 715 824 l 715 926 l 108 926 l 108 0 z "},"Ê":{"ha":790,"x_min":0,"x_max":0,"o":"m 594 1011 l 458 1211 l 358 1211 l 226 1011 l 297 1011 l 408 1158 l 524 1011 z m 715 0 l 715 103 l 224 103 l 224 422 l 706 422 l 706 525 l 224 525 l 224 824 l 715 824 l 715 926 l 108 926 l 108 0 z "},"Ë":{"ha":790,"x_min":0,"x_max":0,"o":"m 619 1074 b 554 1138 619 1110 590 1138 b 490 1074 519 1138 490 1110 b 554 1010 490 1039 519 1010 b 619 1074 590 1010 619 1039 z m 332 1074 b 268 1138 332 1110 303 1138 b 203 1074 232 1138 203 1110 b 268 1010 203 1039 232 1010 b 332 1074 303 1010 332 1039 z m 715 0 l 715 103 l 224 103 l 224 422 l 706 422 l 706 525 l 224 525 l 224 824 l 715 824 l 715 926 l 108 926 l 108 0 z "},"È":{"ha":790,"x_min":0,"x_max":0,"o":"m 504 1011 l 299 1211 l 190 1211 l 425 1011 z m 715 0 l 715 103 l 224 103 l 224 422 l 706 422 l 706 525 l 224 525 l 224 824 l 715 824 l 715 926 l 108 926 l 108 0 z "},"Í":{"ha":332,"x_min":0,"x_max":0,"o":"m 390 1211 l 282 1211 l 76 1011 l 156 1011 z m 224 0 l 224 926 l 108 926 l 108 0 z "},"Î":{"ha":332,"x_min":0,"x_max":0,"o":"m 350 1011 l 214 1211 l 114 1211 l -18 1011 l 53 1011 l 164 1158 l 279 1011 z m 224 0 l 224 926 l 108 926 l 108 0 z "},"Ï":{"ha":332,"x_min":0,"x_max":0,"o":"m 374 1074 b 308 1138 374 1110 344 1138 b 244 1074 274 1138 244 1110 b 308 1010 244 1039 274 1010 b 374 1074 344 1010 374 1039 z m 86 1074 b 22 1138 86 1110 57 1138 b -43 1074 -14 1138 -43 1110 b 22 1010 -43 1039 -14 1010 b 86 1074 57 1010 86 1039 z m 224 0 l 224 926 l 108 926 l 108 0 z "},"Ì":{"ha":332,"x_min":0,"x_max":0,"o":"m 257 1011 l 51 1211 l -57 1211 l 178 1011 z m 224 0 l 224 926 l 108 926 l 108 0 z "},"Ñ":{"ha":983,"x_min":0,"x_max":0,"o":"m 572 1008 b 707 1194 660 1008 707 1086 l 644 1194 b 578 1075 644 1111 615 1075 b 407 1203 511 1075 507 1203 b 272 1017 319 1203 272 1125 l 335 1017 b 401 1136 335 1100 364 1136 b 572 1008 468 1136 472 1008 z m 875 0 l 875 926 l 760 926 l 760 203 l 226 926 l 108 926 l 108 0 l 224 0 l 224 739 l 764 0 z "},"Ó":{"ha":1063,"x_min":0,"x_max":0,"o":"m 756 1211 l 647 1211 l 442 1011 l 521 1011 z m 531 -17 b 992 463 804 -17 992 189 b 531 942 992 736 804 942 b 71 463 257 942 71 736 b 531 -17 71 189 257 -17 z m 531 86 b 190 463 322 86 190 247 b 531 839 190 679 322 839 b 872 463 738 839 872 679 b 531 86 872 247 738 86 z "},"Ô":{"ha":1063,"x_min":0,"x_max":0,"o":"m 718 1011 l 582 1211 l 482 1211 l 350 1011 l 421 1011 l 532 1158 l 647 1011 z m 531 -17 b 992 463 804 -17 992 189 b 531 942 992 736 804 942 b 71 463 257 942 71 736 b 531 -17 71 189 257 -17 z m 531 86 b 190 463 322 86 190 247 b 531 839 190 679 322 839 b 872 463 738 839 872 679 b 531 86 872 247 738 86 z "},"Ö":{"ha":1063,"x_min":0,"x_max":0,"o":"m 739 1074 b 674 1138 739 1110 710 1138 b 610 1074 639 1138 610 1110 b 674 1010 610 1039 639 1010 b 739 1074 710 1010 739 1039 z m 451 1074 b 388 1138 451 1110 422 1138 b 322 1074 351 1138 322 1110 b 388 1010 322 1039 351 1010 b 451 1074 422 1010 451 1039 z m 531 -17 b 992 463 804 -17 992 189 b 531 942 992 736 804 942 b 71 463 257 942 71 736 b 531 -17 71 189 257 -17 z m 531 86 b 190 463 322 86 190 247 b 531 839 190 679 322 839 b 872 463 738 839 872 679 b 531 86 872 247 738 86 z "},"Ò":{"ha":1063,"x_min":0,"x_max":0,"o":"m 628 1011 l 422 1211 l 314 1211 l 549 1011 z m 531 -17 b 992 463 804 -17 992 189 b 531 942 992 736 804 942 b 71 463 257 942 71 736 b 531 -17 71 189 257 -17 z m 531 86 b 190 463 322 86 190 247 b 531 839 190 679 322 839 b 872 463 738 839 872 679 b 531 86 872 247 738 86 z "},"Õ":{"ha":1063,"x_min":0,"x_max":0,"o":"m 614 1008 b 749 1194 701 1008 749 1086 l 686 1194 b 619 1075 686 1111 657 1075 b 449 1203 553 1075 549 1203 b 314 1017 361 1203 314 1125 l 376 1017 b 443 1136 376 1100 406 1136 b 614 1008 510 1136 514 1008 z m 531 -17 b 992 463 804 -17 992 189 b 531 942 992 736 804 942 b 71 463 257 942 71 736 b 531 -17 71 189 257 -17 z m 531 86 b 190 463 322 86 190 247 b 531 839 190 679 322 839 b 872 463 738 839 872 679 b 531 86 872 247 738 86 z "},"Š":{"ha":814,"x_min":0,"x_max":0,"o":"m 449 1011 l 581 1211 l 510 1211 l 399 1064 l 283 1211 l 213 1211 l 349 1011 z m 408 -17 b 750 256 658 -17 750 122 b 201 690 750 601 201 482 b 392 838 201 778 282 838 b 660 726 493 838 590 804 l 729 811 b 401 942 651 893 542 942 b 82 683 218 942 82 836 b 631 247 82 353 631 486 b 413 86 631 175 578 86 b 122 219 282 86 182 150 l 53 131 b 408 -17 129 44 249 -17 z "},"Ú":{"ha":974,"x_min":0,"x_max":0,"o":"m 708 1211 l 600 1211 l 394 1011 l 474 1011 z m 486 -17 b 865 361 738 -17 865 131 l 865 926 l 749 926 l 749 363 b 486 86 749 193 657 86 b 225 363 315 86 225 193 l 225 926 l 108 926 l 108 360 b 486 -17 108 132 236 -17 z "},"Û":{"ha":974,"x_min":0,"x_max":0,"o":"m 678 1011 l 542 1211 l 442 1211 l 310 1011 l 381 1011 l 492 1158 l 607 1011 z m 486 -17 b 865 361 738 -17 865 131 l 865 926 l 749 926 l 749 363 b 486 86 749 193 657 86 b 225 363 315 86 225 193 l 225 926 l 108 926 l 108 360 b 486 -17 108 132 236 -17 z "},"Ü":{"ha":974,"x_min":0,"x_max":0,"o":"m 696 1074 b 631 1138 696 1110 667 1138 b 567 1074 596 1138 567 1110 b 631 1010 567 1039 596 1010 b 696 1074 667 1010 696 1039 z m 408 1074 b 344 1138 408 1110 379 1138 b 279 1074 308 1138 279 1110 b 344 1010 279 1039 308 1010 b 408 1074 379 1010 408 1039 z m 486 -17 b 865 361 738 -17 865 131 l 865 926 l 749 926 l 749 363 b 486 86 749 193 657 86 b 225 363 315 86 225 193 l 225 926 l 108 926 l 108 360 b 486 -17 108 132 236 -17 z "},"Ù":{"ha":974,"x_min":0,"x_max":0,"o":"m 581 1011 l 375 1211 l 267 1211 l 501 1011 z m 486 -17 b 865 361 738 -17 865 131 l 865 926 l 749 926 l 749 363 b 486 86 749 193 657 86 b 225 363 315 86 225 193 l 225 926 l 108 926 l 108 360 b 486 -17 108 132 236 -17 z "},"Ý":{"ha":869,"x_min":0,"x_max":0,"o":"m 663 1211 l 554 1211 l 349 1011 l 428 1011 z m 493 0 l 493 392 l 857 926 l 722 926 l 435 496 l 147 926 l 13 926 l 378 392 l 378 0 z "},"Ÿ":{"ha":869,"x_min":0,"x_max":0,"o":"m 647 1074 b 582 1138 647 1110 618 1138 b 518 1074 547 1138 518 1110 b 582 1010 518 1039 547 1010 b 647 1074 618 1010 647 1039 z m 360 1074 b 296 1138 360 1110 331 1138 b 231 1074 260 1138 231 1110 b 296 1010 231 1039 260 1010 b 360 1074 331 1010 360 1039 z m 493 0 l 493 392 l 857 926 l 722 926 l 435 496 l 147 926 l 13 926 l 378 392 l 378 0 z "},"Ž":{"ha":813,"x_min":0,"x_max":0,"o":"m 458 1011 l 590 1211 l 519 1211 l 408 1064 l 293 1211 l 222 1211 l 358 1011 z m 746 0 l 746 103 l 214 103 l 736 831 l 736 926 l 67 926 l 67 824 l 588 824 l 67 96 l 67 0 z "},"á":{"ha":733,"x_min":0,"x_max":0,"o":"m 628 0 l 628 461 b 368 688 628 624 511 688 b 100 576 258 688 172 651 l 149 504 b 354 597 208 569 274 597 b 524 457 451 597 524 546 l 524 336 b 301 426 469 397 393 426 b 68 206 188 426 68 357 b 301 -17 68 60 189 -17 b 524 76 392 -17 469 15 l 524 0 z m 340 58 b 174 206 242 58 174 119 b 340 351 174 290 242 351 b 524 269 413 351 483 324 l 524 142 b 340 58 483 86 413 58 z m 593 972 l 485 972 l 279 772 l 358 772 z "},"â":{"ha":733,"x_min":0,"x_max":0,"o":"m 628 0 l 628 461 b 368 688 628 624 511 688 b 100 576 258 688 172 651 l 149 504 b 354 597 208 569 274 597 b 524 457 451 597 524 546 l 524 336 b 301 426 469 397 393 426 b 68 206 188 426 68 357 b 301 -17 68 60 189 -17 b 524 76 392 -17 469 15 l 524 0 z m 340 58 b 174 206 242 58 174 119 b 340 351 174 290 242 351 b 524 269 413 351 483 324 l 524 142 b 340 58 483 86 413 58 z m 557 772 l 421 972 l 321 972 l 189 772 l 260 772 l 371 919 l 486 772 z "},"ä":{"ha":733,"x_min":0,"x_max":0,"o":"m 628 0 l 628 461 b 368 688 628 624 511 688 b 100 576 258 688 172 651 l 149 504 b 354 597 208 569 274 597 b 524 457 451 597 524 546 l 524 336 b 301 426 469 397 393 426 b 68 206 188 426 68 357 b 301 -17 68 60 189 -17 b 524 76 392 -17 469 15 l 524 0 z m 340 58 b 174 206 242 58 174 119 b 340 351 174 290 242 351 b 524 269 413 351 483 324 l 524 142 b 340 58 483 86 413 58 z m 575 839 b 510 903 575 875 546 903 b 446 839 475 903 446 875 b 510 775 446 804 475 775 b 575 839 546 775 575 804 z m 288 839 b 224 903 288 875 258 903 b 158 839 188 903 158 875 b 224 775 158 804 188 775 b 288 839 258 775 288 804 z "},"à":{"ha":733,"x_min":0,"x_max":0,"o":"m 628 0 l 628 461 b 368 688 628 624 511 688 b 100 576 258 688 172 651 l 149 504 b 354 597 208 569 274 597 b 524 457 451 597 524 546 l 524 336 b 301 426 469 397 393 426 b 68 206 188 426 68 357 b 301 -17 68 60 189 -17 b 524 76 392 -17 469 15 l 524 0 z m 340 58 b 174 206 242 58 174 119 b 340 351 174 290 242 351 b 524 269 413 351 483 324 l 524 142 b 340 58 483 86 413 58 z m 461 772 l 256 972 l 147 972 l 382 772 z "},"å":{"ha":733,"x_min":0,"x_max":0,"o":"m 628 0 l 628 461 b 368 688 628 624 511 688 b 100 576 258 688 172 651 l 149 504 b 354 597 208 569 274 597 b 524 457 451 597 524 546 l 524 336 b 301 426 469 397 393 426 b 68 206 188 426 68 357 b 301 -17 68 60 189 -17 b 524 76 392 -17 469 15 l 524 0 z m 340 58 b 174 206 242 58 174 119 b 340 351 174 290 242 351 b 524 269 413 351 483 324 l 524 142 b 340 58 483 86 413 58 z m 369 760 b 504 897 444 760 504 822 b 369 1035 504 972 444 1035 b 232 897 294 1035 232 972 b 369 760 232 822 294 760 z m 369 815 b 288 897 324 815 288 853 b 369 979 288 942 324 979 b 450 897 414 979 450 942 b 369 815 450 853 414 815 z "},"ã":{"ha":733,"x_min":0,"x_max":0,"o":"m 628 0 l 628 461 b 368 688 628 624 511 688 b 100 576 258 688 172 651 l 149 504 b 354 597 208 569 274 597 b 524 457 451 597 524 546 l 524 336 b 301 426 469 397 393 426 b 68 206 188 426 68 357 b 301 -17 68 60 189 -17 b 524 76 392 -17 469 15 l 524 0 z m 340 58 b 174 206 242 58 174 119 b 340 351 174 290 242 351 b 524 269 413 351 483 324 l 524 142 b 340 58 483 86 413 58 z m 451 769 b 586 956 539 769 586 847 l 524 956 b 457 836 524 872 494 836 b 286 964 390 836 386 964 b 151 778 199 964 151 886 l 214 778 b 281 897 214 861 243 897 b 451 769 347 897 351 769 z "},"ç":{"ha":689,"x_min":0,"x_max":0,"o":"m 403 -262 b 547 -151 483 -262 547 -219 b 456 -58 547 -94 508 -58 b 404 -74 438 -58 418 -62 l 426 -15 b 646 100 532 -8 599 38 l 576 164 b 406 76 532 104 475 76 b 174 336 264 76 174 188 b 406 594 174 485 264 594 b 576 508 475 594 532 569 l 646 571 b 400 688 594 638 522 688 b 65 336 200 688 65 535 b 365 -14 65 149 185 1 l 335 -99 l 381 -125 b 433 -101 393 -110 414 -101 b 485 -150 468 -101 485 -121 b 400 -208 485 -187 446 -208 b 289 -168 363 -208 324 -196 l 263 -221 b 403 -262 290 -243 343 -262 z "},"é":{"ha":782,"x_min":0,"x_max":0,"o":"m 408 -17 b 675 88 517 -17 607 21 l 625 156 b 417 69 571 100 494 69 b 176 301 272 69 185 175 l 718 301 l 718 328 b 396 688 718 529 599 688 b 65 336 204 688 65 531 b 408 -17 65 126 208 -17 z m 615 379 l 175 379 b 394 601 181 481 251 601 b 615 379 547 601 614 478 z m 619 972 l 511 972 l 306 772 l 385 772 z "},"ê":{"ha":782,"x_min":0,"x_max":0,"o":"m 408 -17 b 675 88 517 -17 607 21 l 625 156 b 417 69 571 100 494 69 b 176 301 272 69 185 175 l 718 301 l 718 328 b 396 688 718 529 599 688 b 65 336 204 688 65 531 b 408 -17 65 126 208 -17 z m 615 379 l 175 379 b 394 601 181 481 251 601 b 615 379 547 601 614 478 z m 582 772 l 446 972 l 346 972 l 214 772 l 285 772 l 396 919 l 511 772 z "},"ë":{"ha":782,"x_min":0,"x_max":0,"o":"m 408 -17 b 675 88 517 -17 607 21 l 625 156 b 417 69 571 100 494 69 b 176 301 272 69 185 175 l 718 301 l 718 328 b 396 688 718 529 599 688 b 65 336 204 688 65 531 b 408 -17 65 126 208 -17 z m 615 379 l 175 379 b 394 601 181 481 251 601 b 615 379 547 601 614 478 z m 606 839 b 540 903 606 875 576 903 b 476 839 506 903 476 875 b 540 775 476 804 506 775 b 606 839 576 775 606 804 z m 318 839 b 254 903 318 875 289 903 b 189 839 218 903 189 875 b 254 775 189 804 218 775 b 318 839 289 775 318 804 z "},"è":{"ha":782,"x_min":0,"x_max":0,"o":"m 408 -17 b 675 88 517 -17 607 21 l 625 156 b 417 69 571 100 494 69 b 176 301 272 69 185 175 l 718 301 l 718 328 b 396 688 718 529 599 688 b 65 336 204 688 65 531 b 408 -17 65 126 208 -17 z m 615 379 l 175 379 b 394 601 181 481 251 601 b 615 379 547 601 614 478 z m 489 772 l 283 972 l 175 972 l 410 772 z "},"í":{"ha":313,"x_min":0,"x_max":0,"o":"m 379 972 l 271 972 l 65 772 l 144 772 z m 208 0 l 208 671 l 104 671 l 104 0 z "},"î":{"ha":313,"x_min":0,"x_max":0,"o":"m 342 772 l 206 972 l 106 972 l -26 772 l 44 772 l 156 919 l 271 772 z m 208 0 l 208 671 l 104 671 l 104 0 z "},"ï":{"ha":313,"x_min":0,"x_max":0,"o":"m 365 839 b 300 903 365 875 336 903 b 236 839 265 903 236 875 b 300 775 236 804 265 775 b 365 839 336 775 365 804 z m 78 839 b 14 903 78 875 49 903 b -51 839 -22 903 -51 875 b 14 775 -51 804 -22 775 b 78 839 49 775 78 804 z m 208 0 l 208 671 l 104 671 l 104 0 z "},"ì":{"ha":313,"x_min":0,"x_max":0,"o":"m 247 772 l 42 972 l -67 972 l 168 772 z m 208 0 l 208 671 l 104 671 l 104 0 z "},"ñ":{"ha":767,"x_min":0,"x_max":0,"o":"m 665 0 l 665 471 b 453 688 665 617 592 688 b 213 574 351 688 260 631 l 213 671 l 108 671 l 108 0 l 213 0 l 213 490 b 411 594 253 544 329 594 b 563 439 501 594 563 558 l 563 0 z m 467 769 b 601 956 554 769 601 847 l 539 956 b 472 836 539 872 510 836 b 301 964 406 836 401 964 b 167 778 214 964 167 886 l 229 778 b 296 897 229 861 258 897 b 467 769 363 897 367 769 z "},"ó":{"ha":794,"x_min":0,"x_max":0,"o":"m 397 -17 b 729 336 601 -17 729 142 b 397 688 729 531 601 688 b 65 336 193 688 65 531 b 397 -17 65 142 193 -17 z m 397 76 b 175 336 254 76 175 199 b 397 594 175 472 254 594 b 619 336 540 594 619 472 b 397 76 619 199 540 76 z m 619 972 l 511 972 l 306 772 l 385 772 z "},"ô":{"ha":794,"x_min":0,"x_max":0,"o":"m 397 -17 b 729 336 601 -17 729 142 b 397 688 729 531 601 688 b 65 336 193 688 65 531 b 397 -17 65 142 193 -17 z m 397 76 b 175 336 254 76 175 199 b 397 594 175 472 254 594 b 619 336 540 594 619 472 b 397 76 619 199 540 76 z m 583 772 l 447 972 l 347 972 l 215 772 l 286 772 l 397 919 l 513 772 z "},"ö":{"ha":794,"x_min":0,"x_max":0,"o":"m 397 -17 b 729 336 601 -17 729 142 b 397 688 729 531 601 688 b 65 336 193 688 65 531 b 397 -17 65 142 193 -17 z m 397 76 b 175 336 254 76 175 199 b 397 594 175 472 254 594 b 619 336 540 594 619 472 b 397 76 619 199 540 76 z m 606 839 b 540 903 606 875 576 903 b 476 839 506 903 476 875 b 540 775 476 804 506 775 b 606 839 576 775 606 804 z m 318 839 b 254 903 318 875 289 903 b 189 839 218 903 189 875 b 254 775 189 804 218 775 b 318 839 289 775 318 804 z "},"ò":{"ha":794,"x_min":0,"x_max":0,"o":"m 397 -17 b 729 336 601 -17 729 142 b 397 688 729 531 601 688 b 65 336 193 688 65 531 b 397 -17 65 142 193 -17 z m 397 76 b 175 336 254 76 175 199 b 397 594 175 472 254 594 b 619 336 540 594 619 472 b 397 76 619 199 540 76 z m 489 772 l 283 972 l 175 972 l 410 772 z "},"õ":{"ha":794,"x_min":0,"x_max":0,"o":"m 397 -17 b 729 336 601 -17 729 142 b 397 688 729 531 601 688 b 65 336 193 688 65 531 b 397 -17 65 142 193 -17 z m 397 76 b 175 336 254 76 175 199 b 397 594 175 472 254 594 b 619 336 540 594 619 472 b 397 76 619 199 540 76 z m 481 769 b 615 956 568 769 615 847 l 553 956 b 486 836 553 872 524 836 b 315 964 419 836 415 964 b 181 778 228 964 181 886 l 243 778 b 310 897 243 861 272 897 b 481 769 376 897 381 769 z "},"š":{"ha":646,"x_min":0,"x_max":0,"o":"m 318 -17 b 581 186 490 -17 581 74 b 165 497 581 447 165 351 b 314 603 165 557 222 603 b 514 518 401 603 474 567 l 563 590 b 314 688 510 644 429 688 b 65 494 154 688 65 600 b 481 183 65 246 481 346 b 321 68 481 117 424 68 b 100 164 229 68 144 113 l 47 89 b 318 -17 115 18 207 -17 z m 369 772 l 501 972 l 431 972 l 319 825 l 204 972 l 133 972 l 269 772 z "},"ú":{"ha":765,"x_min":0,"x_max":0,"o":"m 661 0 l 661 671 l 557 671 l 557 178 b 360 76 518 124 440 76 b 208 229 268 76 208 111 l 208 671 l 104 671 l 104 197 b 318 -17 104 53 178 -17 b 557 94 418 -17 506 36 l 557 0 z m 607 972 l 499 972 l 293 772 l 372 772 z "},"û":{"ha":765,"x_min":0,"x_max":0,"o":"m 661 0 l 661 671 l 557 671 l 557 178 b 360 76 518 124 440 76 b 208 229 268 76 208 111 l 208 671 l 104 671 l 104 197 b 318 -17 104 53 178 -17 b 557 94 418 -17 506 36 l 557 0 z m 568 772 l 432 972 l 332 972 l 200 772 l 271 772 l 382 919 l 497 772 z "},"ü":{"ha":765,"x_min":0,"x_max":0,"o":"m 661 0 l 661 671 l 557 671 l 557 178 b 360 76 518 124 440 76 b 208 229 268 76 208 111 l 208 671 l 104 671 l 104 197 b 318 -17 104 53 178 -17 b 557 94 418 -17 506 36 l 557 0 z m 596 839 b 531 903 596 875 567 903 b 467 839 496 903 467 875 b 531 775 467 804 496 775 b 596 839 567 775 596 804 z m 308 839 b 244 903 308 875 279 903 b 179 839 208 903 179 875 b 244 775 179 804 208 775 b 308 839 279 775 308 804 z "},"ù":{"ha":765,"x_min":0,"x_max":0,"o":"m 661 0 l 661 671 l 557 671 l 557 178 b 360 76 518 124 440 76 b 208 229 268 76 208 111 l 208 671 l 104 671 l 104 197 b 318 -17 104 53 178 -17 b 557 94 418 -17 506 36 l 557 0 z m 478 772 l 272 972 l 164 972 l 399 772 z "},"ý":{"ha":681,"x_min":0,"x_max":0,"o":"m 68 -262 b 143 -272 86 -268 121 -272 b 340 -136 232 -271 300 -233 l 676 671 l 564 671 l 340 121 l 118 671 l 4 671 l 285 -7 l 240 -108 b 140 -179 217 -164 186 -179 b 83 -168 124 -179 99 -175 z m 564 972 l 456 972 l 250 772 l 329 772 z "},"ÿ":{"ha":681,"x_min":0,"x_max":0,"o":"m 68 -262 b 143 -272 86 -268 121 -272 b 340 -136 232 -271 300 -233 l 676 671 l 564 671 l 340 121 l 118 671 l 4 671 l 285 -7 l 240 -108 b 140 -179 217 -164 186 -179 b 83 -168 124 -179 99 -175 z m 549 839 b 483 903 549 875 519 903 b 419 839 449 903 419 875 b 483 775 419 804 449 775 b 549 839 519 775 549 804 z m 261 839 b 197 903 261 875 232 903 b 132 839 161 903 132 875 b 197 775 132 804 161 775 b 261 839 232 775 261 804 z "},"ž":{"ha":656,"x_min":0,"x_max":0,"o":"m 583 0 l 583 92 l 206 92 l 578 592 l 578 671 l 72 671 l 72 579 l 442 579 l 72 82 l 72 0 z m 371 772 l 503 972 l 432 972 l 321 825 l 206 972 l 135 972 l 271 772 z "},"":{"ha":514,"x_min":0,"x_max":0,"o":"m 235 501 l 293 501 l 293 576 b 479 742 415 586 479 649 b 293 906 479 853 383 883 l 293 1081 b 414 1018 340 1074 383 1051 l 463 1067 b 293 1146 425 1108 369 1139 l 293 1225 l 235 1225 l 235 1147 b 47 993 124 1142 47 1078 b 235 835 47 883 143 857 l 235 642 b 83 721 171 650 118 683 l 35 667 b 235 575 76 617 144 581 z m 394 733 b 293 642 394 689 361 651 l 293 821 b 394 733 350 806 394 785 z m 132 1000 b 235 1083 132 1044 175 1078 l 235 919 b 132 1000 176 935 132 954 z "},"⁽":{"ha":224,"x_min":0,"x_max":0,"o":"m 210 517 b 122 863 154 625 122 722 b 210 1208 122 1003 154 1100 l 161 1231 b 36 863 82 1132 36 996 b 161 494 36 728 82 592 z "},"⁾":{"ha":224,"x_min":0,"x_max":0,"o":"m 206 863 b 79 1231 206 996 158 1132 l 32 1208 b 119 863 88 1100 119 1003 b 32 517 119 722 88 625 l 79 494 b 206 863 158 593 206 728 z "},"":{"ha":193,"x_min":0,"x_max":0,"o":"m 146 618 b 93 682 146 656 124 682 b 40 631 64 682 40 658 b 90 581 40 603 65 581 b 96 582 92 581 94 582 b 39 507 93 556 64 522 b 75 478 51 497 63 489 b 146 618 117 507 146 560 z "},"":{"ha":199,"x_min":0,"x_max":0,"o":"m 151 631 b 100 682 151 658 128 682 b 47 631 71 682 47 658 b 100 579 47 603 71 579 b 151 631 128 579 151 603 z "},"":{"ha":525,"x_min":0,"x_max":0,"o":"m 442 453 l 442 746 b 261 900 442 858 358 900 b 79 826 189 900 128 876 l 115 774 b 251 838 153 818 203 838 b 363 747 311 838 363 804 l 363 671 b 213 729 328 707 279 729 b 57 586 136 729 57 682 b 213 442 57 493 136 442 b 363 501 279 442 328 465 l 363 453 z m 243 494 b 138 586 182 494 138 531 b 243 678 138 640 182 678 b 363 625 290 678 336 658 l 363 547 b 243 494 336 514 290 494 z "},"":{"ha":569,"x_min":0,"x_max":0,"o":"m 293 507 b 164 568 240 507 188 533 l 164 772 b 293 835 188 807 240 835 b 432 671 378 835 432 767 b 293 507 432 574 378 507 z m 164 453 l 164 517 b 314 442 197 472 251 442 b 514 671 429 442 514 528 b 314 900 514 813 431 900 b 164 825 254 900 200 872 l 164 1056 l 83 1056 l 83 453 z "},"":{"ha":426,"x_min":0,"x_max":0,"o":"m 218 578 l 275 578 l 275 651 b 407 725 339 658 379 689 l 354 767 b 275 714 333 736 307 719 l 275 1011 b 354 958 307 1006 333 988 l 407 999 b 275 1072 379 1035 339 1067 l 275 1132 l 218 1132 l 218 1071 b 39 863 111 1057 39 972 b 218 653 39 751 111 667 z m 118 863 b 218 1008 118 936 157 993 l 218 717 b 118 863 157 732 118 788 z "},"":{"ha":569,"x_min":0,"x_max":0,"o":"m 486 453 l 486 1056 l 406 1056 l 406 825 b 256 900 369 872 315 900 b 56 671 140 900 56 813 b 256 442 56 528 140 442 b 407 517 318 442 372 472 l 407 453 z m 276 507 b 139 671 192 507 139 574 b 276 835 139 767 192 835 b 407 772 331 835 382 807 l 407 568 b 276 507 382 533 331 507 z "},"":{"ha":553,"x_min":0,"x_max":0,"o":"m 288 442 b 467 508 360 442 422 465 l 431 556 b 294 503 396 521 344 503 b 139 644 203 503 146 568 l 497 644 l 497 664 b 281 900 497 799 414 900 b 56 671 150 900 56 797 b 288 442 56 535 154 442 z m 421 703 l 139 703 b 279 840 143 767 189 840 b 421 703 376 840 418 764 z "},"":{"ha":225,"x_min":0,"x_max":0,"o":"m 113 951 b 164 1003 140 951 164 975 b 113 1054 164 1031 140 1054 b 61 1003 85 1054 61 1031 b 113 951 61 975 85 951 z m 153 453 l 153 889 l 72 889 l 72 453 z "},"":{"ha":247,"x_min":0,"x_max":0,"o":"m 164 453 l 164 1056 l 83 1056 l 83 453 z "},"":{"ha":793,"x_min":0,"x_max":0,"o":"m 710 453 l 710 761 b 583 900 710 854 664 900 b 431 819 515 900 456 858 b 310 900 417 864 376 900 b 164 828 242 900 182 854 l 164 889 l 83 889 l 83 453 l 164 453 l 164 769 b 276 833 186 801 232 833 b 357 743 335 833 357 797 l 357 453 l 436 453 l 436 769 b 550 833 458 801 506 833 b 631 743 607 833 631 797 l 631 453 z "},"ⁿ":{"ha":553,"x_min":0,"x_max":0,"o":"m 469 453 l 469 751 b 324 900 469 840 436 900 b 164 828 256 900 196 863 l 164 889 l 83 889 l 83 453 l 164 453 l 164 769 b 292 833 189 801 239 833 b 389 732 350 833 389 808 l 389 453 z "},"":{"ha":563,"x_min":0,"x_max":0,"o":"m 281 442 b 507 671 421 442 507 546 b 281 900 507 797 421 900 b 56 671 143 900 56 797 b 281 442 56 546 143 442 z m 281 508 b 139 671 190 508 139 581 b 281 832 139 761 190 832 b 425 671 372 832 425 761 b 281 508 425 581 372 508 z "},"":{"ha":333,"x_min":0,"x_max":0,"o":"m 164 453 l 164 763 b 283 826 183 794 240 826 l 311 825 l 311 899 b 164 822 253 899 200 865 l 164 889 l 83 889 l 83 453 z "},"":{"ha":458,"x_min":0,"x_max":0,"o":"m 222 442 b 404 578 342 442 404 503 b 126 775 404 749 126 678 b 222 842 126 813 163 842 b 354 788 278 842 328 819 l 389 836 b 219 900 357 871 304 900 b 49 775 110 900 49 840 b 326 572 49 610 326 679 b 224 500 326 529 289 500 b 75 565 163 500 106 531 l 39 515 b 222 442 83 469 142 442 z "},"":{"ha":286,"x_min":0,"x_max":0,"o":"m 193 442 b 278 471 235 442 260 454 b 256 525 271 488 263 507 b 210 507 249 515 231 507 b 167 561 182 507 167 529 l 167 831 l 257 831 l 257 889 l 167 889 l 167 1008 l 86 1008 l 86 889 l 13 889 l 13 831 l 86 831 l 86 550 b 193 442 86 481 124 442 z "},"₍":{"ha":224,"x_min":0,"x_max":0,"o":"m 210 -271 b 122 75 154 -162 122 -65 b 210 421 122 215 154 313 l 161 443 b 36 75 82 344 36 208 b 161 -293 36 -60 82 -196 z "},"₎":{"ha":224,"x_min":0,"x_max":0,"o":"m 206 75 b 79 443 206 208 158 344 l 32 421 b 119 75 88 313 119 215 b 32 -271 119 -65 88 -162 l 79 -293 b 206 75 158 -194 206 -60 z "},"":{"ha":256,"x_min":0,"x_max":0,"o":"m 231 831 l 231 896 l 25 896 l 25 831 z "},"₡":{"ha":946,"x_min":0,"x_max":0,"o":"m 553 -17 b 906 168 717 -17 828 61 l 808 221 b 557 86 756 144 661 88 l 775 744 b 808 704 788 732 799 718 l 904 758 b 813 856 878 794 849 828 l 883 1067 l 814 1067 l 756 893 b 649 932 724 910 688 924 l 694 1067 l 625 1067 l 583 940 b 553 942 574 940 563 942 b 76 463 286 942 76 747 b 288 57 76 282 160 139 l 222 -139 l 292 -139 l 346 25 b 454 -7 381 10 417 0 l 411 -139 l 482 -139 l 522 -15 b 553 -17 532 -17 543 -17 z m 196 463 b 549 839 196 683 347 836 l 325 167 b 196 463 244 235 196 338 z m 381 128 l 615 832 b 721 789 654 824 689 808 l 488 92 b 381 128 450 99 414 110 z "},"":{"ha":1564,"x_min":0,"x_max":0,"o":"m 781 0 l 531 378 b 772 647 657 389 772 481 b 481 926 772 818 650 926 l 108 926 l 108 0 l 224 0 l 224 368 l 410 368 l 644 0 z m 467 469 l 224 469 l 224 824 l 467 824 b 653 647 576 824 653 753 b 467 469 653 543 576 469 z m 1204 -17 b 1503 336 1381 -17 1503 119 b 1204 688 1503 554 1381 688 b 978 571 1110 688 1026 639 l 978 671 l 874 671 l 874 -256 l 978 -256 l 978 101 b 1204 -17 1033 28 1113 -17 z m 1178 76 b 978 185 1096 76 1014 126 l 978 488 b 1178 594 1014 546 1096 594 b 1393 336 1313 594 1393 485 b 1178 76 1393 188 1313 76 z "},"":{"ha":256,"x_min":0,"x_max":0,"o":"m 231 42 l 231 107 l 25 107 l 25 42 z "},"⅛":{"ha":1121,"x_min":0,"x_max":0,"o":"m 819 926 l 743 926 l 151 0 l 226 0 z m 1064 142 b 924 286 1064 215 999 268 b 1054 418 994 303 1054 347 b 851 564 1054 521 949 564 b 649 418 754 564 649 521 b 779 286 649 347 710 303 b 639 142 704 268 639 215 b 851 -10 639 40 738 -10 b 1064 142 965 -10 1064 42 z m 971 408 b 851 314 971 340 881 321 b 731 408 824 321 731 340 b 851 497 731 467 783 497 b 971 408 919 497 971 467 z m 981 149 b 851 56 981 90 921 56 b 721 149 782 56 721 90 b 851 256 721 224 821 251 b 981 149 882 251 981 224 z m 243 371 l 243 926 l 169 926 l 19 774 l 68 722 l 160 818 l 160 371 z "},"⅜":{"ha":1271,"x_min":0,"x_max":0,"o":"m 969 926 l 893 926 l 301 0 l 376 0 z m 1214 142 b 1074 286 1214 215 1149 268 b 1204 418 1144 303 1204 347 b 1001 564 1204 521 1099 564 b 799 418 904 564 799 521 b 929 286 799 347 860 303 b 789 142 854 268 789 215 b 1001 -10 789 40 888 -10 b 1214 142 1115 -10 1214 42 z m 1121 408 b 1001 314 1121 340 1031 321 b 881 408 974 321 881 340 b 1001 497 881 467 933 497 b 1121 408 1069 497 1121 467 z m 1131 149 b 1001 56 1131 90 1071 56 b 871 149 932 56 871 90 b 1001 256 871 224 971 251 b 1131 149 1032 251 1131 224 z m 476 522 b 343 658 476 611 396 653 b 467 786 397 667 467 706 b 268 935 467 878 385 935 b 65 849 175 935 108 897 l 108 800 b 260 867 150 844 199 867 b 385 778 328 867 385 836 b 249 689 385 713 325 689 b 193 690 225 689 203 689 l 193 621 b 249 622 201 622 225 622 b 393 526 329 622 393 597 b 265 429 393 467 344 429 b 104 504 201 429 140 458 l 58 451 b 267 361 94 401 168 361 b 476 522 397 361 476 428 z "},"⅝":{"ha":1267,"x_min":0,"x_max":0,"o":"m 965 926 l 889 926 l 297 0 l 372 0 z m 1210 142 b 1069 286 1210 215 1144 268 b 1200 418 1140 303 1200 347 b 997 564 1200 521 1094 564 b 794 418 900 564 794 521 b 925 286 794 347 856 303 b 785 142 850 268 785 215 b 997 -10 785 40 883 -10 b 1210 142 1111 -10 1210 42 z m 1117 408 b 997 314 1117 340 1026 321 b 876 408 969 321 876 340 b 997 497 876 467 929 497 b 1117 408 1065 497 1117 467 z m 1126 149 b 997 56 1126 90 1067 56 b 867 149 928 56 867 90 b 997 256 867 224 967 251 b 1126 149 1028 251 1126 224 z m 478 546 b 294 722 478 663 390 722 b 163 672 238 722 189 699 l 163 858 l 440 858 l 440 926 l 78 926 l 78 626 l 138 604 b 269 658 176 642 218 658 b 396 543 344 658 396 613 b 267 429 396 479 343 429 b 110 506 200 429 147 457 l 61 451 b 267 361 103 396 169 361 b 478 546 388 361 478 433 z "},"⅞":{"ha":1153,"x_min":0,"x_max":0,"o":"m 851 926 l 775 926 l 183 0 l 258 0 z m 1096 142 b 956 286 1096 215 1031 268 b 1086 418 1026 303 1086 347 b 883 564 1086 521 981 564 b 681 418 786 564 681 521 b 811 286 681 347 742 303 b 671 142 736 268 671 215 b 883 -10 671 40 769 -10 b 1096 142 997 -10 1096 42 z m 1003 408 b 883 314 1003 340 913 321 b 763 408 856 321 763 340 b 883 497 763 467 815 497 b 1003 408 951 497 1003 467 z m 1013 149 b 883 56 1013 90 953 56 b 753 149 814 56 753 90 b 883 256 753 224 853 251 b 1013 149 914 251 1013 224 z m 449 869 l 449 926 l 46 926 l 46 858 l 356 858 l 125 371 l 218 371 z "},"⅓":{"ha":1121,"x_min":0,"x_max":0,"o":"m 819 926 l 743 926 l 151 0 l 226 0 z m 1058 151 b 925 288 1058 240 978 282 b 1049 415 979 296 1049 335 b 850 564 1049 507 967 564 b 647 478 757 564 690 526 l 690 429 b 842 496 732 474 781 496 b 967 407 910 496 967 465 b 831 318 967 342 907 318 b 775 319 807 318 785 318 l 775 250 b 831 251 783 251 807 251 b 975 156 911 251 975 226 b 847 58 975 96 926 58 b 686 133 783 58 722 88 l 640 81 b 849 -10 676 31 750 -10 b 1058 151 979 -10 1058 57 z m 243 371 l 243 926 l 169 926 l 19 774 l 68 722 l 160 818 l 160 371 z "},"⅔":{"ha":1271,"x_min":0,"x_max":0,"o":"m 969 926 l 893 926 l 301 0 l 376 0 z m 1208 151 b 1075 288 1208 240 1128 282 b 1199 415 1129 296 1199 335 b 1000 564 1199 507 1117 564 b 797 478 907 564 840 526 l 840 429 b 992 496 882 474 931 496 b 1117 407 1060 496 1117 465 b 981 318 1117 342 1057 318 b 925 319 957 318 935 318 l 925 250 b 981 251 933 251 957 251 b 1125 156 1061 251 1125 226 b 997 58 1125 96 1076 58 b 836 133 933 58 872 88 l 790 81 b 999 -10 826 31 900 -10 b 1208 151 1129 -10 1208 57 z m 474 371 l 474 439 l 192 439 b 471 771 356 558 471 660 b 272 935 471 885 374 935 b 68 847 194 935 114 906 l 114 794 b 269 867 143 833 201 867 b 388 765 329 867 388 836 b 69 433 388 675 282 586 l 69 371 z "},"⁰":{"ha":539,"x_min":0,"x_max":0,"o":"m 494 863 b 269 1149 494 1000 428 1149 b 46 863 110 1149 46 1000 b 269 575 46 725 110 575 b 494 863 428 575 494 725 z m 408 863 b 269 643 408 749 371 643 b 131 863 168 643 131 749 b 269 1081 131 976 167 1081 b 408 863 371 1081 408 976 z "},"⁴":{"ha":539,"x_min":0,"x_max":0,"o":"m 489 724 l 489 792 l 410 792 l 410 1140 l 294 1140 l 54 786 l 54 724 l 326 724 l 326 585 l 410 585 l 410 724 z m 326 792 l 138 792 l 326 1067 z "},"⁵":{"ha":539,"x_min":0,"x_max":0,"o":"m 478 760 b 294 936 478 876 390 936 b 163 886 238 936 189 913 l 163 1072 l 440 1072 l 440 1140 l 78 1140 l 78 840 l 138 818 b 269 872 176 856 218 872 b 396 757 344 872 396 826 b 267 643 396 693 343 643 b 110 719 200 643 147 671 l 61 665 b 267 575 103 610 169 575 b 478 760 388 575 478 647 z "},"⁶":{"ha":539,"x_min":0,"x_max":0,"o":"m 488 758 b 296 939 488 878 400 939 b 138 854 225 939 164 893 b 136 878 136 863 136 871 b 294 1081 138 979 185 1081 b 417 1026 353 1081 386 1060 l 457 1085 b 294 1149 418 1124 367 1149 b 53 863 132 1149 53 1018 b 282 575 53 708 118 575 b 488 758 407 575 488 660 z m 403 756 b 279 643 403 704 360 643 b 139 796 182 643 144 724 b 275 872 169 842 224 872 b 403 756 344 872 403 835 z "},"⁷":{"ha":503,"x_min":0,"x_max":0,"o":"m 449 1083 l 449 1140 l 46 1140 l 46 1072 l 356 1072 l 125 585 l 218 585 z "},"⁸":{"ha":539,"x_min":0,"x_max":0,"o":"m 482 726 b 342 871 482 800 417 853 b 472 1003 413 888 472 932 b 269 1149 472 1106 367 1149 b 67 1003 172 1149 67 1106 b 197 871 67 932 128 888 b 57 726 122 853 57 800 b 269 575 57 625 156 575 b 482 726 383 575 482 626 z m 389 993 b 269 899 389 925 299 906 b 149 993 242 906 149 925 b 269 1082 149 1051 201 1082 b 389 993 338 1082 389 1051 z m 399 733 b 269 640 399 675 339 640 b 139 733 200 640 139 675 b 269 840 139 808 239 836 b 399 733 300 836 399 808 z "},"⁹":{"ha":539,"x_min":0,"x_max":0,"o":"m 53 965 b 244 785 53 846 140 785 b 403 869 314 785 375 831 b 403 847 403 861 403 853 b 244 643 401 742 351 643 b 124 697 188 643 153 664 l 83 639 b 244 575 121 600 172 575 b 488 861 407 575 488 706 b 258 1149 488 1015 422 1149 b 53 965 132 1149 53 1065 z m 136 968 b 263 1081 136 1019 179 1081 b 401 929 357 1081 394 1000 b 264 851 369 882 317 851 b 136 968 194 851 136 889 z "},"₀":{"ha":539,"x_min":0,"x_max":0,"o":"m 494 75 b 269 361 494 213 428 361 b 46 75 110 361 46 213 b 269 -212 46 -62 110 -212 b 494 75 428 -212 494 -62 z m 408 75 b 269 -144 408 -39 371 -144 b 131 75 168 -144 131 -39 b 269 293 131 189 167 293 b 408 75 371 293 408 189 z "},"₁":{"ha":326,"x_min":0,"x_max":0,"o":"m 243 -203 l 243 353 l 169 353 l 19 200 l 68 149 l 160 244 l 160 -203 z "},"₂":{"ha":539,"x_min":0,"x_max":0,"o":"m 474 -203 l 474 -135 l 192 -135 b 471 197 356 -15 471 86 b 272 361 471 311 374 361 b 68 274 194 361 114 332 l 114 221 b 269 293 143 260 201 293 b 388 192 329 293 388 263 b 69 -140 388 101 282 13 l 69 -203 z "},"₃":{"ha":539,"x_min":0,"x_max":0,"o":"m 476 -51 b 343 85 476 38 396 79 b 467 213 397 93 467 132 b 268 361 467 304 385 361 b 65 275 175 361 108 324 l 108 226 b 260 293 150 271 199 293 b 385 204 328 293 385 263 b 249 115 385 139 325 115 b 193 117 225 115 203 115 l 193 47 b 249 49 201 49 225 49 b 393 -47 329 49 393 24 b 265 -144 393 -107 344 -144 b 104 -69 201 -144 140 -115 l 58 -122 b 267 -212 94 -172 168 -212 b 476 -51 397 -212 476 -146 z "},"₄":{"ha":539,"x_min":0,"x_max":0,"o":"m 489 -64 l 489 4 l 410 4 l 410 353 l 294 353 l 54 -1 l 54 -64 l 326 -64 l 326 -203 l 410 -203 l 410 -64 z m 326 4 l 138 4 l 326 279 z "},"₅":{"ha":539,"x_min":0,"x_max":0,"o":"m 478 -28 b 294 149 478 89 390 149 b 163 99 238 149 189 125 l 163 285 l 440 285 l 440 353 l 78 353 l 78 53 l 138 31 b 269 85 176 68 218 85 b 396 -31 344 85 396 39 b 267 -144 396 -94 343 -144 b 110 -68 200 -144 147 -117 l 61 -122 b 267 -212 103 -178 169 -212 b 478 -28 388 -212 478 -140 z "},"₆":{"ha":539,"x_min":0,"x_max":0,"o":"m 488 -29 b 296 151 488 90 400 151 b 138 67 225 151 164 106 b 136 90 136 75 136 83 b 294 293 138 192 185 293 b 417 239 353 293 386 272 l 457 297 b 294 361 418 336 367 361 b 53 75 132 361 53 231 b 282 -212 53 -79 118 -212 b 488 -29 407 -212 488 -128 z m 403 -32 b 279 -144 403 -83 360 -144 b 139 8 182 -144 144 -64 b 275 85 169 54 224 85 b 403 -32 344 85 403 47 z "},"₇":{"ha":503,"x_min":0,"x_max":0,"o":"m 449 296 l 449 353 l 46 353 l 46 285 l 356 285 l 125 -203 l 218 -203 z "},"₈":{"ha":539,"x_min":0,"x_max":0,"o":"m 482 -61 b 342 83 482 13 417 65 b 472 215 413 100 472 144 b 269 361 472 318 367 361 b 67 215 172 361 67 318 b 197 83 67 144 128 100 b 57 -61 122 65 57 13 b 269 -212 57 -162 156 -212 b 482 -61 383 -212 482 -161 z m 389 206 b 269 111 389 138 299 118 b 149 206 242 118 149 138 b 269 294 149 264 201 294 b 389 206 338 294 389 264 z m 399 -54 b 269 -147 399 -112 339 -147 b 139 -54 200 -147 139 -112 b 269 53 139 21 239 49 b 399 -54 300 49 399 21 z "},"₉":{"ha":539,"x_min":0,"x_max":0,"o":"m 53 178 b 244 -3 53 58 140 -3 b 403 82 314 -3 375 43 b 403 60 403 74 403 65 b 244 -144 401 -46 351 -144 b 124 -90 188 -144 153 -124 l 83 -149 b 244 -212 121 -187 172 -212 b 488 74 407 -212 488 -82 b 258 361 488 228 422 361 b 53 178 132 361 53 278 z m 136 181 b 263 293 136 232 179 293 b 401 142 357 293 394 213 b 264 64 369 94 317 64 b 136 181 194 64 136 101 z "},"":{"ha":426,"x_min":0,"x_max":0,"o":"m 218 -210 l 275 -210 l 275 -135 b 407 -62 339 -129 379 -99 l 354 -21 b 275 -74 333 -50 307 -68 l 275 224 b 354 171 307 218 333 200 l 407 211 b 275 285 379 247 339 279 l 275 344 l 218 344 l 218 283 b 39 75 111 269 39 185 b 218 -133 39 -35 111 -119 z m 118 75 b 218 221 118 149 157 206 l 218 -71 b 118 75 157 -56 118 0 z "},"":{"ha":514,"x_min":0,"x_max":0,"o":"m 235 -286 l 293 -286 l 293 -211 b 479 -46 415 -201 479 -139 b 293 118 479 65 383 96 l 293 293 b 414 231 340 286 383 264 l 463 279 b 293 358 425 321 369 351 l 293 438 l 235 438 l 235 360 b 47 206 124 354 47 290 b 235 47 47 96 143 69 l 235 -146 b 83 -67 171 -137 118 -103 l 35 -121 b 235 -211 76 -171 144 -206 z m 394 -54 b 293 -144 394 -99 361 -136 l 293 33 b 394 -54 350 18 394 -3 z m 132 213 b 235 296 132 257 175 290 l 235 132 b 132 213 176 147 132 167 z "},"":{"ha":199,"x_min":0,"x_max":0,"o":"m 151 -157 b 100 -106 151 -129 128 -106 b 47 -157 71 -106 47 -129 b 100 -208 47 -185 71 -208 b 151 -157 128 -208 151 -185 z "},"":{"ha":193,"x_min":0,"x_max":0,"o":"m 146 -169 b 93 -106 146 -132 124 -106 b 40 -157 64 -106 40 -129 b 90 -207 40 -185 65 -207 b 96 -206 92 -207 94 -206 b 39 -281 93 -232 64 -265 b 75 -310 51 -290 63 -299 b 146 -169 117 -281 146 -228 z "},"≠":{"ha":693,"x_min":0,"x_max":0,"o":"m 171 129 l 275 293 l 653 293 l 653 367 l 322 367 l 446 561 l 653 561 l 653 635 l 493 635 l 597 797 l 521 797 l 417 635 l 40 635 l 40 561 l 369 561 l 246 367 l 40 367 l 40 293 l 200 293 l 96 129 z "},"∞":{"ha":911,"x_min":0,"x_max":0,"o":"m 256 236 b 456 389 349 236 418 307 b 657 236 493 307 563 236 b 871 465 807 236 871 356 b 657 696 871 578 807 696 b 456 543 563 696 493 624 b 256 696 418 624 349 696 b 40 465 106 696 40 578 b 256 236 40 356 106 236 z m 650 310 b 490 465 572 310 519 389 b 650 622 519 542 572 622 b 793 465 740 622 793 556 b 650 310 793 376 740 310 z m 263 310 b 118 465 172 310 118 376 b 263 622 118 557 172 622 b 422 465 340 622 393 543 b 263 310 393 389 340 310 z "},"≤":{"ha":693,"x_min":0,"x_max":0,"o":"m 653 138 l 653 225 l 129 476 l 653 731 l 653 818 l 40 514 l 40 440 z m 653 0 l 653 74 l 40 74 l 40 0 z "},"≥":{"ha":693,"x_min":0,"x_max":0,"o":"m 653 440 l 653 514 l 40 818 l 40 731 l 563 476 l 40 225 l 40 138 z m 651 0 l 651 74 l 39 74 l 39 0 z "},"∂":{"ha":794,"x_min":0,"x_max":0,"o":"m 397 -17 b 729 346 601 -17 729 136 b 318 946 729 624 521 839 l 240 881 b 586 551 411 797 532 672 b 371 665 529 635 457 665 b 65 325 190 665 65 514 b 397 -17 65 136 193 -17 z m 397 76 b 175 325 254 76 175 192 b 397 572 175 457 254 572 b 619 325 540 572 619 457 b 397 76 619 192 540 76 z "},"∑":{"ha":800,"x_min":0,"x_max":0,"o":"m 536 415 l 214 -22 l 725 -22 l 725 -125 l 75 -125 l 75 -22 l 396 414 l 76 825 l 76 926 l 725 926 l 725 824 l 219 824 z "},"∏":{"ha":983,"x_min":0,"x_max":0,"o":"m 786 -125 l 786 824 l 939 824 l 939 926 l 44 926 l 44 824 l 196 824 l 196 -125 l 311 -125 l 311 824 l 671 824 l 671 -125 z "},"π":{"ha":779,"x_min":0,"x_max":0,"o":"m 628 0 l 628 601 l 735 601 l 735 694 l 44 694 l 44 601 l 151 601 l 151 0 l 257 0 l 257 601 l 522 601 l 522 0 z "},"∫":{"ha":483,"x_min":0,"x_max":0,"o":"m 108 -139 b 282 47 197 -139 282 -67 l 282 881 b 375 990 282 946 325 990 l 460 990 l 460 1067 l 375 1067 b 201 879 286 1067 201 994 l 201 49 b 108 -62 201 -15 158 -62 l 24 -62 l 24 -139 z "},"Ω":{"ha":1063,"x_min":0,"x_max":0,"o":"m 96 0 l 429 0 l 429 103 b 190 464 308 133 190 261 b 531 838 190 668 311 838 b 872 464 751 838 872 668 b 633 103 872 261 754 133 l 633 0 l 967 0 l 967 103 l 779 103 b 992 483 892 176 992 301 b 531 942 992 750 806 942 b 71 483 257 942 71 750 b 283 103 71 300 171 176 l 96 103 z "},"√":{"ha":1007,"x_min":0,"x_max":0,"o":"m 593 0 l 963 926 l 881 926 l 554 108 l 378 549 l 92 439 l 117 369 l 332 454 l 513 0 z "},"≈":{"ha":693,"x_min":0,"x_max":0,"o":"m 40 293 b 193 256 83 269 143 256 b 499 338 346 256 364 338 b 653 290 549 338 607 322 l 653 372 b 499 410 608 396 550 410 b 193 329 344 410 328 329 b 40 375 143 329 86 343 z m 40 556 b 193 518 83 532 143 518 b 499 599 346 518 364 599 b 653 553 549 599 607 585 l 653 635 b 499 672 608 658 550 672 b 193 592 344 672 328 592 b 40 638 143 592 86 606 z "},"Δ":{"ha":914,"x_min":0,"x_max":0,"o":"m 901 0 l 529 926 l 386 926 l 13 0 z m 736 103 l 178 103 l 457 808 z "}," ":{"ha":360,"x_min":0,"x_max":0,"o":""},"◊":{"ha":521,"x_min":0,"x_max":0,"o":"m 275 0 l 494 464 l 275 926 l 246 926 l 26 464 l 246 0 z m 261 57 l 76 464 l 260 869 l 444 464 z "},"€":{"ha":965,"x_min":0,"x_max":0,"o":"m 578 -17 b 931 168 742 -17 853 61 l 833 221 b 578 86 781 143 683 86 b 242 329 419 86 290 182 l 661 329 l 661 401 l 225 401 b 221 463 222 421 221 442 b 225 526 221 485 222 506 l 661 526 l 661 600 l 242 600 b 578 839 292 746 419 839 b 833 704 683 839 781 783 l 929 758 b 578 942 856 864 742 942 b 119 600 357 942 175 808 l 43 600 l 43 526 l 104 526 b 101 463 103 506 101 483 b 104 401 101 442 103 421 l 43 401 l 43 329 l 118 329 b 578 -17 172 118 354 -17 z "},"⌘":{"ha":926,"x_min":0,"x_max":0,"o":"m 314 214 b 213 110 314 157 269 110 b 111 214 156 110 111 157 b 211 317 111 271 154 317 l 314 317 z m 314 610 l 214 610 b 111 714 157 610 111 657 b 214 817 111 771 157 817 b 314 714 271 817 314 771 z m 368 368 l 368 558 l 558 558 l 558 368 z m 815 214 b 714 110 815 157 771 110 b 613 214 657 110 613 157 l 613 317 l 715 317 b 815 214 772 317 815 271 z m 815 714 b 715 610 815 657 772 610 l 613 610 l 613 714 b 714 817 613 771 657 817 b 815 714 771 817 815 771 z m 868 214 b 714 368 868 299 799 368 l 613 368 l 613 558 l 714 558 b 868 714 799 558 868 629 b 714 868 868 799 799 868 b 558 714 629 868 558 799 l 558 610 l 368 610 l 368 714 b 214 868 368 799 299 868 b 58 714 129 868 58 799 b 214 558 58 629 129 558 l 314 558 l 314 368 l 213 368 b 58 214 128 368 58 299 b 213 58 58 129 128 58 b 368 214 297 58 368 129 l 368 317 l 558 317 l 558 214 b 714 58 558 129 629 58 b 868 214 799 58 868 129 z "},"Ā":{"ha":914,"x_min":0,"x_max":0,"o":"m 901 0 l 529 926 l 386 926 l 13 0 l 144 0 l 226 207 l 688 207 l 769 0 z m 654 308 l 261 308 l 457 808 z m 708 1040 l 708 1107 l 204 1107 l 204 1040 z "},"ā":{"ha":733,"x_min":0,"x_max":0,"o":"m 628 0 l 628 461 b 368 688 628 624 511 688 b 100 576 258 688 172 651 l 149 504 b 354 597 208 569 274 597 b 524 457 451 597 524 546 l 524 336 b 301 426 469 397 393 426 b 68 206 188 426 68 357 b 301 -17 68 60 189 -17 b 524 76 392 -17 469 15 l 524 0 z m 340 58 b 174 206 242 58 174 119 b 340 351 174 290 242 351 b 524 269 413 351 483 324 l 524 142 b 340 58 483 86 413 58 z m 617 803 l 617 869 l 113 869 l 113 803 z "},"Ă":{"ha":914,"x_min":0,"x_max":0,"o":"m 901 0 l 529 926 l 386 926 l 13 0 l 144 0 l 226 207 l 688 207 l 769 0 z m 654 308 l 261 308 l 457 808 z m 700 1125 l 650 1169 b 457 1069 606 1107 538 1069 b 265 1169 375 1069 308 1108 l 213 1125 b 457 1003 269 1050 358 1003 b 700 1125 557 1003 644 1050 z "},"ă":{"ha":733,"x_min":0,"x_max":0,"o":"m 628 0 l 628 461 b 368 688 628 624 511 688 b 100 576 258 688 172 651 l 149 504 b 354 597 208 569 274 597 b 524 457 451 597 524 546 l 524 336 b 301 426 469 397 393 426 b 68 206 188 426 68 357 b 301 -17 68 60 189 -17 b 524 76 392 -17 469 15 l 524 0 z m 340 58 b 174 206 242 58 174 119 b 340 351 174 290 242 351 b 524 269 413 351 483 324 l 524 142 b 340 58 483 86 413 58 z m 608 904 l 558 949 b 365 849 514 886 446 849 b 174 949 283 849 217 888 l 121 904 b 365 782 178 829 267 782 b 608 904 465 782 553 829 z "},"Ą":{"ha":914,"x_min":0,"x_max":0,"o":"m 928 -146 b 857 -204 915 -183 894 -204 b 794 -135 819 -204 794 -182 b 900 0 794 -76 833 -33 l 901 0 l 529 926 l 386 926 l 13 0 l 144 0 l 226 207 l 688 207 l 769 0 l 806 0 b 732 -137 760 -36 732 -85 b 857 -258 732 -222 792 -258 b 979 -175 922 -258 960 -219 z m 654 308 l 261 308 l 457 808 z "},"ą":{"ha":733,"x_min":0,"x_max":0,"o":"m 656 -146 b 585 -204 643 -183 622 -204 b 522 -135 547 -204 522 -182 b 628 0 522 -76 561 -33 l 628 461 b 368 688 628 624 511 688 b 100 576 258 688 172 651 l 149 504 b 354 597 208 569 274 597 b 524 457 451 597 524 546 l 524 336 b 301 426 469 397 393 426 b 68 206 188 426 68 357 b 301 -17 68 60 189 -17 b 524 76 392 -17 469 15 l 524 0 l 533 0 b 460 -137 488 -36 460 -85 b 585 -258 460 -222 519 -258 b 707 -175 650 -258 688 -219 z m 340 58 b 174 206 242 58 174 119 b 340 351 174 290 242 351 b 524 269 413 351 483 324 l 524 142 b 340 58 483 86 413 58 z "},"Ć":{"ha":939,"x_min":0,"x_max":0,"o":"m 547 -17 b 900 168 711 -17 822 61 l 803 221 b 547 86 750 143 653 86 b 190 463 344 86 190 243 b 547 839 190 685 344 839 b 803 704 653 839 750 783 l 899 758 b 547 942 825 864 711 942 b 71 463 281 942 71 747 b 547 -17 71 178 281 -17 z m 769 1211 l 661 1211 l 456 1011 l 535 1011 z "},"ć":{"ha":689,"x_min":0,"x_max":0,"o":"m 400 -17 b 646 100 522 -17 594 33 l 576 164 b 406 76 532 104 475 76 b 174 336 264 76 174 188 b 406 594 174 485 264 594 b 576 508 475 594 532 569 l 646 571 b 400 688 594 638 522 688 b 65 336 200 688 65 535 b 400 -17 65 138 200 -17 z m 629 972 l 521 972 l 315 772 l 394 772 z "},"Ĉ":{"ha":939,"x_min":0,"x_max":0,"o":"m 547 -17 b 900 168 711 -17 822 61 l 803 221 b 547 86 750 143 653 86 b 190 463 344 86 190 243 b 547 839 190 685 344 839 b 803 704 653 839 750 783 l 899 758 b 547 942 825 864 711 942 b 71 463 281 942 71 747 b 547 -17 71 178 281 -17 z m 732 1011 l 596 1211 l 496 1211 l 364 1011 l 435 1011 l 546 1158 l 661 1011 z "},"ĉ":{"ha":689,"x_min":0,"x_max":0,"o":"m 400 -17 b 646 100 522 -17 594 33 l 576 164 b 406 76 532 104 475 76 b 174 336 264 76 174 188 b 406 594 174 485 264 594 b 576 508 475 594 532 569 l 646 571 b 400 688 594 638 522 688 b 65 336 200 688 65 535 b 400 -17 65 138 200 -17 z m 590 772 l 454 972 l 354 972 l 222 772 l 293 772 l 404 919 l 519 772 z "},"Ċ":{"ha":939,"x_min":0,"x_max":0,"o":"m 547 -17 b 900 168 711 -17 822 61 l 803 221 b 547 86 750 143 653 86 b 190 463 344 86 190 243 b 547 839 190 685 344 839 b 803 704 653 839 750 783 l 899 758 b 547 942 825 864 711 942 b 71 463 281 942 71 747 b 547 -17 71 178 281 -17 z m 550 1010 b 615 1075 586 1010 615 1039 b 550 1140 615 1111 586 1140 b 485 1075 515 1140 485 1111 b 550 1010 485 1039 515 1010 z "},"ċ":{"ha":689,"x_min":0,"x_max":0,"o":"m 400 -17 b 646 100 522 -17 594 33 l 576 164 b 406 76 532 104 475 76 b 174 336 264 76 174 188 b 406 594 174 485 264 594 b 576 508 475 594 532 569 l 646 571 b 400 688 594 638 522 688 b 65 336 200 688 65 535 b 400 -17 65 138 200 -17 z m 403 796 b 468 861 439 796 468 825 b 403 926 468 897 439 926 b 338 861 368 926 338 897 b 403 796 338 825 368 796 z "},"Č":{"ha":939,"x_min":0,"x_max":0,"o":"m 547 -17 b 900 168 711 -17 822 61 l 803 221 b 547 86 750 143 653 86 b 190 463 344 86 190 243 b 547 839 190 685 344 839 b 803 704 653 839 750 783 l 899 758 b 547 942 825 864 711 942 b 71 463 281 942 71 747 b 547 -17 71 178 281 -17 z m 600 1011 l 732 1211 l 661 1211 l 550 1064 l 435 1211 l 364 1211 l 500 1011 z "},"č":{"ha":689,"x_min":0,"x_max":0,"o":"m 400 -17 b 646 100 522 -17 594 33 l 576 164 b 406 76 532 104 475 76 b 174 336 264 76 174 188 b 406 594 174 485 264 594 b 576 508 475 594 532 569 l 646 571 b 400 688 594 638 522 688 b 65 336 200 688 65 535 b 400 -17 65 138 200 -17 z m 458 772 l 590 972 l 519 972 l 408 825 l 293 972 l 222 972 l 358 772 z "},"Ď":{"ha":972,"x_min":0,"x_max":0,"o":"m 425 0 b 900 463 714 0 900 199 b 425 926 900 725 714 926 l 108 926 l 108 0 z m 425 103 l 224 103 l 224 824 l 425 824 b 781 463 654 824 781 663 b 425 103 781 264 650 103 z m 540 1011 l 672 1211 l 601 1211 l 490 1064 l 375 1211 l 304 1211 l 440 1011 z "},"ď":{"ha":894,"x_min":0,"x_max":0,"o":"m 694 0 l 694 926 l 590 926 l 590 569 b 364 688 536 643 454 688 b 65 335 189 688 65 550 b 364 -17 65 117 189 -17 b 590 100 458 -17 540 32 l 590 0 z m 390 76 b 174 335 254 76 174 186 b 390 594 174 483 254 594 b 590 486 472 594 554 544 l 590 183 b 390 76 554 125 472 76 z m 900 851 b 826 944 900 911 865 944 b 763 881 790 944 763 915 b 821 819 763 844 788 819 b 836 821 826 819 835 821 b 757 701 832 781 797 729 l 801 665 b 900 851 856 706 900 776 z "},"Đ":{"ha":1011,"x_min":0,"x_max":0,"o":"m 464 0 b 939 463 753 0 939 199 b 464 926 939 725 753 926 l 147 926 l 147 500 l 14 500 l 14 415 l 147 415 l 147 0 z m 497 415 l 497 500 l 263 500 l 263 824 l 464 824 b 819 463 693 824 819 663 b 464 103 819 264 689 103 l 263 103 l 263 415 z "},"đ":{"ha":804,"x_min":0,"x_max":0,"o":"m 694 0 l 694 743 l 789 743 l 789 810 l 694 810 l 694 926 l 590 926 l 590 810 l 372 810 l 372 743 l 590 743 l 590 569 b 364 688 536 643 454 688 b 65 335 189 688 65 550 b 364 -17 65 117 189 -17 b 590 100 458 -17 540 32 l 590 0 z m 390 76 b 174 335 254 76 174 186 b 390 594 174 483 254 594 b 590 486 472 594 554 544 l 590 183 b 390 76 554 125 472 76 z "},"Ē":{"ha":790,"x_min":0,"x_max":0,"o":"m 715 0 l 715 103 l 224 103 l 224 422 l 706 422 l 706 525 l 224 525 l 224 824 l 715 824 l 715 926 l 108 926 l 108 0 z m 660 1040 l 660 1107 l 156 1107 l 156 1040 z "},"ē":{"ha":782,"x_min":0,"x_max":0,"o":"m 408 -17 b 675 88 517 -17 607 21 l 625 156 b 417 69 571 100 494 69 b 176 301 272 69 185 175 l 718 301 l 718 328 b 396 688 718 529 599 688 b 65 336 204 688 65 531 b 408 -17 65 126 208 -17 z m 615 379 l 175 379 b 394 601 181 481 251 601 b 615 379 547 601 614 478 z m 643 803 l 643 869 l 139 869 l 139 803 z "},"Ĕ":{"ha":790,"x_min":0,"x_max":0,"o":"m 715 0 l 715 103 l 224 103 l 224 422 l 706 422 l 706 525 l 224 525 l 224 824 l 715 824 l 715 926 l 108 926 l 108 0 z m 651 1125 l 601 1169 b 408 1069 557 1107 489 1069 b 217 1169 326 1069 260 1108 l 164 1125 b 408 1003 221 1050 310 1003 b 651 1125 508 1003 596 1050 z "},"ĕ":{"ha":782,"x_min":0,"x_max":0,"o":"m 408 -17 b 675 88 517 -17 607 21 l 625 156 b 417 69 571 100 494 69 b 176 301 272 69 185 175 l 718 301 l 718 328 b 396 688 718 529 599 688 b 65 336 204 688 65 531 b 408 -17 65 126 208 -17 z m 615 379 l 175 379 b 394 601 181 481 251 601 b 615 379 547 601 614 478 z m 643 904 l 593 949 b 400 849 549 886 481 849 b 208 949 318 849 251 888 l 156 904 b 400 782 213 829 301 782 b 643 904 500 782 588 829 z "},"Ė":{"ha":790,"x_min":0,"x_max":0,"o":"m 715 0 l 715 103 l 224 103 l 224 422 l 706 422 l 706 525 l 224 525 l 224 824 l 715 824 l 715 926 l 108 926 l 108 0 z m 418 1010 b 483 1075 454 1010 483 1039 b 418 1140 483 1111 454 1140 b 353 1075 383 1140 353 1111 b 418 1010 353 1039 383 1010 z "},"ė":{"ha":782,"x_min":0,"x_max":0,"o":"m 408 -17 b 675 88 517 -17 607 21 l 625 156 b 417 69 571 100 494 69 b 176 301 272 69 185 175 l 718 301 l 718 328 b 396 688 718 529 599 688 b 65 336 204 688 65 531 b 408 -17 65 126 208 -17 z m 615 379 l 175 379 b 394 601 181 481 251 601 b 615 379 547 601 614 478 z m 397 796 b 463 861 433 796 463 825 b 397 926 463 897 433 926 b 332 861 363 926 332 897 b 397 796 332 825 363 796 z "},"Ę":{"ha":790,"x_min":0,"x_max":0,"o":"m 743 -146 b 672 -204 731 -183 710 -204 b 610 -135 635 -204 610 -182 b 715 0 610 -76 649 -33 l 715 103 l 224 103 l 224 422 l 706 422 l 706 525 l 224 525 l 224 824 l 715 824 l 715 926 l 108 926 l 108 0 l 621 0 b 547 -137 575 -36 547 -85 b 672 -258 547 -222 607 -258 b 794 -175 738 -258 775 -219 z "},"ę":{"ha":782,"x_min":0,"x_max":0,"o":"m 408 -17 l 413 -17 b 358 -137 379 -50 358 -92 b 483 -258 358 -222 418 -258 b 606 -175 549 -258 586 -219 l 554 -146 b 483 -204 542 -183 521 -204 b 421 -135 446 -204 421 -182 b 526 0 421 -76 460 -33 b 675 88 583 17 633 46 l 625 156 b 417 69 571 100 494 69 b 176 301 272 69 185 175 l 718 301 l 718 328 b 396 688 718 529 599 688 b 65 336 204 688 65 531 b 408 -17 65 126 208 -17 z m 615 379 l 175 379 b 394 601 181 481 251 601 b 615 379 547 601 614 478 z "},"Ě":{"ha":790,"x_min":0,"x_max":0,"o":"m 715 0 l 715 103 l 224 103 l 224 422 l 706 422 l 706 525 l 224 525 l 224 824 l 715 824 l 715 926 l 108 926 l 108 0 z m 465 1011 l 597 1211 l 526 1211 l 415 1064 l 300 1211 l 229 1211 l 365 1011 z "},"ě":{"ha":782,"x_min":0,"x_max":0,"o":"m 408 -17 b 675 88 517 -17 607 21 l 625 156 b 417 69 571 100 494 69 b 176 301 272 69 185 175 l 718 301 l 718 328 b 396 688 718 529 599 688 b 65 336 204 688 65 531 b 408 -17 65 126 208 -17 z m 615 379 l 175 379 b 394 601 181 481 251 601 b 615 379 547 601 614 478 z m 449 772 l 581 972 l 510 972 l 399 825 l 283 972 l 213 972 l 349 772 z "},"Ĝ":{"ha":990,"x_min":0,"x_max":0,"o":"m 547 -18 b 911 143 699 -18 825 46 l 911 476 l 478 476 l 478 374 l 797 374 l 797 186 b 547 86 750 139 658 86 b 190 463 344 86 190 243 b 547 839 190 685 344 839 b 815 711 658 839 757 786 l 907 769 b 547 942 826 869 713 942 b 71 463 283 942 71 751 b 547 -18 71 175 283 -18 z m 738 1011 l 601 1211 l 501 1211 l 369 1011 l 440 1011 l 551 1158 l 667 1011 z "},"ĝ":{"ha":799,"x_min":0,"x_max":0,"o":"m 374 -272 b 694 10 538 -272 694 -203 l 694 671 l 590 671 l 590 569 b 364 688 536 643 454 688 b 65 339 188 688 65 554 b 364 -8 65 122 189 -8 b 590 111 458 -8 540 43 l 590 10 b 374 -186 590 -132 485 -186 b 156 -96 278 -186 211 -161 l 103 -171 b 374 -272 183 -250 261 -272 z m 390 85 b 174 339 254 85 174 192 b 390 594 174 488 254 594 b 590 488 472 594 553 544 l 590 193 b 390 85 553 135 472 85 z m 588 763 l 451 963 l 351 963 l 219 763 l 290 763 l 401 910 l 517 763 z "},"Ğ":{"ha":990,"x_min":0,"x_max":0,"o":"m 547 -18 b 911 143 699 -18 825 46 l 911 476 l 478 476 l 478 374 l 797 374 l 797 186 b 547 86 750 139 658 86 b 190 463 344 86 190 243 b 547 839 190 685 344 839 b 815 711 658 839 757 786 l 907 769 b 547 942 826 869 713 942 b 71 463 283 942 71 751 b 547 -18 71 175 283 -18 z m 794 1125 l 744 1169 b 551 1069 700 1107 632 1069 b 360 1169 469 1069 403 1108 l 307 1125 b 551 1003 364 1050 453 1003 b 794 1125 651 1003 739 1050 z "},"ğ":{"ha":799,"x_min":0,"x_max":0,"o":"m 374 -272 b 694 10 538 -272 694 -203 l 694 671 l 590 671 l 590 569 b 364 688 536 643 454 688 b 65 339 188 688 65 554 b 364 -8 65 122 189 -8 b 590 111 458 -8 540 43 l 590 10 b 374 -186 590 -132 485 -186 b 156 -96 278 -186 211 -161 l 103 -171 b 374 -272 183 -250 261 -272 z m 390 85 b 174 339 254 85 174 192 b 390 594 174 488 254 594 b 590 488 472 594 553 544 l 590 193 b 390 85 553 135 472 85 z m 640 904 l 590 949 b 397 849 546 886 478 849 b 206 949 315 849 249 888 l 153 904 b 397 782 210 829 299 782 b 640 904 497 782 585 829 z "},"Ġ":{"ha":990,"x_min":0,"x_max":0,"o":"m 547 -18 b 911 143 699 -18 825 46 l 911 476 l 478 476 l 478 374 l 797 374 l 797 186 b 547 86 750 139 658 86 b 190 463 344 86 190 243 b 547 839 190 685 344 839 b 815 711 658 839 757 786 l 907 769 b 547 942 826 869 713 942 b 71 463 283 942 71 751 b 547 -18 71 175 283 -18 z m 550 1010 b 615 1075 586 1010 615 1039 b 550 1140 615 1111 586 1140 b 485 1075 515 1140 485 1111 b 550 1010 485 1039 515 1010 z "},"ġ":{"ha":799,"x_min":0,"x_max":0,"o":"m 374 -272 b 694 10 538 -272 694 -203 l 694 671 l 590 671 l 590 569 b 364 688 536 643 454 688 b 65 339 188 688 65 554 b 364 -8 65 122 189 -8 b 590 111 458 -8 540 43 l 590 10 b 374 -186 590 -132 485 -186 b 156 -96 278 -186 211 -161 l 103 -171 b 374 -272 183 -250 261 -272 z m 390 85 b 174 339 254 85 174 192 b 390 594 174 488 254 594 b 590 488 472 594 553 544 l 590 193 b 390 85 553 135 472 85 z m 401 796 b 467 861 438 796 467 825 b 401 926 467 897 438 926 b 336 861 367 926 336 897 b 401 796 336 825 367 796 z "},"Ģ":{"ha":990,"x_min":0,"x_max":0,"o":"m 547 -18 b 911 143 699 -18 825 46 l 911 476 l 478 476 l 478 374 l 797 374 l 797 186 b 547 86 750 139 658 86 b 190 463 344 86 190 243 b 547 839 190 685 344 839 b 815 711 658 839 757 786 l 907 769 b 547 942 826 869 713 942 b 71 463 283 942 71 751 b 547 -18 71 175 283 -18 z m 624 -192 b 550 -99 624 -132 589 -99 b 486 -162 514 -99 486 -128 b 544 -224 486 -199 511 -224 b 560 -222 550 -224 558 -222 b 481 -342 556 -262 521 -314 l 525 -378 b 624 -192 579 -337 624 -267 z "},"ģ":{"ha":799,"x_min":0,"x_max":0,"o":"m 324 861 b 390 778 324 804 358 778 b 456 842 428 778 456 808 b 393 906 456 878 424 906 b 386 904 389 906 386 904 b 465 1019 389 944 426 994 l 419 1057 b 324 861 367 1019 324 944 z m 374 -272 b 694 10 538 -272 694 -203 l 694 671 l 590 671 l 590 569 b 364 688 536 643 454 688 b 65 339 188 688 65 554 b 364 -8 65 122 189 -8 b 590 111 458 -8 540 43 l 590 10 b 374 -186 590 -132 485 -186 b 156 -96 278 -186 211 -161 l 103 -171 b 374 -272 183 -250 261 -272 z m 390 85 b 174 339 254 85 174 192 b 390 594 174 488 254 594 b 590 488 472 594 553 544 l 590 193 b 390 85 553 135 472 85 z "},"Ĥ":{"ha":989,"x_min":0,"x_max":0,"o":"m 881 0 l 881 926 l 765 926 l 765 528 l 224 528 l 224 926 l 108 926 l 108 0 l 224 0 l 224 425 l 765 425 l 765 0 z m 675 1011 l 539 1211 l 439 1211 l 307 1011 l 378 1011 l 489 1158 l 604 1011 z "},"ĥ":{"ha":767,"x_min":0,"x_max":0,"o":"m 663 0 l 663 474 b 449 688 663 619 589 688 b 210 574 347 688 256 631 l 210 926 l 106 926 l 106 0 l 210 0 l 210 490 b 407 594 249 544 326 594 b 558 442 499 594 558 561 l 558 0 z m 343 1011 l 207 1211 l 107 1211 l -25 1011 l 46 1011 l 157 1158 l 272 1011 z "},"Ħ":{"ha":1015,"x_min":0,"x_max":0,"o":"m 894 0 l 894 696 l 1001 696 l 1001 763 l 894 763 l 894 926 l 779 926 l 779 763 l 238 763 l 238 926 l 122 926 l 122 763 l 14 763 l 14 696 l 122 696 l 122 0 l 238 0 l 238 425 l 779 425 l 779 0 z m 238 528 l 238 696 l 779 696 l 779 528 z "},"ħ":{"ha":771,"x_min":0,"x_max":0,"o":"m 429 743 l 429 810 l 214 810 l 214 926 l 110 926 l 110 810 l 14 810 l 14 743 l 110 743 l 110 0 l 214 0 l 214 490 b 411 594 253 544 331 594 b 563 442 503 594 563 561 l 563 0 l 667 0 l 667 474 b 453 688 667 619 593 688 b 214 574 351 688 260 631 l 214 743 z "},"Ĩ":{"ha":332,"x_min":0,"x_max":0,"o":"m 224 0 l 224 926 l 108 926 l 108 0 z m 249 1008 b 383 1194 336 1008 383 1086 l 321 1194 b 254 1075 321 1111 292 1075 b 83 1203 188 1075 183 1203 b -51 1017 -4 1203 -51 1125 l 11 1017 b 78 1136 11 1100 40 1136 b 249 1008 144 1136 149 1008 z "},"ĩ":{"ha":313,"x_min":0,"x_max":0,"o":"m 208 0 l 208 671 l 104 671 l 104 0 z m 239 751 b 374 938 326 751 374 829 l 311 938 b 244 818 311 854 282 818 b 74 946 178 818 174 946 b -61 760 -14 946 -61 868 l 1 760 b 68 879 1 843 31 879 b 239 751 135 879 139 751 z "},"Ī":{"ha":332,"x_min":0,"x_max":0,"o":"m 224 0 l 224 926 l 108 926 l 108 0 z m 418 1040 l 418 1107 l -86 1107 l -86 1040 z "},"ī":{"ha":313,"x_min":0,"x_max":0,"o":"m 208 0 l 208 671 l 104 671 l 104 0 z m 410 803 l 410 869 l -94 869 l -94 803 z "},"Ĭ":{"ha":332,"x_min":0,"x_max":0,"o":"m 224 0 l 224 926 l 108 926 l 108 0 z m 413 1125 l 363 1169 b 169 1069 318 1107 250 1069 b -22 1169 88 1069 21 1108 l -75 1125 b 169 1003 -18 1050 71 1003 b 413 1125 269 1003 357 1050 z "},"ĭ":{"ha":313,"x_min":0,"x_max":0,"o":"m 208 0 l 208 671 l 104 671 l 104 0 z m 401 904 l 351 949 b 158 849 307 886 239 849 b -33 949 76 849 10 888 l -86 904 b 158 782 -29 829 60 782 b 401 904 258 782 346 829 z "},"Į":{"ha":332,"x_min":0,"x_max":0,"o":"m 251 -146 b 181 -204 239 -183 218 -204 b 118 -135 143 -204 118 -182 b 224 0 118 -76 157 -33 l 224 926 l 108 926 l 108 0 l 129 0 b 56 -137 83 -36 56 -85 b 181 -258 56 -222 115 -258 b 303 -175 246 -258 283 -219 z "},"į":{"ha":313,"x_min":0,"x_max":0,"o":"m 236 -146 b 165 -204 224 -183 203 -204 b 103 -135 128 -204 103 -182 b 208 0 103 -76 142 -33 l 208 671 l 104 671 l 104 0 l 114 0 b 40 -137 68 -36 40 -85 b 165 -258 40 -222 100 -258 b 288 -175 231 -258 268 -219 z m 157 767 b 226 836 196 767 226 797 b 157 907 226 875 196 907 b 86 836 118 907 86 875 b 157 767 86 797 118 767 z "},"İ":{"ha":332,"x_min":0,"x_max":0,"o":"m 224 0 l 224 926 l 108 926 l 108 0 z m 167 1010 b 232 1075 203 1010 232 1039 b 167 1140 232 1111 203 1140 b 101 1075 132 1140 101 1111 b 167 1010 101 1039 132 1010 z "},"Ĳ":{"ha":992,"x_min":0,"x_max":0,"o":"m 224 0 l 224 926 l 108 926 l 108 0 z m 589 -17 b 883 279 754 -17 883 79 l 883 926 l 768 926 l 768 281 b 582 86 768 165 696 86 b 408 178 501 86 447 129 l 347 90 b 589 -17 411 15 492 -17 z "},"ĳ":{"ha":626,"x_min":0,"x_max":0,"o":"m 157 767 b 226 836 196 767 226 797 b 157 907 226 875 196 907 b 86 836 118 907 86 875 b 157 767 86 797 118 767 z m 208 0 l 208 671 l 104 671 l 104 0 z m 469 767 b 539 836 508 767 539 797 b 469 907 539 875 508 907 b 399 836 431 907 399 875 b 469 767 399 797 431 767 z m 322 -272 b 521 -65 451 -272 521 -197 l 521 671 l 417 671 l 417 -65 b 308 -186 417 -150 371 -186 b 213 -144 267 -186 236 -168 l 176 -222 b 322 -272 218 -256 254 -272 z "},"Ĵ":{"ha":660,"x_min":0,"x_max":0,"o":"m 257 -17 b 551 279 422 -17 551 79 l 551 926 l 436 926 l 436 281 b 250 86 436 165 364 86 b 76 178 169 86 115 129 l 15 90 b 257 -17 79 15 160 -17 z m 678 1011 l 542 1211 l 442 1211 l 310 1011 l 381 1011 l 492 1158 l 607 1011 z "},"ĵ":{"ha":313,"x_min":0,"x_max":0,"o":"m 10 -272 b 208 -65 139 -272 208 -197 l 208 671 l 104 671 l 104 -65 b -4 -179 104 -143 58 -179 b -100 -137 -46 -179 -76 -161 l -136 -222 b 10 -272 -94 -256 -58 -272 z m 343 772 l 207 972 l 107 972 l -25 772 l 46 772 l 157 919 l 272 772 z "},"Ķ":{"ha":842,"x_min":0,"x_max":0,"o":"m 813 0 l 392 488 l 778 926 l 633 926 l 224 449 l 224 926 l 108 926 l 108 0 l 224 0 l 224 311 l 317 417 l 668 0 z m 500 -192 b 426 -99 500 -132 465 -99 b 363 -162 390 -99 363 -128 b 421 -224 363 -199 388 -224 b 436 -222 426 -224 435 -222 b 357 -342 432 -262 397 -314 l 401 -378 b 500 -192 456 -337 500 -267 z "},"ķ":{"ha":714,"x_min":0,"x_max":0,"o":"m 694 0 l 396 367 l 693 671 l 561 671 l 208 314 l 208 926 l 104 926 l 104 0 l 208 0 l 208 192 l 321 301 l 561 0 z m 436 -192 b 363 -99 436 -132 401 -99 b 299 -162 326 -99 299 -128 b 357 -224 299 -199 324 -224 b 372 -222 363 -224 371 -222 b 293 -342 368 -262 333 -314 l 338 -378 b 436 -192 392 -337 436 -267 z "},"ĸ":{"ha":714,"x_min":0,"x_max":0,"o":"m 694 0 l 396 367 l 693 671 l 561 671 l 208 314 l 208 671 l 104 671 l 104 0 l 208 0 l 208 192 l 321 301 l 561 0 z "},"Ĺ":{"ha":685,"x_min":0,"x_max":0,"o":"m 639 0 l 639 103 l 208 103 l 208 926 l 93 926 l 93 0 z m 588 1211 l 479 1211 l 274 1011 l 353 1011 z "},"ĺ":{"ha":313,"x_min":0,"x_max":0,"o":"m 208 0 l 208 926 l 104 926 l 104 0 z m 379 1211 l 271 1211 l 65 1011 l 144 1011 z "},"Ļ":{"ha":685,"x_min":0,"x_max":0,"o":"m 639 0 l 639 103 l 208 103 l 208 926 l 93 926 l 93 0 z m 419 -192 b 346 -99 419 -132 385 -99 b 282 -162 310 -99 282 -128 b 340 -224 282 -199 307 -224 b 356 -222 346 -224 354 -222 b 276 -342 351 -262 317 -314 l 321 -378 b 419 -192 375 -337 419 -267 z "},"ļ":{"ha":313,"x_min":0,"x_max":0,"o":"m 208 0 l 208 926 l 104 926 l 104 0 z m 236 -192 b 163 -99 236 -132 201 -99 b 99 -162 126 -99 99 -128 b 157 -224 99 -199 124 -224 b 172 -222 163 -224 171 -222 b 93 -342 168 -262 133 -314 l 138 -378 b 236 -192 192 -337 236 -267 z "},"Ľ":{"ha":685,"x_min":0,"x_max":0,"o":"m 639 0 l 639 103 l 208 103 l 208 926 l 93 926 l 93 0 z m 476 851 b 403 944 476 911 442 944 b 339 881 367 944 339 915 b 397 819 339 844 364 819 b 413 821 403 819 411 821 b 333 701 408 781 374 729 l 378 665 b 476 851 432 706 476 776 z "},"ľ":{"ha":404,"x_min":0,"x_max":0,"o":"m 208 0 l 208 926 l 104 926 l 104 0 z m 432 851 b 358 944 432 911 397 944 b 294 881 322 944 294 915 b 353 819 294 844 319 819 b 368 821 358 819 367 821 b 289 701 364 781 329 729 l 333 665 b 432 851 388 706 432 776 z "},"Ŀ":{"ha":711,"x_min":0,"x_max":0,"o":"m 639 0 l 639 103 l 208 103 l 208 926 l 93 926 l 93 0 z m 586 475 b 510 550 586 515 551 550 b 433 475 468 550 433 515 b 510 399 433 433 468 399 b 586 475 551 399 586 433 z "},"ŀ":{"ha":426,"x_min":0,"x_max":0,"o":"m 208 0 l 208 926 l 104 926 l 104 0 z m 446 340 b 369 415 446 381 411 415 b 293 340 328 415 293 381 b 369 264 293 299 328 264 b 446 340 411 264 446 299 z "},"Ń":{"ha":983,"x_min":0,"x_max":0,"o":"m 875 0 l 875 926 l 760 926 l 760 203 l 226 926 l 108 926 l 108 0 l 224 0 l 224 739 l 764 0 z m 714 1211 l 606 1211 l 400 1011 l 479 1011 z "},"ń":{"ha":767,"x_min":0,"x_max":0,"o":"m 665 0 l 665 471 b 453 688 665 617 592 688 b 213 574 351 688 260 631 l 213 671 l 108 671 l 108 0 l 213 0 l 213 490 b 411 594 253 544 329 594 b 563 439 501 594 563 558 l 563 0 z m 606 972 l 497 972 l 292 772 l 371 772 z "},"Ņ":{"ha":983,"x_min":0,"x_max":0,"o":"m 875 0 l 875 926 l 760 926 l 760 203 l 226 926 l 108 926 l 108 0 l 224 0 l 224 739 l 764 0 z m 571 -192 b 497 -99 571 -132 536 -99 b 433 -162 461 -99 433 -128 b 492 -224 433 -199 458 -224 b 507 -222 497 -224 506 -222 b 428 -342 503 -262 468 -314 l 472 -378 b 571 -192 526 -337 571 -267 z "},"ņ":{"ha":767,"x_min":0,"x_max":0,"o":"m 665 0 l 665 471 b 453 688 665 617 592 688 b 213 574 351 688 260 631 l 213 671 l 108 671 l 108 0 l 213 0 l 213 490 b 411 594 253 544 329 594 b 563 439 501 594 563 558 l 563 0 z m 463 -192 b 389 -99 463 -132 428 -99 b 325 -162 353 -99 325 -128 b 383 -224 325 -199 350 -224 b 399 -222 389 -224 397 -222 b 319 -342 394 -262 360 -314 l 364 -378 b 463 -192 418 -337 463 -267 z "},"Ň":{"ha":983,"x_min":0,"x_max":0,"o":"m 875 0 l 875 926 l 760 926 l 760 203 l 226 926 l 108 926 l 108 0 l 224 0 l 224 739 l 764 0 z m 543 1011 l 675 1211 l 604 1211 l 493 1064 l 378 1211 l 307 1211 l 443 1011 z "},"ň":{"ha":767,"x_min":0,"x_max":0,"o":"m 665 0 l 665 471 b 453 688 665 617 592 688 b 213 574 351 688 260 631 l 213 671 l 108 671 l 108 0 l 213 0 l 213 490 b 411 594 253 544 329 594 b 563 439 501 594 563 558 l 563 0 z m 435 772 l 567 972 l 496 972 l 385 825 l 269 972 l 199 972 l 335 772 z "},"ŉ":{"ha":767,"x_min":0,"x_max":0,"o":"m 665 0 l 665 471 b 453 688 665 617 592 688 b 213 574 351 688 260 631 l 213 671 l 108 671 l 108 0 l 213 0 l 213 490 b 411 594 253 544 329 594 b 563 439 501 594 563 558 l 563 0 z m 224 939 b 150 1032 224 999 189 1032 b 86 968 114 1032 86 1003 b 144 907 86 932 111 907 b 160 908 150 907 158 908 b 81 789 156 868 121 817 l 125 753 b 224 939 179 793 224 864 z "},"Ŋ":{"ha":983,"x_min":0,"x_max":0,"o":"m 581 -272 b 875 21 746 -272 875 -181 l 875 926 l 760 926 l 760 203 l 226 926 l 108 926 l 108 0 l 224 0 l 224 739 l 758 6 b 574 -169 753 -100 682 -169 b 400 -78 493 -169 439 -126 l 339 -165 b 581 -272 403 -240 483 -272 z "},"ŋ":{"ha":767,"x_min":0,"x_max":0,"o":"m 463 -272 b 661 -65 592 -272 661 -197 l 661 471 b 449 688 661 617 588 688 b 208 574 347 688 256 631 l 208 671 l 104 671 l 104 0 l 208 0 l 208 490 b 407 594 249 544 325 594 b 558 439 497 594 558 558 l 558 -65 b 449 -179 558 -143 511 -179 b 353 -137 407 -179 376 -161 l 317 -222 b 463 -272 360 -256 394 -272 z "},"Ō":{"ha":1063,"x_min":0,"x_max":0,"o":"m 531 -17 b 992 463 804 -17 992 189 b 531 942 992 736 804 942 b 71 463 257 942 71 736 b 531 -17 71 189 257 -17 z m 531 86 b 190 463 322 86 190 247 b 531 839 190 679 322 839 b 872 463 738 839 872 679 b 531 86 872 247 738 86 z m 782 1040 l 782 1107 l 278 1107 l 278 1040 z "},"ō":{"ha":794,"x_min":0,"x_max":0,"o":"m 397 -17 b 729 336 601 -17 729 142 b 397 688 729 531 601 688 b 65 336 193 688 65 531 b 397 -17 65 142 193 -17 z m 397 76 b 175 336 254 76 175 199 b 397 594 175 472 254 594 b 619 336 540 594 619 472 b 397 76 619 199 540 76 z m 649 803 l 649 869 l 144 869 l 144 803 z "},"Ŏ":{"ha":1063,"x_min":0,"x_max":0,"o":"m 531 -17 b 992 463 804 -17 992 189 b 531 942 992 736 804 942 b 71 463 257 942 71 736 b 531 -17 71 189 257 -17 z m 531 86 b 190 463 322 86 190 247 b 531 839 190 679 322 839 b 872 463 738 839 872 679 b 531 86 872 247 738 86 z m 774 1125 l 724 1169 b 531 1069 679 1107 611 1069 b 339 1169 449 1069 382 1108 l 286 1125 b 531 1003 343 1050 432 1003 b 774 1125 631 1003 718 1050 z "},"ŏ":{"ha":794,"x_min":0,"x_max":0,"o":"m 397 -17 b 729 336 601 -17 729 142 b 397 688 729 531 601 688 b 65 336 193 688 65 531 b 397 -17 65 142 193 -17 z m 397 76 b 175 336 254 76 175 199 b 397 594 175 472 254 594 b 619 336 540 594 619 472 b 397 76 619 199 540 76 z m 642 904 l 592 949 b 399 849 547 886 479 849 b 207 949 317 849 250 888 l 154 904 b 399 782 211 829 300 782 b 642 904 499 782 586 829 z "},"Ő":{"ha":1063,"x_min":0,"x_max":0,"o":"m 531 -17 b 992 463 804 -17 992 189 b 531 942 992 736 804 942 b 71 463 257 942 71 736 b 531 -17 71 189 257 -17 z m 531 86 b 190 463 322 86 190 247 b 531 839 190 679 322 839 b 872 463 738 839 872 679 b 531 86 872 247 738 86 z m 604 1211 l 508 1211 l 378 1011 l 444 1011 z m 801 1211 l 706 1211 l 575 1011 l 642 1011 z "},"ő":{"ha":794,"x_min":0,"x_max":0,"o":"m 397 -17 b 729 336 601 -17 729 142 b 397 688 729 531 601 688 b 65 336 193 688 65 531 b 397 -17 65 142 193 -17 z m 397 76 b 175 336 254 76 175 199 b 397 594 175 472 254 594 b 619 336 540 594 619 472 b 397 76 619 199 540 76 z m 471 972 l 375 972 l 244 772 l 311 772 z m 668 972 l 572 972 l 442 772 l 508 772 z "},"Ŕ":{"ha":846,"x_min":0,"x_max":0,"o":"m 781 0 l 531 378 b 772 647 657 389 772 481 b 481 926 772 818 650 926 l 108 926 l 108 0 l 224 0 l 224 368 l 410 368 l 644 0 z m 467 469 l 224 469 l 224 824 l 467 824 b 653 647 576 824 653 753 b 467 469 653 543 576 469 z m 646 1211 l 538 1211 l 332 1011 l 411 1011 z "},"ŕ":{"ha":458,"x_min":0,"x_max":0,"o":"m 208 0 l 208 475 b 392 582 239 529 326 582 b 432 579 407 582 419 581 l 432 686 b 208 564 340 686 263 633 l 208 671 l 104 671 l 104 0 z m 489 972 l 381 972 l 175 772 l 254 772 z "},"Ŗ":{"ha":846,"x_min":0,"x_max":0,"o":"m 781 0 l 531 378 b 772 647 657 389 772 481 b 481 926 772 818 650 926 l 108 926 l 108 0 l 224 0 l 224 368 l 410 368 l 644 0 z m 467 469 l 224 469 l 224 824 l 467 824 b 653 647 576 824 653 753 b 467 469 653 543 576 469 z m 503 -192 b 429 -99 503 -132 468 -99 b 365 -162 393 -99 365 -128 b 424 -224 365 -199 390 -224 b 439 -222 429 -224 438 -222 b 360 -342 435 -262 400 -314 l 404 -378 b 503 -192 458 -337 503 -267 z "},"ŗ":{"ha":458,"x_min":0,"x_max":0,"o":"m 208 0 l 208 475 b 392 582 239 529 326 582 b 432 579 407 582 419 581 l 432 686 b 208 564 340 686 263 633 l 208 671 l 104 671 l 104 0 z m 308 -192 b 235 -99 308 -132 274 -99 b 171 -162 199 -99 171 -128 b 229 -224 171 -199 196 -224 b 244 -222 235 -224 243 -222 b 165 -342 240 -262 206 -314 l 210 -378 b 308 -192 264 -337 308 -267 z "},"Ř":{"ha":846,"x_min":0,"x_max":0,"o":"m 781 0 l 531 378 b 772 647 657 389 772 481 b 481 926 772 818 650 926 l 108 926 l 108 0 l 224 0 l 224 368 l 410 368 l 644 0 z m 467 469 l 224 469 l 224 824 l 467 824 b 653 647 576 824 653 753 b 467 469 653 543 576 469 z m 476 1011 l 608 1211 l 538 1211 l 426 1064 l 311 1211 l 240 1211 l 376 1011 z "},"ř":{"ha":458,"x_min":0,"x_max":0,"o":"m 208 0 l 208 475 b 392 582 239 529 326 582 b 432 579 407 582 419 581 l 432 686 b 208 564 340 686 263 633 l 208 671 l 104 671 l 104 0 z m 318 772 l 450 972 l 379 972 l 268 825 l 153 972 l 82 972 l 218 772 z "},"Ś":{"ha":814,"x_min":0,"x_max":0,"o":"m 408 -17 b 750 256 658 -17 750 122 b 201 690 750 601 201 482 b 392 838 201 778 282 838 b 660 726 493 838 590 804 l 729 811 b 401 942 651 893 542 942 b 82 683 218 942 82 836 b 631 247 82 353 631 486 b 413 86 631 175 578 86 b 122 219 282 86 182 150 l 53 131 b 408 -17 129 44 249 -17 z m 628 1211 l 519 1211 l 314 1011 l 393 1011 z "},"ś":{"ha":646,"x_min":0,"x_max":0,"o":"m 318 -17 b 581 186 490 -17 581 74 b 165 497 581 447 165 351 b 314 603 165 557 222 603 b 514 518 401 603 474 567 l 563 590 b 314 688 510 644 429 688 b 65 494 154 688 65 600 b 481 183 65 246 481 346 b 321 68 481 117 424 68 b 100 164 229 68 144 113 l 47 89 b 318 -17 115 18 207 -17 z m 546 972 l 438 972 l 232 772 l 311 772 z "},"Ŝ":{"ha":814,"x_min":0,"x_max":0,"o":"m 581 1011 l 444 1211 l 344 1211 l 213 1011 l 283 1011 l 394 1158 l 510 1011 z m 408 -17 b 750 256 658 -17 750 122 b 201 690 750 601 201 482 b 392 838 201 778 282 838 b 660 726 493 838 590 804 l 729 811 b 401 942 651 893 542 942 b 82 683 218 942 82 836 b 631 247 82 353 631 486 b 413 86 631 175 578 86 b 122 219 282 86 182 150 l 53 131 b 408 -17 129 44 249 -17 z "},"ŝ":{"ha":646,"x_min":0,"x_max":0,"o":"m 318 -17 b 581 186 490 -17 581 74 b 165 497 581 447 165 351 b 314 603 165 557 222 603 b 514 518 401 603 474 567 l 563 590 b 314 688 510 644 429 688 b 65 494 154 688 65 600 b 481 183 65 246 481 346 b 321 68 481 117 424 68 b 100 164 229 68 144 113 l 47 89 b 318 -17 115 18 207 -17 z m 501 772 l 365 972 l 265 972 l 133 772 l 204 772 l 315 919 l 431 772 z "},"Ş":{"ha":814,"x_min":0,"x_max":0,"o":"m 400 -265 b 544 -154 481 -265 544 -222 b 453 -61 544 -97 506 -61 b 401 -76 435 -61 415 -65 l 425 -17 b 750 256 663 -10 750 125 b 201 690 750 601 201 482 b 392 838 201 778 282 838 b 660 726 493 838 590 804 l 729 811 b 401 942 651 893 542 942 b 82 683 218 942 82 836 b 631 247 82 353 631 486 b 413 86 631 175 578 86 b 122 219 282 86 182 150 l 53 131 b 364 -15 122 53 226 -4 l 332 -101 l 378 -128 b 431 -104 390 -112 411 -104 b 482 -153 465 -104 482 -124 b 397 -211 482 -190 443 -211 b 286 -171 360 -211 321 -199 l 260 -224 b 400 -265 288 -246 340 -265 z "},"ş":{"ha":646,"x_min":0,"x_max":0,"o":"m 317 -265 b 461 -154 397 -265 461 -222 b 369 -61 461 -97 422 -61 b 318 -76 351 -61 332 -65 l 342 -15 b 581 186 499 -8 581 79 b 165 497 581 447 165 351 b 314 603 165 557 222 603 b 514 518 401 603 474 567 l 563 590 b 314 688 510 644 429 688 b 65 494 154 688 65 600 b 481 183 65 246 481 346 b 321 68 481 117 424 68 b 100 164 229 68 144 113 l 47 89 b 281 -15 107 26 186 -8 l 249 -101 l 294 -128 b 347 -104 307 -112 328 -104 b 399 -153 382 -104 399 -124 b 314 -211 399 -190 360 -211 b 203 -171 276 -211 238 -199 l 176 -224 b 317 -265 204 -246 257 -265 z "},"Ţ":{"ha":792,"x_min":0,"x_max":0,"o":"m 453 0 l 453 824 l 747 824 l 747 926 l 44 926 l 44 824 l 338 824 l 338 0 z m 475 -192 b 401 -99 475 -132 440 -99 b 338 -162 365 -99 338 -128 b 396 -224 338 -199 363 -224 b 411 -222 401 -224 410 -222 b 332 -342 407 -262 372 -314 l 376 -378 b 475 -192 431 -337 475 -267 z "},"ţ":{"ha":408,"x_min":0,"x_max":0,"o":"m 275 -17 b 399 26 335 -17 372 1 l 368 106 b 297 76 354 90 328 76 b 231 163 253 76 231 113 l 231 579 l 367 579 l 367 671 l 231 671 l 231 854 l 125 854 l 125 671 l 14 671 l 14 579 l 125 579 l 125 140 b 275 -17 125 40 175 -17 z m 283 -192 b 210 -99 283 -132 249 -99 b 146 -162 174 -99 146 -128 b 204 -224 146 -199 171 -224 b 219 -222 210 -224 218 -222 b 140 -342 215 -262 181 -314 l 185 -378 b 283 -192 239 -337 283 -267 z "},"Ť":{"ha":792,"x_min":0,"x_max":0,"o":"m 453 0 l 453 824 l 747 824 l 747 926 l 44 926 l 44 824 l 338 824 l 338 0 z m 447 1011 l 579 1211 l 508 1211 l 397 1064 l 282 1211 l 211 1211 l 347 1011 z "},"ť":{"ha":435,"x_min":0,"x_max":0,"o":"m 275 -17 b 399 26 335 -17 372 1 l 368 106 b 297 76 354 90 328 76 b 231 163 253 76 231 113 l 231 579 l 367 579 l 367 671 l 231 671 l 231 854 l 125 854 l 125 671 l 14 671 l 14 579 l 125 579 l 125 140 b 275 -17 125 40 175 -17 z m 451 939 b 378 1032 451 999 417 1032 b 314 968 342 1032 314 1003 b 372 907 314 932 339 907 b 388 908 378 907 386 908 b 308 789 383 868 349 817 l 353 753 b 451 939 407 793 451 864 z "},"Ŧ":{"ha":792,"x_min":0,"x_max":0,"o":"m 453 0 l 453 408 l 664 408 l 664 475 l 453 475 l 453 824 l 747 824 l 747 926 l 44 926 l 44 824 l 338 824 l 338 475 l 129 475 l 129 408 l 338 408 l 338 0 z "},"ŧ":{"ha":408,"x_min":0,"x_max":0,"o":"m 326 315 l 326 382 l 231 382 l 231 579 l 367 579 l 367 671 l 231 671 l 231 854 l 125 854 l 125 671 l 14 671 l 14 579 l 125 579 l 125 382 l 14 382 l 14 315 l 125 315 l 125 140 b 275 -17 125 40 175 -17 b 399 26 335 -17 372 1 l 368 106 b 297 76 354 90 328 76 b 231 163 253 76 231 113 l 231 315 z "},"Ũ":{"ha":974,"x_min":0,"x_max":0,"o":"m 486 -17 b 865 361 738 -17 865 131 l 865 926 l 749 926 l 749 363 b 486 86 749 193 657 86 b 225 363 315 86 225 193 l 225 926 l 108 926 l 108 360 b 486 -17 108 132 236 -17 z m 572 1008 b 707 1194 660 1008 707 1086 l 644 1194 b 578 1075 644 1111 615 1075 b 407 1203 511 1075 507 1203 b 272 1017 319 1203 272 1125 l 335 1017 b 401 1136 335 1100 364 1136 b 572 1008 468 1136 472 1008 z "},"ũ":{"ha":765,"x_min":0,"x_max":0,"o":"m 661 0 l 661 671 l 557 671 l 557 178 b 360 76 518 124 440 76 b 208 229 268 76 208 111 l 208 671 l 104 671 l 104 197 b 318 -17 104 53 178 -17 b 557 94 418 -17 506 36 l 557 0 z m 465 769 b 600 956 553 769 600 847 l 538 956 b 471 836 538 872 508 836 b 300 964 404 836 400 964 b 165 778 213 964 165 886 l 228 778 b 294 897 228 861 257 897 b 465 769 361 897 365 769 z "},"Ū":{"ha":974,"x_min":0,"x_max":0,"o":"m 486 -17 b 865 361 738 -17 865 131 l 865 926 l 749 926 l 749 363 b 486 86 749 193 657 86 b 225 363 315 86 225 193 l 225 926 l 108 926 l 108 360 b 486 -17 108 132 236 -17 z m 739 1040 l 739 1107 l 235 1107 l 235 1040 z "},"ū":{"ha":765,"x_min":0,"x_max":0,"o":"m 661 0 l 661 671 l 557 671 l 557 178 b 360 76 518 124 440 76 b 208 229 268 76 208 111 l 208 671 l 104 671 l 104 197 b 318 -17 104 53 178 -17 b 557 94 418 -17 506 36 l 557 0 z m 635 803 l 635 869 l 131 869 l 131 803 z "},"Ŭ":{"ha":974,"x_min":0,"x_max":0,"o":"m 486 -17 b 865 361 738 -17 865 131 l 865 926 l 749 926 l 749 363 b 486 86 749 193 657 86 b 225 363 315 86 225 193 l 225 926 l 108 926 l 108 360 b 486 -17 108 132 236 -17 z m 735 1125 l 685 1169 b 492 1069 640 1107 572 1069 b 300 1169 410 1069 343 1108 l 247 1125 b 492 1003 304 1050 393 1003 b 735 1125 592 1003 679 1050 z "},"ŭ":{"ha":765,"x_min":0,"x_max":0,"o":"m 661 0 l 661 671 l 557 671 l 557 178 b 360 76 518 124 440 76 b 208 229 268 76 208 111 l 208 671 l 104 671 l 104 197 b 318 -17 104 53 178 -17 b 557 94 418 -17 506 36 l 557 0 z m 629 904 l 579 949 b 386 849 535 886 467 849 b 194 949 304 849 238 888 l 142 904 b 386 782 199 829 288 782 b 629 904 486 782 574 829 z "},"Ů":{"ha":974,"x_min":0,"x_max":0,"o":"m 486 -17 b 865 361 738 -17 865 131 l 865 926 l 749 926 l 749 363 b 486 86 749 193 657 86 b 225 363 315 86 225 193 l 225 926 l 108 926 l 108 360 b 486 -17 108 132 236 -17 z m 489 961 b 624 1099 564 961 624 1024 b 489 1236 624 1174 564 1236 b 351 1099 414 1236 351 1174 b 489 961 351 1024 414 961 z m 489 1017 b 407 1099 443 1017 407 1054 b 489 1181 407 1143 443 1181 b 569 1099 533 1181 569 1143 b 489 1017 569 1054 533 1017 z "},"ů":{"ha":765,"x_min":0,"x_max":0,"o":"m 661 0 l 661 671 l 557 671 l 557 178 b 360 76 518 124 440 76 b 208 229 268 76 208 111 l 208 671 l 104 671 l 104 197 b 318 -17 104 53 178 -17 b 557 94 418 -17 506 36 l 557 0 z m 383 767 b 518 904 458 767 518 829 b 383 1042 518 979 458 1042 b 246 904 308 1042 246 979 b 383 767 246 829 308 767 z m 383 822 b 301 904 338 822 301 860 b 383 986 301 949 338 986 b 464 904 428 986 464 949 b 383 822 464 860 428 822 z "},"Ű":{"ha":974,"x_min":0,"x_max":0,"o":"m 486 -17 b 865 361 738 -17 865 131 l 865 926 l 749 926 l 749 363 b 486 86 749 193 657 86 b 225 363 315 86 225 193 l 225 926 l 108 926 l 108 360 b 486 -17 108 132 236 -17 z m 561 1211 l 465 1211 l 335 1011 l 401 1011 z m 758 1211 l 663 1211 l 532 1011 l 599 1011 z "},"ű":{"ha":765,"x_min":0,"x_max":0,"o":"m 661 0 l 661 671 l 557 671 l 557 178 b 360 76 518 124 440 76 b 208 229 268 76 208 111 l 208 671 l 104 671 l 104 197 b 318 -17 104 53 178 -17 b 557 94 418 -17 506 36 l 557 0 z m 457 972 l 361 972 l 231 772 l 297 772 z m 654 972 l 558 972 l 428 772 l 494 772 z "},"Ų":{"ha":974,"x_min":0,"x_max":0,"o":"m 647 -146 b 576 -204 635 -183 614 -204 b 514 -135 539 -204 514 -182 b 619 0 514 -76 553 -33 b 865 361 782 44 865 175 l 865 926 l 749 926 l 749 363 b 486 86 749 193 657 86 b 225 363 315 86 225 193 l 225 926 l 108 926 l 108 360 b 486 -17 108 132 236 -17 l 506 -17 b 451 -137 472 -50 451 -92 b 576 -258 451 -222 511 -258 b 699 -175 642 -258 679 -219 z "},"ų":{"ha":765,"x_min":0,"x_max":0,"o":"m 689 -146 b 618 -204 676 -183 656 -204 b 556 -135 581 -204 556 -182 b 661 0 556 -76 594 -33 l 661 671 l 557 671 l 557 178 b 360 76 518 124 440 76 b 208 229 268 76 208 111 l 208 671 l 104 671 l 104 197 b 318 -17 104 53 178 -17 b 557 94 418 -17 506 36 l 557 0 l 567 0 b 493 -137 521 -36 493 -85 b 618 -258 493 -222 553 -258 b 740 -175 683 -258 721 -219 z "},"Ŵ":{"ha":1226,"x_min":0,"x_max":0,"o":"m 942 0 l 1207 926 l 1078 926 l 874 154 l 661 926 l 565 926 l 353 154 l 147 926 l 19 926 l 283 0 l 408 0 l 613 747 l 817 0 z m 797 1011 l 661 1211 l 561 1211 l 429 1011 l 500 1011 l 611 1158 l 726 1011 z "},"ŵ":{"ha":1019,"x_min":0,"x_max":0,"o":"m 790 0 l 1004 671 l 894 671 l 731 136 l 556 671 l 465 671 l 289 136 l 125 671 l 17 671 l 231 0 l 335 0 l 510 539 l 685 0 z m 694 772 l 558 972 l 458 972 l 326 772 l 397 772 l 508 919 l 624 772 z "},"Ŷ":{"ha":869,"x_min":0,"x_max":0,"o":"m 621 1011 l 485 1211 l 385 1211 l 253 1011 l 324 1011 l 435 1158 l 550 1011 z m 493 0 l 493 392 l 857 926 l 722 926 l 435 496 l 147 926 l 13 926 l 378 392 l 378 0 z "},"ŷ":{"ha":681,"x_min":0,"x_max":0,"o":"m 68 -262 b 143 -272 86 -268 121 -272 b 340 -136 232 -271 300 -233 l 676 671 l 564 671 l 340 121 l 118 671 l 4 671 l 285 -7 l 240 -108 b 140 -179 217 -164 186 -179 b 83 -168 124 -179 99 -175 z m 525 772 l 389 972 l 289 972 l 157 772 l 228 772 l 339 919 l 454 772 z "},"Ź":{"ha":813,"x_min":0,"x_max":0,"o":"m 746 0 l 746 103 l 214 103 l 736 831 l 736 926 l 67 926 l 67 824 l 588 824 l 67 96 l 67 0 z m 628 1211 l 519 1211 l 314 1011 l 393 1011 z "},"ź":{"ha":656,"x_min":0,"x_max":0,"o":"m 583 0 l 583 92 l 206 92 l 578 592 l 578 671 l 72 671 l 72 579 l 442 579 l 72 82 l 72 0 z m 549 972 l 440 972 l 235 772 l 314 772 z "},"Ż":{"ha":813,"x_min":0,"x_max":0,"o":"m 746 0 l 746 103 l 214 103 l 736 831 l 736 926 l 67 926 l 67 824 l 588 824 l 67 96 l 67 0 z m 403 1010 b 468 1075 439 1010 468 1039 b 403 1140 468 1111 439 1140 b 338 1075 368 1140 338 1111 b 403 1010 338 1039 368 1010 z "},"ż":{"ha":656,"x_min":0,"x_max":0,"o":"m 583 0 l 583 92 l 206 92 l 578 592 l 578 671 l 72 671 l 72 579 l 442 579 l 72 82 l 72 0 z m 326 796 b 392 861 363 796 392 825 b 326 926 392 897 363 926 b 261 861 292 926 261 897 b 326 796 261 825 292 796 z "},"ſ":{"ha":394,"x_min":0,"x_max":0,"o":"m 238 0 l 238 722 b 344 854 238 808 275 854 b 426 822 378 854 404 842 l 469 889 b 328 940 428 928 382 940 b 133 722 210 940 133 860 l 133 671 l 22 671 l 22 579 l 133 579 l 133 0 z "},"Ǽ":{"ha":1317,"x_min":0,"x_max":0,"o":"m 1240 0 l 1240 103 l 749 103 l 749 422 l 1231 422 l 1231 525 l 749 525 l 749 824 l 1240 824 l 1240 926 l 588 926 l 10 0 l 142 0 l 269 207 l 633 207 l 633 0 z m 633 308 l 325 308 l 633 808 z m 910 1211 l 801 1211 l 596 1011 l 675 1011 z "},"ǽ":{"ha":1235,"x_min":0,"x_max":0,"o":"m 1171 301 l 1171 328 b 853 688 1171 529 1051 688 b 596 540 725 688 642 621 b 368 688 574 638 493 688 b 100 576 258 688 172 651 l 149 504 b 354 597 208 569 274 597 b 524 457 451 597 524 546 l 524 338 b 301 426 468 399 392 426 b 68 206 181 426 68 351 b 307 -17 68 60 189 -17 b 583 122 449 -17 536 56 b 861 -17 640 43 731 -17 b 1128 88 969 -17 1060 21 l 1078 157 b 869 72 1024 101 947 72 b 629 301 725 72 638 175 z m 628 379 b 847 601 633 481 704 601 b 1068 379 1000 601 1067 478 z m 544 176 b 340 58 494 86 413 58 b 174 206 242 58 174 119 b 340 351 174 290 242 351 b 524 267 413 351 483 322 b 544 176 524 235 536 196 z m 817 972 l 708 972 l 503 772 l 582 772 z "},"Ǿ":{"ha":1063,"x_min":0,"x_max":0,"o":"m 756 1211 l 647 1211 l 442 1011 l 521 1011 z m 531 -17 b 992 463 804 -17 992 189 b 826 839 992 618 929 753 l 885 926 l 792 926 l 763 883 b 531 942 696 921 618 942 b 71 463 257 942 71 736 b 229 90 71 308 129 176 l 168 0 l 261 0 l 292 46 b 531 -17 360 6 440 -17 z m 531 86 b 351 135 461 86 401 103 l 764 747 b 872 463 833 679 872 579 b 531 86 872 247 738 86 z m 190 463 b 531 839 190 679 322 839 b 703 794 596 839 654 822 l 292 183 b 190 463 226 251 190 349 z "},"ǿ":{"ha":794,"x_min":0,"x_max":0,"o":"m 619 972 l 511 972 l 306 772 l 385 772 z m 164 0 l 200 46 b 397 -17 253 6 319 -17 b 729 336 601 -17 729 142 b 633 592 729 436 694 528 l 696 671 l 619 671 l 588 631 b 397 688 536 667 471 688 b 65 336 193 688 65 531 b 156 85 65 238 97 149 l 89 0 z m 397 76 b 261 124 342 76 297 93 l 567 508 b 619 336 601 463 619 400 b 397 76 619 199 540 76 z m 175 336 b 397 594 175 472 254 594 b 525 553 449 594 492 579 l 222 168 b 175 336 190 214 175 274 z "},"Ș":{"ha":824,"x_min":0,"x_max":0,"o":"m 415 -17 b 757 256 665 -17 757 122 b 208 690 757 601 208 482 b 399 838 208 778 289 838 b 667 726 500 838 597 804 l 736 811 b 408 942 658 893 549 942 b 89 683 225 942 89 836 b 638 247 89 353 638 486 b 419 86 638 175 585 86 b 129 219 289 86 189 150 l 60 131 b 415 -17 136 44 256 -17 z m 486 -192 b 413 -99 486 -132 451 -99 b 349 -162 376 -99 349 -128 b 407 -224 349 -199 374 -224 b 422 -222 413 -224 421 -222 b 343 -342 418 -262 383 -314 l 388 -378 b 486 -192 442 -337 486 -267 z "},"ș":{"ha":650,"x_min":0,"x_max":0,"o":"m 318 -17 b 581 186 490 -17 581 74 b 165 497 581 447 165 351 b 314 603 165 557 222 603 b 514 518 401 603 474 567 l 563 590 b 314 688 510 644 429 688 b 65 494 154 688 65 600 b 481 183 65 246 481 346 b 321 68 481 117 424 68 b 100 164 229 68 144 113 l 47 89 b 318 -17 115 18 207 -17 z m 404 -192 b 331 -99 404 -132 369 -99 b 267 -162 294 -99 267 -128 b 325 -224 267 -199 292 -224 b 340 -222 331 -224 339 -222 b 261 -342 336 -262 301 -314 l 306 -378 b 404 -192 360 -337 404 -267 z "},"ʰ":{"ha":553,"x_min":0,"x_max":0,"o":"m 469 453 l 469 753 b 324 900 469 853 419 900 b 164 828 254 900 194 863 l 164 1056 l 83 1056 l 83 453 l 164 453 l 164 769 b 290 833 189 801 238 833 b 389 733 350 833 389 811 l 389 453 z "},"₣":{"ha":779,"x_min":0,"x_max":0,"o":"m 238 0 l 238 190 l 518 190 l 518 257 l 238 257 l 238 422 l 719 422 l 719 525 l 238 525 l 238 824 l 729 824 l 729 926 l 122 926 l 122 257 l 14 257 l 14 190 l 122 190 l 122 0 z "},"₤":{"ha":719,"x_min":0,"x_max":0,"o":"m 28 456 l 167 456 b 235 358 193 424 219 394 l 28 358 l 28 294 l 249 294 l 249 289 b 65 78 249 206 183 129 l 106 -10 b 269 46 164 21 222 46 b 518 -18 374 46 393 -18 b 706 47 606 -18 667 10 l 656 140 b 524 85 638 115 585 85 b 318 142 446 85 407 142 b 246 129 293 142 267 136 b 350 294 299 167 344 219 l 511 294 l 511 358 l 346 358 b 297 456 338 396 318 426 l 511 456 l 511 519 l 246 519 b 192 665 215 558 192 603 b 389 843 192 776 283 843 b 565 729 474 843 542 789 l 658 785 b 378 940 607 883 504 940 b 67 667 210 940 67 821 b 115 519 67 604 88 558 l 28 519 z "},"₦":{"ha":1013,"x_min":0,"x_max":0,"o":"m 889 0 l 889 336 l 997 336 l 997 403 l 889 403 l 889 533 l 997 533 l 997 600 l 889 600 l 889 926 l 774 926 l 774 600 l 481 600 l 240 926 l 122 926 l 122 600 l 14 600 l 14 533 l 122 533 l 122 403 l 14 403 l 14 336 l 122 336 l 122 0 l 238 0 l 238 336 l 532 336 l 778 0 z m 238 533 l 388 533 l 483 403 l 238 403 z m 529 533 l 774 533 l 774 403 l 626 403 z m 238 739 l 339 600 l 238 600 z m 675 336 l 774 336 l 774 203 z "},"₧":{"ha":889,"x_min":0,"x_max":0,"o":"m 882 613 l 882 685 l 782 685 b 494 926 767 818 664 926 l 122 926 l 122 685 l 14 685 l 14 613 l 122 613 l 122 0 l 238 0 l 238 368 l 494 368 b 782 613 664 368 767 476 z m 481 471 l 238 471 l 238 613 l 663 613 b 481 471 647 526 578 471 z m 238 824 l 481 824 b 661 685 576 824 646 768 l 238 685 z "},"₨":{"ha":1415,"x_min":0,"x_max":0,"o":"m 781 0 l 531 378 b 772 647 657 389 772 481 b 481 926 772 818 650 926 l 108 926 l 108 0 l 224 0 l 224 368 l 410 368 l 644 0 z m 467 469 l 224 469 l 224 824 l 467 824 b 653 647 576 824 653 753 b 467 469 653 543 576 469 z m 1088 -17 b 1350 186 1260 -17 1350 74 b 935 497 1350 447 935 351 b 1083 603 935 557 992 603 b 1283 518 1171 603 1243 567 l 1332 590 b 1083 688 1279 644 1199 688 b 835 494 924 688 835 600 b 1250 183 835 246 1250 346 b 1090 68 1250 117 1193 68 b 869 164 999 68 914 113 l 817 89 b 1088 -17 885 18 976 -17 z "},"₩":{"ha":1226,"x_min":0,"x_max":0,"o":"m 942 0 l 1038 336 l 1197 336 l 1197 403 l 1057 403 l 1094 533 l 1197 533 l 1197 600 l 1113 600 l 1207 926 l 1078 926 l 990 600 l 750 600 l 661 926 l 565 926 l 475 600 l 233 600 l 147 926 l 19 926 l 113 600 l 28 600 l 28 533 l 131 533 l 168 403 l 28 403 l 28 336 l 188 336 l 283 0 l 408 0 l 500 336 l 724 336 l 817 0 z m 251 533 l 457 533 l 421 403 l 286 403 z m 768 533 l 974 533 l 939 403 l 804 403 z m 554 533 l 671 533 l 706 403 l 518 403 z m 304 336 l 403 336 l 353 154 z m 824 336 l 921 336 l 874 154 z m 613 747 l 653 600 l 572 600 z "},"₪":{"ha":1140,"x_min":0,"x_max":0,"o":"m 449 764 l 104 764 l 104 0 l 206 0 l 206 672 l 449 672 b 660 463 593 672 660 601 l 660 225 l 761 225 l 761 469 b 449 764 761 658 667 764 z m 724 0 b 1036 294 942 0 1036 106 l 1036 764 l 935 764 l 935 301 b 724 92 935 163 868 92 l 481 92 l 481 538 l 379 538 l 379 0 z "},"ℓ":{"ha":660,"x_min":0,"x_max":0,"o":"m 106 701 b 369 940 106 835 213 940 b 614 765 507 940 614 867 b 446 549 614 674 533 608 l 210 390 l 210 156 b 276 68 210 106 231 68 b 347 97 303 68 328 79 l 378 26 b 254 -17 347 -4 303 -17 b 106 140 167 -17 106 28 z m 407 626 b 514 761 474 672 514 707 b 368 863 514 824 442 863 b 210 700 279 863 210 801 l 210 494 z "},"№":{"ha":1546,"x_min":0,"x_max":0,"o":"m 875 0 l 875 926 l 760 926 l 760 203 l 226 926 l 108 926 l 108 0 l 224 0 l 224 739 l 764 0 z m 1264 486 b 1490 715 1404 486 1490 590 b 1264 944 1490 842 1404 944 b 1039 715 1126 944 1039 842 b 1264 486 1039 590 1126 486 z m 1264 553 b 1122 715 1174 553 1122 625 b 1264 876 1122 806 1174 876 b 1408 715 1356 876 1408 806 b 1264 553 1408 625 1356 553 z "},"℗":{"ha":1081,"x_min":0,"x_max":0,"o":"m 1019 464 b 540 943 1019 728 804 943 b 61 464 276 943 61 728 b 540 -15 61 200 276 -15 b 1019 464 804 -15 1019 200 z m 976 464 b 540 28 976 225 779 28 b 104 464 301 28 104 225 b 540 900 104 703 301 900 b 976 464 779 900 976 703 z m 764 582 b 589 744 764 685 682 744 l 382 744 l 382 182 l 433 182 l 433 424 l 589 424 b 764 582 683 424 764 483 z m 711 582 b 589 471 711 514 660 471 l 433 471 l 433 696 l 589 696 b 711 582 660 696 711 653 z "},"℠":{"ha":661,"x_min":0,"x_max":0,"o":"m 610 621 l 610 926 l 550 926 l 461 704 l 372 926 l 313 926 l 313 621 l 351 621 l 351 874 l 456 621 l 467 621 l 571 874 l 571 621 z m 261 703 b 72 851 261 821 72 778 b 139 901 72 881 100 901 b 226 864 174 901 206 889 l 251 890 b 138 935 228 918 192 935 b 26 847 74 935 26 899 b 215 699 26 735 215 781 b 139 644 215 668 192 644 b 46 689 100 644 67 665 l 21 660 b 140 610 46 631 86 610 b 261 703 219 610 261 646 z "},"℮":{"ha":1169,"x_min":0,"x_max":0,"o":"m 1126 450 l 1126 463 b 585 950 1126 732 883 950 b 43 463 286 950 43 732 b 585 -25 43 193 286 -25 b 1014 164 760 -25 915 49 l 935 164 b 588 4 850 65 728 4 b 254 147 457 4 338 60 b 242 179 246 156 242 167 l 242 443 b 249 450 242 447 244 450 z m 928 485 b 922 476 928 481 926 476 l 249 476 b 242 485 244 476 242 481 l 242 746 b 256 779 242 758 247 771 b 588 921 339 865 457 921 b 914 783 715 921 831 868 b 928 750 922 775 928 763 z "},"←":{"ha":808,"x_min":0,"x_max":0,"o":"m 747 293 l 747 501 l 374 501 l 390 681 l 0 397 l 390 113 l 374 293 z "},"↑":{"ha":808,"x_min":0,"x_max":0,"o":"m 300 24 l 508 24 l 508 397 l 688 381 l 404 771 l 119 381 l 300 397 z "},"→":{"ha":808,"x_min":0,"x_max":0,"o":"m 811 397 l 421 681 l 438 501 l 65 501 l 65 293 l 438 293 l 421 113 z "},"↓":{"ha":808,"x_min":0,"x_max":0,"o":"m 508 771 l 300 771 l 300 397 l 121 414 l 404 24 l 689 414 l 508 397 z "},"⊲":{"ha":815,"x_min":0,"x_max":0,"o":"m 818 397 l 75 826 l 75 -32 z "},"⊳":{"ha":815,"x_min":0,"x_max":0,"o":"m 743 826 l 0 397 l 743 -32 z "},"■":{"ha":918,"x_min":0,"x_max":0,"o":"m 858 0 l 858 794 l 65 794 l 65 0 z "},"▲":{"ha":856,"x_min":0,"x_max":0,"o":"m 857 40 l 426 785 l -3 42 z "},"▼":{"ha":856,"x_min":0,"x_max":0,"o":"m 857 708 l -3 708 l 426 -35 z "},"●":{"ha":965,"x_min":0,"x_max":0,"o":"m 894 396 b 482 808 894 624 710 808 b 69 396 254 808 69 624 b 482 -17 69 168 254 -17 b 894 396 710 -17 894 168 z "},"★":{"ha":1054,"x_min":0,"x_max":0,"o":"m 1054 585 l 651 585 l 526 968 l 403 585 l 0 585 l 325 347 l 201 -35 l 526 201 l 853 -35 l 728 347 z "},"☐":{"ha":918,"x_min":0,"x_max":0,"o":"m 856 0 l 856 794 l 63 794 l 63 0 z m 776 74 l 142 74 l 142 722 l 776 722 z "},"☑":{"ha":918,"x_min":0,"x_max":0,"o":"m 940 969 l 876 1011 l 760 794 l 63 794 l 63 0 l 856 0 l 856 794 l 844 794 z m 776 74 l 142 74 l 142 722 l 721 722 l 472 261 l 261 522 l 203 468 l 483 126 l 776 667 z "},"♦":{"ha":696,"x_min":0,"x_max":0,"o":"m 696 396 l 347 744 l 0 396 l 347 49 z "},"✓":{"ha":738,"x_min":0,"x_max":0,"o":"m 738 969 l 674 1011 l 269 261 l 58 522 l 0 468 l 281 126 z "},"":{"ha":1100,"x_min":0,"x_max":0,"o":"m 238 0 l 238 579 l 374 579 l 374 671 l 238 671 l 238 722 b 344 854 238 808 275 854 b 426 822 378 854 404 842 l 469 889 b 328 940 428 928 382 940 b 133 722 210 940 133 860 l 133 671 l 22 671 l 22 579 l 133 579 l 133 0 z m 632 0 l 632 579 l 768 579 l 768 671 l 632 671 l 632 722 b 739 854 632 808 669 854 b 799 839 764 854 782 849 l 825 918 b 722 940 797 933 763 940 b 528 722 607 940 528 861 l 528 671 l 417 671 l 417 579 l 528 579 l 528 0 z m 944 767 b 1014 836 983 767 1014 797 b 944 907 1014 875 983 907 b 874 836 906 907 874 875 b 944 767 874 797 906 767 z m 797 -272 b 996 -65 926 -272 996 -197 l 996 671 l 892 671 l 892 -65 b 783 -186 892 -150 846 -186 b 688 -144 742 -186 711 -168 l 651 -222 b 797 -272 693 -256 729 -272 z "},"":{"ha":707,"x_min":0,"x_max":0,"o":"m 238 0 l 238 579 l 374 579 l 374 671 l 238 671 l 238 722 b 344 854 238 808 275 854 b 404 839 369 854 388 849 l 431 918 b 328 940 403 933 368 940 b 133 722 213 940 133 861 l 133 671 l 22 671 l 22 579 l 133 579 l 133 0 z m 551 767 b 621 836 590 767 621 797 b 551 907 621 875 590 907 b 481 836 513 907 481 875 b 551 767 481 797 513 767 z m 404 -272 b 603 -65 533 -272 603 -197 l 603 671 l 499 671 l 499 -65 b 390 -186 499 -150 453 -186 b 294 -144 349 -186 318 -168 l 258 -222 b 404 -272 300 -256 336 -272 z "},"":{"ha":1219,"x_min":0,"x_max":0,"o":"m 400 590 b 217 781 400 697 326 781 b 36 590 110 781 36 697 b 217 401 36 483 110 401 b 400 590 326 401 400 483 z m 786 174 b 604 364 786 282 711 364 b 422 174 497 364 422 282 b 604 -15 422 67 497 -15 b 786 174 711 -15 786 67 z m 714 764 l 639 764 l 108 0 l 181 0 z m 328 590 b 217 463 328 518 283 463 b 107 590 153 463 107 518 b 217 719 107 663 153 719 b 328 590 283 719 328 663 z m 715 174 b 604 46 715 103 671 46 b 493 174 538 46 493 103 b 604 303 493 247 538 303 b 715 174 671 303 715 247 z m 1183 174 b 1001 364 1183 282 1110 364 b 821 174 894 364 821 282 b 1001 -15 821 72 894 -15 b 1183 174 1110 -15 1183 67 z m 1113 174 b 1001 46 1113 103 1068 46 b 892 174 936 46 892 103 b 1001 303 892 247 936 303 b 1113 174 1068 303 1113 247 z "},"":{"ha":850,"x_min":0,"x_max":0,"o":"m 425 -17 b 779 463 678 -17 779 238 b 683 806 779 583 750 713 l 758 926 l 668 926 l 629 865 b 425 940 576 911 510 940 b 71 463 171 940 71 689 b 165 119 71 342 99 213 l 90 0 l 181 0 l 218 60 b 425 -17 271 13 339 -17 z m 425 86 b 276 153 361 86 313 111 l 618 700 b 661 463 649 632 661 547 b 425 86 661 278 601 86 z m 189 463 b 425 838 189 647 249 838 b 572 772 488 838 536 813 l 231 225 b 189 463 201 293 189 378 z "},"":{"ha":831,"x_min":0,"x_max":0,"o":"m 415 -17 b 769 463 668 -17 769 238 b 415 940 769 689 668 940 b 61 463 161 940 61 689 b 415 -17 61 238 161 -17 z m 415 86 b 179 463 239 86 179 278 b 415 838 179 647 239 838 b 651 463 592 838 651 647 b 415 86 651 278 592 86 z "},"":{"ha":831,"x_min":0,"x_max":0,"o":"m 732 0 l 732 103 l 278 103 b 728 668 536 307 728 479 b 417 940 728 853 571 940 b 94 794 286 940 165 889 l 165 721 b 417 838 219 790 306 838 b 611 668 513 838 611 788 b 96 93 611 508 429 354 l 96 0 z "},"":{"ha":831,"x_min":0,"x_max":0,"o":"m 414 -17 b 743 250 618 -17 743 96 b 529 479 743 400 613 471 b 728 694 615 493 728 560 b 415 940 728 850 593 940 b 97 797 271 940 164 879 l 161 725 b 406 838 229 799 304 838 b 613 679 518 838 613 782 b 397 526 613 572 514 526 b 301 528 360 526 317 526 l 301 422 b 397 424 315 424 358 424 b 628 260 533 424 628 375 b 411 86 628 154 546 86 b 153 208 301 86 207 136 l 85 136 b 414 -17 142 53 257 -17 z "},"":{"ha":831,"x_min":0,"x_max":0,"o":"m 626 0 l 626 235 l 757 235 l 757 336 l 626 336 l 626 926 l 468 926 l 71 331 l 71 235 l 511 235 l 511 0 z m 511 336 l 186 336 l 511 819 z "},"":{"ha":831,"x_min":0,"x_max":0,"o":"m 424 -17 b 754 289 610 -17 754 101 b 458 585 754 481 614 585 b 242 501 365 585 288 546 l 242 824 l 693 824 l 693 926 l 126 926 l 126 428 l 211 399 b 425 485 274 458 344 485 b 638 285 550 485 638 407 b 424 86 638 172 550 86 b 168 210 311 86 229 131 l 97 132 b 424 -17 167 40 268 -17 z "},"":{"ha":831,"x_min":0,"x_max":0,"o":"m 439 -17 b 763 286 640 -17 763 126 b 460 582 763 483 626 582 b 197 438 340 582 238 501 b 197 474 197 450 197 461 b 458 838 197 656 278 838 b 656 743 554 838 608 799 l 714 829 b 458 940 657 896 576 940 b 81 463 197 940 81 713 b 439 -17 81 210 179 -17 z m 433 86 b 201 344 272 86 211 229 b 433 482 251 425 340 482 b 646 282 551 482 646 418 b 433 86 646 194 576 86 z "},"":{"ha":831,"x_min":0,"x_max":0,"o":"m 353 0 l 732 847 l 732 926 l 100 926 l 100 824 l 599 824 l 225 0 z "},"":{"ha":831,"x_min":0,"x_max":0,"o":"m 415 -17 b 747 235 597 -17 747 78 b 526 478 747 358 642 443 b 733 700 633 508 733 579 b 415 940 733 867 568 940 b 99 700 261 940 99 867 b 304 478 99 579 197 508 b 83 235 189 443 83 358 b 415 -17 83 76 232 -17 z m 415 525 b 215 685 360 535 215 572 b 415 838 215 781 303 838 b 617 685 526 838 617 781 b 415 525 617 572 472 535 z m 415 86 b 200 247 300 86 200 147 b 415 426 200 368 358 419 b 631 247 472 419 631 368 b 415 86 631 147 529 86 z "},"":{"ha":831,"x_min":0,"x_max":0,"o":"m 375 -15 b 753 463 635 -15 753 213 b 394 942 753 715 653 942 b 69 639 192 942 69 799 b 374 343 69 442 207 343 b 635 488 492 343 594 424 b 636 451 636 475 636 463 b 375 88 636 275 563 88 b 176 182 279 88 224 126 l 118 96 b 375 -15 176 31 257 -15 z m 400 443 b 186 643 281 443 186 507 b 399 839 186 732 257 839 b 632 582 560 839 621 696 b 400 443 582 500 492 443 z "},"":{"ha":822,"x_min":0,"x_max":0,"o":"m 400 590 b 217 781 400 697 326 781 b 36 590 110 781 36 697 b 217 401 36 483 110 401 b 400 590 326 401 400 483 z m 786 174 b 604 364 786 282 711 364 b 422 174 497 364 422 282 b 604 -15 422 67 497 -15 b 786 174 711 -15 786 67 z m 714 764 l 639 764 l 108 0 l 181 0 z m 328 590 b 217 463 328 518 283 463 b 107 590 153 463 107 518 b 217 719 107 663 153 719 b 328 590 283 719 328 663 z m 715 174 b 604 46 715 103 671 46 b 493 174 538 46 493 101 b 604 303 493 247 538 303 b 715 174 671 303 715 247 z "},"":{"ha":831,"x_min":0,"x_max":0,"o":"m 769 382 b 415 781 769 582 663 781 b 61 382 168 781 61 582 b 415 -17 61 183 168 -17 b 769 382 663 -17 769 183 z m 651 382 b 415 86 651 233 582 86 b 179 382 249 86 179 233 b 415 678 179 531 249 678 b 651 382 583 678 651 531 z "},"":{"ha":831,"x_min":0,"x_max":0,"o":"m 550 0 l 550 764 l 449 764 l 217 525 l 286 454 l 435 613 l 435 0 z "},"":{"ha":831,"x_min":0,"x_max":0,"o":"m 708 0 l 708 103 l 322 103 b 724 531 547 200 724 363 b 421 781 724 683 593 781 b 89 635 290 781 161 729 l 160 561 b 418 678 215 633 310 678 b 607 515 522 678 607 611 b 110 93 607 382 454 233 l 110 0 z "},"":{"ha":831,"x_min":0,"x_max":0,"o":"m 414 -186 b 743 81 618 -186 743 -74 b 529 310 743 231 613 301 b 728 525 615 324 728 390 b 415 771 728 681 593 771 b 97 628 271 771 164 710 l 161 556 b 406 668 229 629 304 668 b 613 510 518 668 613 613 b 397 357 613 403 514 357 b 301 358 360 357 317 357 l 301 253 b 397 254 315 254 358 254 b 628 90 533 254 628 206 b 411 -83 628 -15 546 -83 b 153 39 301 -83 207 -33 l 85 -33 b 414 -186 142 -117 257 -186 z "},"":{"ha":831,"x_min":0,"x_max":0,"o":"m 757 76 l 757 178 l 626 178 l 626 764 l 468 764 l 71 172 l 71 76 l 511 76 l 511 -162 l 626 -162 l 626 76 z m 511 178 l 186 178 l 511 657 z "},"":{"ha":831,"x_min":0,"x_max":0,"o":"m 424 -179 b 754 126 610 -179 754 -61 b 458 422 754 318 614 422 b 242 339 365 422 288 383 l 242 661 l 693 661 l 693 764 l 126 764 l 126 265 l 211 236 b 425 322 274 296 344 322 b 638 122 550 322 638 244 b 424 -76 638 10 550 -76 b 168 47 311 -76 229 -32 l 97 -31 b 424 -179 167 -122 268 -179 z "},"":{"ha":831,"x_min":0,"x_max":0,"o":"m 439 -17 b 763 286 640 -17 763 126 b 460 582 763 483 626 582 b 197 438 340 582 238 501 b 197 474 197 450 197 461 b 458 838 197 656 278 838 b 656 743 554 838 608 799 l 714 829 b 458 940 657 896 576 940 b 81 463 197 940 81 713 b 439 -17 81 210 179 -17 z m 433 86 b 201 344 272 86 211 229 b 433 482 251 425 340 482 b 646 282 551 482 646 418 b 433 86 646 194 576 86 z "},"":{"ha":831,"x_min":0,"x_max":0,"o":"m 353 -162 l 732 685 l 732 764 l 100 764 l 100 661 l 599 661 l 225 -162 z "},"":{"ha":831,"x_min":0,"x_max":0,"o":"m 415 -17 b 747 235 597 -17 747 78 b 526 478 747 358 642 443 b 733 700 633 508 733 579 b 415 940 733 867 568 940 b 99 700 261 940 99 867 b 304 478 99 579 197 508 b 83 235 189 443 83 358 b 415 -17 83 76 232 -17 z m 415 525 b 215 685 360 535 215 572 b 415 838 215 781 303 838 b 617 685 526 838 617 781 b 415 525 617 572 472 535 z m 415 86 b 200 247 300 86 200 147 b 415 426 200 368 358 419 b 631 247 472 419 631 368 b 415 86 631 147 529 86 z "},"":{"ha":831,"x_min":0,"x_max":0,"o":"m 375 -176 b 753 301 635 -176 753 51 b 394 781 753 554 653 781 b 69 478 192 781 69 638 b 374 182 69 281 207 182 b 635 326 492 182 594 263 b 636 290 636 314 636 301 b 375 -74 636 114 563 -74 b 176 21 279 -74 224 -35 l 118 -65 b 375 -176 176 -131 257 -176 z m 400 282 b 186 482 281 282 186 346 b 399 678 186 571 257 678 b 632 421 560 678 621 535 b 400 282 582 339 492 282 z "},"":{"ha":808,"x_min":0,"x_max":0,"o":"m 340 -74 l 400 -74 l 419 -14 b 474 -17 438 -15 456 -17 b 778 140 610 -17 710 47 l 689 189 b 474 79 646 124 563 79 l 451 79 l 636 629 b 689 575 657 614 675 596 l 776 624 b 669 726 747 664 711 700 l 706 832 l 646 832 l 618 753 b 538 775 593 763 567 771 l 557 832 l 497 832 l 479 781 l 474 781 b 65 383 242 781 65 618 b 235 53 65 239 131 122 l 192 -74 l 251 -74 l 285 24 b 364 -3 310 13 336 3 z m 176 383 b 447 683 176 550 292 671 l 269 157 b 176 383 211 211 176 290 z m 317 121 l 506 682 b 588 660 535 679 563 671 l 394 89 b 317 121 367 96 340 107 z "},"":{"ha":847,"x_min":0,"x_max":0,"o":"m 569 432 l 569 499 l 236 499 b 513 685 279 611 383 685 b 728 575 601 685 682 642 l 815 624 b 513 781 750 717 649 781 b 119 499 321 781 167 669 l 43 499 l 43 432 l 107 432 b 104 383 106 415 104 400 b 107 331 104 365 104 347 l 43 331 l 43 264 l 119 264 b 513 -17 168 93 322 -17 b 817 140 649 -17 749 47 l 728 189 b 513 79 685 124 601 79 b 238 264 385 79 281 151 l 569 264 l 569 331 l 218 331 b 215 383 215 347 215 365 b 218 432 215 400 217 415 z "},"":{"ha":510,"x_min":0,"x_max":0,"o":"m 147 -165 l 251 299 l 417 299 l 417 378 l 269 378 l 308 551 b 419 676 325 622 354 676 b 478 651 444 676 464 669 l 524 735 b 404 779 489 768 447 779 b 193 565 290 779 224 703 l 151 378 l 65 378 l 65 299 l 135 299 l 32 -165 z "},"":{"ha":689,"x_min":0,"x_max":0,"o":"m 660 547 l 539 547 l 614 764 l 535 764 l 460 547 l 336 547 l 410 764 l 331 764 l 257 547 l 135 547 l 115 482 l 236 482 l 171 286 l 51 286 l 31 221 l 147 221 l 74 0 l 153 0 l 226 221 l 351 221 l 278 0 l 357 0 l 431 221 l 556 221 l 576 286 l 453 286 l 518 482 l 640 482 z m 438 482 l 374 286 l 249 286 l 315 482 z "},"":{"ha":590,"x_min":0,"x_max":0,"o":"m 19 311 l 165 311 b 196 221 183 282 196 253 b 49 64 196 163 147 107 l 86 -11 b 217 32 131 11 181 32 b 418 -15 307 32 318 -15 b 579 39 489 -15 547 8 l 532 117 b 424 74 513 92 468 74 b 246 113 363 74 321 113 b 215 108 233 113 224 111 b 289 240 257 135 289 185 b 272 311 289 265 282 289 l 421 311 l 421 378 l 233 378 b 158 551 197 431 158 483 b 315 699 158 642 231 699 b 457 610 378 699 431 667 l 539 654 b 307 779 497 733 408 779 b 51 551 165 779 51 682 b 118 378 51 481 83 426 l 19 378 z "},"":{"ha":760,"x_min":0,"x_max":0,"o":"m 436 0 l 436 157 l 725 157 l 725 224 l 436 224 l 436 322 l 725 322 l 725 388 l 482 388 l 750 764 l 625 764 l 383 417 l 136 764 l 10 764 l 282 388 l 33 388 l 33 322 l 328 322 l 328 224 l 33 224 l 33 157 l 328 157 l 328 0 z "},"":{"ha":808,"x_min":0,"x_max":0,"o":"m 429 -128 l 511 -128 l 511 -14 b 778 140 628 -4 715 56 l 689 189 b 511 82 651 132 585 92 l 511 682 b 689 575 585 671 649 632 l 776 624 b 511 778 717 707 628 768 l 511 860 l 429 860 l 429 778 b 65 383 219 758 65 603 b 429 -14 65 163 219 4 z m 176 383 b 429 682 176 543 283 661 l 429 82 b 176 383 283 101 176 222 z "},"":{"ha":539,"x_min":0,"x_max":0,"o":"m 494 278 b 269 564 494 415 428 564 b 46 278 110 564 46 415 b 269 -10 46 140 110 -10 b 494 278 428 -10 494 140 z m 408 278 b 269 58 408 164 371 58 b 131 278 168 58 131 164 b 269 496 131 392 167 496 b 408 278 371 496 408 392 z "},"":{"ha":326,"x_min":0,"x_max":0,"o":"m 243 0 l 243 556 l 169 556 l 19 403 l 68 351 l 160 447 l 160 0 z "},"":{"ha":539,"x_min":0,"x_max":0,"o":"m 474 0 l 474 68 l 192 68 b 471 400 356 188 471 289 b 272 564 471 514 374 564 b 68 476 194 564 114 535 l 114 424 b 269 496 143 463 201 496 b 388 394 329 496 388 465 b 69 63 388 304 282 215 l 69 0 z "},"":{"ha":539,"x_min":0,"x_max":0,"o":"m 476 151 b 343 288 476 240 396 282 b 467 415 397 296 467 335 b 268 564 467 507 385 564 b 65 478 175 564 108 526 l 108 429 b 260 496 150 474 199 496 b 385 407 328 496 385 465 b 249 318 385 342 325 318 b 193 319 225 318 203 318 l 193 250 b 249 251 201 251 225 251 b 393 156 329 251 393 226 b 265 58 393 96 344 58 b 104 133 201 58 140 88 l 58 81 b 267 -10 94 31 168 -10 b 476 151 397 -10 476 57 z "},"":{"ha":539,"x_min":0,"x_max":0,"o":"m 489 139 l 489 207 l 410 207 l 410 556 l 294 556 l 54 201 l 54 139 l 326 139 l 326 0 l 410 0 l 410 139 z m 326 207 l 138 207 l 326 482 z "},"":{"ha":539,"x_min":0,"x_max":0,"o":"m 478 175 b 294 351 478 292 390 351 b 163 301 238 351 189 328 l 163 488 l 440 488 l 440 556 l 78 556 l 78 256 l 138 233 b 269 288 176 271 218 288 b 396 172 344 288 396 242 b 267 58 396 108 343 58 b 110 135 200 58 147 86 l 61 81 b 267 -10 103 25 169 -10 b 478 175 388 -10 478 63 z "},"":{"ha":539,"x_min":0,"x_max":0,"o":"m 488 174 b 296 354 488 293 400 354 b 138 269 225 354 164 308 b 136 293 136 278 136 286 b 294 496 138 394 185 496 b 417 442 353 496 386 475 l 457 500 b 294 564 418 539 367 564 b 53 278 132 564 53 433 b 282 -10 53 124 118 -10 b 488 174 407 -10 488 75 z m 403 171 b 279 58 403 119 360 58 b 139 211 182 58 144 139 b 275 288 169 257 224 288 b 403 171 344 288 403 250 z "},"":{"ha":503,"x_min":0,"x_max":0,"o":"m 449 499 l 449 556 l 46 556 l 46 488 l 356 488 l 125 0 l 218 0 z "},"":{"ha":539,"x_min":0,"x_max":0,"o":"m 482 142 b 342 286 482 215 417 268 b 472 418 413 303 472 347 b 269 564 472 521 367 564 b 67 418 172 564 67 521 b 197 286 67 347 128 303 b 57 142 122 268 57 215 b 269 -10 57 40 156 -10 b 482 142 383 -10 482 42 z m 389 408 b 269 314 389 340 299 321 b 149 408 242 321 149 340 b 269 497 149 467 201 497 b 389 408 338 497 389 467 z m 399 149 b 269 56 399 90 339 56 b 139 149 200 56 139 90 b 269 256 139 224 239 251 b 399 149 300 251 399 224 z "},"":{"ha":539,"x_min":0,"x_max":0,"o":"m 53 381 b 244 200 53 261 140 200 b 403 285 314 200 375 246 b 403 263 403 276 403 268 b 244 58 401 157 351 58 b 124 113 188 58 153 79 l 83 54 b 244 -10 121 15 172 -10 b 488 276 407 -10 488 121 b 258 564 488 431 422 564 b 53 381 132 564 53 481 z m 136 383 b 263 496 136 435 179 496 b 401 344 357 496 394 415 b 264 267 369 297 317 267 b 136 383 194 267 136 304 z "},"":{"ha":539,"x_min":0,"x_max":0,"o":"m 494 649 b 269 935 494 786 428 935 b 46 649 110 935 46 786 b 269 361 46 511 110 361 b 494 649 428 361 494 511 z m 408 649 b 269 429 408 535 371 429 b 131 649 168 429 131 535 b 269 867 131 763 167 867 b 408 649 371 867 408 763 z "},"":{"ha":326,"x_min":0,"x_max":0,"o":"m 243 371 l 243 926 l 169 926 l 19 774 l 68 722 l 160 818 l 160 371 z "},"":{"ha":539,"x_min":0,"x_max":0,"o":"m 474 371 l 474 439 l 192 439 b 471 771 356 558 471 660 b 272 935 471 885 374 935 b 68 847 194 935 114 906 l 114 794 b 269 867 143 833 201 867 b 388 765 329 867 388 836 b 69 433 388 675 282 586 l 69 371 z "},"":{"ha":539,"x_min":0,"x_max":0,"o":"m 476 522 b 343 658 476 611 396 653 b 467 786 397 667 467 706 b 268 935 467 878 385 935 b 65 849 175 935 108 897 l 108 800 b 260 867 150 844 199 867 b 385 778 328 867 385 836 b 249 689 385 713 325 689 b 193 690 225 689 203 689 l 193 621 b 249 622 201 622 225 622 b 393 526 329 622 393 597 b 265 429 393 467 344 429 b 104 504 201 429 140 458 l 58 451 b 267 361 94 401 168 361 b 476 522 397 361 476 428 z "},"":{"ha":539,"x_min":0,"x_max":0,"o":"m 489 510 l 489 578 l 410 578 l 410 926 l 294 926 l 54 572 l 54 510 l 326 510 l 326 371 l 410 371 l 410 510 z m 326 578 l 138 578 l 326 853 z "},"":{"ha":539,"x_min":0,"x_max":0,"o":"m 478 546 b 294 722 478 663 390 722 b 163 672 238 722 189 699 l 163 858 l 440 858 l 440 926 l 78 926 l 78 626 l 138 604 b 269 658 176 642 218 658 b 396 543 344 658 396 613 b 267 429 396 479 343 429 b 110 506 200 429 147 457 l 61 451 b 267 361 103 396 169 361 b 478 546 388 361 478 433 z "},"":{"ha":539,"x_min":0,"x_max":0,"o":"m 488 544 b 296 725 488 664 400 725 b 138 640 225 725 164 679 b 136 664 136 649 136 657 b 294 867 138 765 185 867 b 417 813 353 867 386 846 l 457 871 b 294 935 418 910 367 935 b 53 649 132 935 53 804 b 282 361 53 494 118 361 b 488 544 407 361 488 446 z m 403 542 b 279 429 403 490 360 429 b 139 582 182 429 144 510 b 275 658 169 628 224 658 b 403 542 344 658 403 621 z "},"":{"ha":503,"x_min":0,"x_max":0,"o":"m 449 869 l 449 926 l 46 926 l 46 858 l 356 858 l 125 371 l 218 371 z "},"":{"ha":539,"x_min":0,"x_max":0,"o":"m 482 513 b 342 657 482 586 417 639 b 472 789 413 674 472 718 b 269 935 472 892 367 935 b 67 789 172 935 67 892 b 197 657 67 718 128 674 b 57 513 122 639 57 586 b 269 361 57 411 156 361 b 482 513 383 361 482 413 z m 389 779 b 269 685 389 711 299 692 b 149 779 242 692 149 711 b 269 868 149 838 201 868 b 389 779 338 868 389 838 z m 399 519 b 269 426 399 461 339 426 b 139 519 200 426 139 461 b 269 626 139 594 239 622 b 399 519 300 622 399 594 z "},"":{"ha":539,"x_min":0,"x_max":0,"o":"m 53 751 b 244 571 53 632 140 571 b 403 656 314 571 375 617 b 403 633 403 647 403 639 b 244 429 401 528 351 429 b 124 483 188 429 153 450 l 83 425 b 244 361 121 386 172 361 b 488 647 407 361 488 492 b 258 935 488 801 422 935 b 53 751 132 935 53 851 z m 136 754 b 263 867 136 806 179 867 b 401 715 357 867 394 786 b 264 638 369 668 317 638 b 136 754 194 638 136 675 z "},"":{"ha":794,"x_min":0,"x_max":0,"o":"m 333 764 l 10 0 l 132 0 l 203 167 l 593 167 l 664 0 l 785 0 l 463 764 z m 560 263 l 236 263 l 399 650 z m 642 960 l 592 1004 b 399 904 547 942 479 904 b 207 1004 317 904 250 943 l 154 960 b 399 838 211 885 300 838 b 642 960 499 838 586 885 z "},"":{"ha":794,"x_min":0,"x_max":0,"o":"m 333 764 l 10 0 l 132 0 l 203 167 l 593 167 l 664 0 l 785 0 l 463 764 z m 560 263 l 236 263 l 399 650 z m 651 872 l 651 939 l 147 939 l 147 872 z "},"":{"ha":794,"x_min":0,"x_max":0,"o":"m 333 764 l 10 0 l 132 0 l 203 167 l 593 167 l 664 0 l 690 0 b 617 -137 644 -36 617 -85 b 742 -258 617 -222 676 -258 b 864 -175 807 -258 844 -219 l 813 -146 b 742 -204 800 -183 779 -204 b 679 -135 704 -204 679 -182 b 785 0 679 -76 718 -33 l 463 764 z m 560 263 l 236 263 l 399 650 z "},"":{"ha":1140,"x_min":0,"x_max":0,"o":"m 808 1042 l 700 1042 l 494 842 l 574 842 z m 1069 0 l 1069 96 l 646 96 l 646 343 l 1061 343 l 1061 439 l 646 439 l 646 668 l 1069 668 l 1069 764 l 497 764 l 8 0 l 132 0 l 238 167 l 538 167 l 538 0 z m 538 263 l 290 263 l 538 650 z "},"":{"ha":808,"x_min":0,"x_max":0,"o":"m 474 -17 b 778 140 610 -17 710 47 l 689 189 b 474 79 646 124 563 79 b 176 383 306 79 176 207 b 474 685 176 560 306 685 b 689 575 563 685 643 642 l 776 624 b 474 781 711 717 610 781 b 65 383 242 781 65 618 b 474 -17 65 147 242 -17 z m 697 1042 l 589 1042 l 383 842 l 463 842 z "},"":{"ha":808,"x_min":0,"x_max":0,"o":"m 474 -17 b 778 140 610 -17 710 47 l 689 189 b 474 79 646 124 563 79 b 176 383 306 79 176 207 b 474 685 176 560 306 685 b 689 575 563 685 643 642 l 776 624 b 474 781 711 717 610 781 b 65 383 242 781 65 618 b 474 -17 65 147 242 -17 z m 528 842 l 660 1042 l 589 1042 l 478 894 l 363 1042 l 292 1042 l 428 842 z "},"":{"ha":808,"x_min":0,"x_max":0,"o":"m 474 -17 b 778 140 610 -17 710 47 l 689 189 b 474 79 646 124 563 79 b 176 383 306 79 176 207 b 474 685 176 560 306 685 b 689 575 563 685 643 642 l 776 624 b 474 781 711 717 610 781 b 65 383 242 781 65 618 b 474 -17 65 147 242 -17 z m 660 842 l 524 1042 l 424 1042 l 292 842 l 363 842 l 474 989 l 589 842 z "},"":{"ha":808,"x_min":0,"x_max":0,"o":"m 474 -17 b 778 140 610 -17 710 47 l 689 189 b 474 79 646 124 563 79 b 176 383 306 79 176 207 b 474 685 176 560 306 685 b 689 575 563 685 643 642 l 776 624 b 474 781 711 717 610 781 b 65 383 242 781 65 618 b 474 -17 65 147 242 -17 z m 476 874 b 542 939 513 874 542 903 b 476 1004 542 975 513 1004 b 411 939 442 1004 411 975 b 476 874 411 903 442 874 z "},"":{"ha":854,"x_min":0,"x_max":0,"o":"m 365 0 b 772 381 615 0 772 164 b 365 764 772 597 615 764 l 88 764 l 88 0 z m 365 96 l 197 96 l 197 668 l 365 668 b 660 381 558 668 660 540 b 365 96 660 224 556 96 z m 464 842 l 596 1042 l 525 1042 l 414 894 l 299 1042 l 228 1042 l 364 842 z "},"":{"ha":869,"x_min":0,"x_max":0,"o":"m 379 0 b 786 381 629 0 786 164 b 379 764 786 597 629 764 l 101 764 l 101 421 l 14 421 l 14 349 l 101 349 l 101 0 z m 396 349 l 396 421 l 211 421 l 211 668 l 379 668 b 674 381 572 668 674 540 b 379 96 674 224 569 96 l 211 96 l 211 349 z "},"":{"ha":707,"x_min":0,"x_max":0,"o":"m 635 0 l 635 96 l 214 96 l 214 343 l 628 343 l 628 439 l 214 439 l 214 668 l 635 668 l 635 764 l 104 764 l 104 0 z m 611 960 l 561 1004 b 368 904 517 942 449 904 b 176 1004 286 904 219 943 l 124 960 b 368 838 181 885 269 838 b 611 960 468 838 556 885 z "},"":{"ha":707,"x_min":0,"x_max":0,"o":"m 635 0 l 635 96 l 214 96 l 214 343 l 628 343 l 628 439 l 214 439 l 214 668 l 635 668 l 635 764 l 104 764 l 104 0 z m 424 842 l 556 1042 l 485 1042 l 374 894 l 258 1042 l 188 1042 l 324 842 z "},"":{"ha":707,"x_min":0,"x_max":0,"o":"m 635 0 l 635 96 l 214 96 l 214 343 l 628 343 l 628 439 l 214 439 l 214 668 l 635 668 l 635 764 l 104 764 l 104 0 z m 378 874 b 443 939 414 874 443 903 b 378 1004 443 975 414 1004 b 313 939 343 1004 313 975 b 378 874 313 903 343 874 z "},"":{"ha":707,"x_min":0,"x_max":0,"o":"m 635 0 l 635 96 l 214 96 l 214 343 l 628 343 l 628 439 l 214 439 l 214 668 l 635 668 l 635 764 l 104 764 l 104 0 z m 619 872 l 619 939 l 115 939 l 115 872 z "},"":{"ha":878,"x_min":0,"x_max":0,"o":"m 511 -272 b 774 -28 661 -272 774 -194 l 774 764 l 665 764 l 665 181 l 218 764 l 104 764 l 104 0 l 213 0 l 213 594 l 664 0 l 664 -19 b 504 -176 664 -112 603 -176 b 356 -99 438 -176 390 -142 l 304 -178 b 511 -272 357 -242 428 -272 z "},"":{"ha":707,"x_min":0,"x_max":0,"o":"m 663 -146 b 592 -204 650 -183 629 -204 b 529 -135 554 -204 529 -182 b 635 0 529 -76 568 -33 l 635 96 l 214 96 l 214 343 l 628 343 l 628 439 l 214 439 l 214 668 l 635 668 l 635 764 l 104 764 l 104 0 l 540 0 b 467 -137 494 -36 467 -85 b 592 -258 467 -222 526 -258 b 714 -175 657 -258 694 -219 z "},"":{"ha":869,"x_min":0,"x_max":0,"o":"m 474 -17 b 786 117 601 -17 711 36 l 786 399 l 442 399 l 442 307 l 678 307 l 678 158 b 474 79 639 121 567 79 b 178 382 306 79 178 207 b 474 683 178 558 306 683 b 696 583 565 683 646 643 l 781 640 b 474 781 710 722 608 781 b 65 382 246 781 65 619 b 474 -17 65 144 246 -17 z m 719 960 l 669 1004 b 476 904 625 942 557 904 b 285 1004 394 904 328 943 l 232 960 b 476 838 289 885 378 838 b 719 960 576 838 664 885 z "},"":{"ha":869,"x_min":0,"x_max":0,"o":"m 474 -17 b 786 117 601 -17 711 36 l 786 399 l 442 399 l 442 307 l 678 307 l 678 158 b 474 79 639 121 567 79 b 178 382 306 79 178 207 b 474 683 178 558 306 683 b 696 583 565 683 646 643 l 781 640 b 474 781 710 722 608 781 b 65 382 246 781 65 619 b 474 -17 65 144 246 -17 z m 658 842 l 522 1042 l 422 1042 l 290 842 l 361 842 l 472 989 l 588 842 z "},"":{"ha":869,"x_min":0,"x_max":0,"o":"m 474 -17 b 786 117 601 -17 711 36 l 786 399 l 442 399 l 442 307 l 678 307 l 678 158 b 474 79 639 121 567 79 b 178 382 306 79 178 207 b 474 683 178 558 306 683 b 696 583 565 683 646 643 l 781 640 b 474 781 710 722 608 781 b 65 382 246 781 65 619 b 474 -17 65 144 246 -17 z m 551 -192 b 478 -99 551 -132 517 -99 b 414 -162 442 -99 414 -128 b 472 -224 414 -199 439 -224 b 488 -222 478 -224 486 -222 b 408 -342 483 -262 449 -314 l 453 -378 b 551 -192 507 -337 551 -267 z "},"":{"ha":869,"x_min":0,"x_max":0,"o":"m 474 -17 b 786 117 601 -17 711 36 l 786 399 l 442 399 l 442 307 l 678 307 l 678 158 b 474 79 639 121 567 79 b 178 382 306 79 178 207 b 474 683 178 558 306 683 b 696 583 565 683 646 643 l 781 640 b 474 781 710 722 608 781 b 65 382 246 781 65 619 b 474 -17 65 144 246 -17 z m 475 874 b 540 939 511 874 540 903 b 475 1004 540 975 511 1004 b 410 939 440 1004 410 975 b 475 874 410 903 440 874 z "},"":{"ha":882,"x_min":0,"x_max":0,"o":"m 778 0 l 778 764 l 671 764 l 671 440 l 214 440 l 214 764 l 104 764 l 104 0 l 214 0 l 214 344 l 671 344 l 671 0 z m 622 842 l 486 1042 l 386 1042 l 254 842 l 325 842 l 436 989 l 551 842 z "},"":{"ha":910,"x_min":0,"x_max":0,"o":"m 792 0 l 792 571 l 894 571 l 894 638 l 792 638 l 792 764 l 685 764 l 685 638 l 228 638 l 228 764 l 118 764 l 118 638 l 14 638 l 14 571 l 118 571 l 118 0 l 228 0 l 228 344 l 685 344 l 685 0 z m 228 440 l 228 571 l 685 571 l 685 440 z "},"":{"ha":315,"x_min":0,"x_max":0,"o":"m 213 0 l 213 764 l 103 764 l 103 0 z m 397 960 l 347 1004 b 154 904 303 942 235 904 b -37 1004 72 904 6 943 l -90 960 b 154 838 -33 885 56 838 b 397 960 254 838 342 885 z "},"":{"ha":904,"x_min":0,"x_max":0,"o":"m 214 0 l 214 764 l 104 764 l 104 0 z m 538 -17 b 799 228 686 -17 799 61 l 799 764 l 690 764 l 690 236 b 531 79 690 143 629 79 b 382 157 464 79 415 114 l 329 78 b 538 -17 382 14 453 -17 z "},"":{"ha":315,"x_min":0,"x_max":0,"o":"m 213 0 l 213 764 l 103 764 l 103 0 z m 411 872 l 411 939 l -93 939 l -93 872 z "},"":{"ha":315,"x_min":0,"x_max":0,"o":"m 240 -146 b 169 -204 228 -183 207 -204 b 107 -135 132 -204 107 -182 b 213 0 107 -76 146 -33 l 213 764 l 103 764 l 103 0 l 118 0 b 44 -137 72 -36 44 -85 b 169 -258 44 -222 104 -258 b 292 -175 235 -258 272 -219 z "},"":{"ha":315,"x_min":0,"x_max":0,"o":"m 213 0 l 213 764 l 103 764 l 103 0 z m 242 821 b 376 1007 329 821 376 899 l 314 1007 b 247 888 314 924 285 888 b 76 1015 181 888 176 1015 b -58 829 -11 1015 -58 938 l 4 829 b 71 949 4 913 33 949 b 242 821 138 949 142 821 z "},"":{"ha":586,"x_min":0,"x_max":0,"o":"m 219 -17 b 481 228 368 -17 481 61 l 481 764 l 372 764 l 372 236 b 213 79 372 143 311 79 b 64 157 146 79 97 114 l 11 78 b 219 -17 64 14 135 -17 z m 610 842 l 474 1042 l 374 1042 l 242 842 l 313 842 l 424 989 l 539 842 z "},"":{"ha":742,"x_min":0,"x_max":0,"o":"m 722 0 l 358 401 l 694 764 l 558 764 l 214 382 l 214 764 l 104 764 l 104 0 l 214 0 l 214 257 l 288 338 l 588 0 z m 450 -192 b 376 -99 450 -132 415 -99 b 313 -162 340 -99 313 -128 b 371 -224 313 -199 338 -224 b 386 -222 376 -224 385 -222 b 307 -342 382 -262 347 -314 l 351 -378 b 450 -192 406 -337 450 -267 z "},"":{"ha":636,"x_min":0,"x_max":0,"o":"m 583 0 l 583 96 l 214 96 l 214 764 l 104 764 l 104 0 z m 572 1042 l 464 1042 l 258 842 l 338 842 z "},"":{"ha":636,"x_min":0,"x_max":0,"o":"m 583 0 l 583 96 l 214 96 l 214 764 l 104 764 l 104 0 z m 463 685 b 389 778 463 744 428 778 b 325 714 353 778 325 749 b 383 653 325 678 350 653 b 399 654 389 653 397 654 b 319 535 394 614 360 563 l 364 499 b 463 685 418 539 463 610 z "},"":{"ha":636,"x_min":0,"x_max":0,"o":"m 583 0 l 583 96 l 214 96 l 214 764 l 104 764 l 104 0 z m 415 -192 b 342 -99 415 -132 381 -99 b 278 -162 306 -99 278 -128 b 336 -224 278 -199 303 -224 b 351 -222 342 -224 350 -222 b 272 -342 347 -262 313 -314 l 317 -378 b 415 -192 371 -337 415 -267 z "},"":{"ha":656,"x_min":0,"x_max":0,"o":"m 583 0 l 583 96 l 214 96 l 214 764 l 104 764 l 104 0 z m 569 408 b 493 483 569 449 535 483 b 417 408 451 483 417 449 b 493 332 417 367 451 332 b 569 408 535 332 569 367 z "},"":{"ha":878,"x_min":0,"x_max":0,"o":"m 774 0 l 774 764 l 665 764 l 665 181 l 218 764 l 104 764 l 104 0 l 213 0 l 213 594 l 664 0 z m 660 1042 l 551 1042 l 346 842 l 425 842 z "},"":{"ha":878,"x_min":0,"x_max":0,"o":"m 774 0 l 774 764 l 665 764 l 665 181 l 218 764 l 104 764 l 104 0 l 213 0 l 213 594 l 664 0 z m 490 842 l 622 1042 l 551 1042 l 440 894 l 325 1042 l 254 1042 l 390 842 z "},"":{"ha":878,"x_min":0,"x_max":0,"o":"m 774 0 l 774 764 l 665 764 l 665 181 l 218 764 l 104 764 l 104 0 l 213 0 l 213 594 l 664 0 z m 510 -192 b 436 -99 510 -132 475 -99 b 372 -162 400 -99 372 -128 b 431 -224 372 -199 397 -224 b 446 -222 436 -224 444 -222 b 367 -342 442 -262 407 -314 l 411 -378 b 510 -192 465 -337 510 -267 z "},"":{"ha":919,"x_min":0,"x_max":0,"o":"m 460 -17 b 854 382 697 -17 854 157 b 460 781 854 607 697 781 b 65 382 222 781 65 607 b 460 -17 65 157 222 -17 z m 460 79 b 176 382 288 79 176 210 b 460 685 176 556 288 685 b 743 382 632 685 743 556 b 460 79 743 210 632 79 z m 706 960 l 656 1004 b 463 904 611 942 543 904 b 271 1004 381 904 314 943 l 218 960 b 463 838 275 885 364 838 b 706 960 563 838 650 885 z "},"":{"ha":919,"x_min":0,"x_max":0,"o":"m 460 -17 b 854 382 697 -17 854 157 b 460 781 854 607 697 781 b 65 382 222 781 65 607 b 460 -17 65 157 222 -17 z m 460 79 b 176 382 288 79 176 210 b 460 685 176 556 288 685 b 743 382 632 685 743 556 b 460 79 743 210 632 79 z m 538 1042 l 442 1042 l 311 842 l 378 842 z m 735 1042 l 639 1042 l 508 842 l 575 842 z "},"":{"ha":919,"x_min":0,"x_max":0,"o":"m 460 -17 b 854 382 697 -17 854 157 b 460 781 854 607 697 781 b 65 382 222 781 65 607 b 460 -17 65 157 222 -17 z m 460 79 b 176 382 288 79 176 210 b 460 685 176 556 288 685 b 743 382 632 685 743 556 b 460 79 743 210 632 79 z m 713 882 l 713 949 l 208 949 l 208 882 z "},"":{"ha":919,"x_min":0,"x_max":0,"o":"m 460 -17 b 854 382 697 -17 854 157 b 726 683 854 504 807 611 l 785 764 l 692 764 l 665 728 b 460 781 607 761 538 781 b 65 382 222 781 65 607 b 189 82 65 261 110 154 l 129 0 l 222 0 l 250 38 b 460 -17 308 3 379 -17 z m 460 79 b 310 119 403 79 351 93 l 664 600 b 743 382 714 546 743 469 b 460 79 743 210 632 79 z m 176 382 b 460 685 176 556 288 685 b 606 647 515 685 564 671 l 251 167 b 176 382 203 221 176 296 z m 685 1042 l 576 1042 l 371 842 l 450 842 z "},"":{"ha":757,"x_min":0,"x_max":0,"o":"m 694 0 l 478 306 b 685 531 599 314 685 399 b 432 764 685 661 593 764 l 104 764 l 104 0 l 214 0 l 214 297 l 367 297 l 567 0 z m 422 392 l 214 392 l 214 668 l 422 668 b 572 531 519 668 572 611 b 422 392 572 450 522 392 z m 590 1042 l 482 1042 l 276 842 l 356 842 z "},"":{"ha":757,"x_min":0,"x_max":0,"o":"m 694 0 l 478 306 b 685 531 599 314 685 399 b 432 764 685 661 593 764 l 104 764 l 104 0 l 214 0 l 214 297 l 367 297 l 567 0 z m 422 392 l 214 392 l 214 668 l 422 668 b 572 531 519 668 572 611 b 422 392 572 450 522 392 z m 419 842 l 551 1042 l 481 1042 l 369 894 l 254 1042 l 183 1042 l 319 842 z "},"":{"ha":757,"x_min":0,"x_max":0,"o":"m 694 0 l 478 306 b 685 531 599 314 685 399 b 432 764 685 661 593 764 l 104 764 l 104 0 l 214 0 l 214 297 l 367 297 l 567 0 z m 422 392 l 214 392 l 214 668 l 422 668 b 572 531 519 668 572 611 b 422 392 572 450 522 392 z m 447 -192 b 374 -99 447 -132 413 -99 b 310 -162 338 -99 310 -128 b 368 -224 310 -199 335 -224 b 383 -222 374 -224 382 -222 b 304 -342 379 -262 344 -314 l 349 -378 b 447 -192 403 -337 447 -267 z "},"":{"ha":700,"x_min":0,"x_max":0,"o":"m 350 -17 b 650 213 554 -17 650 83 b 182 565 650 501 182 400 b 346 686 182 636 250 686 b 575 594 429 686 517 657 l 632 671 b 346 781 565 739 471 781 b 69 564 189 781 69 690 b 539 208 69 288 539 403 b 353 78 539 140 486 78 b 103 185 244 78 154 129 l 44 103 b 350 -17 107 35 215 -17 z m 574 1042 l 465 1042 l 260 842 l 339 842 z "},"":{"ha":700,"x_min":0,"x_max":0,"o":"m 346 -265 b 490 -154 426 -265 490 -222 b 399 -61 490 -97 451 -61 b 347 -76 381 -61 361 -65 l 371 -17 b 650 213 560 -10 650 88 b 182 565 650 501 182 400 b 346 686 182 636 250 686 b 575 594 429 686 517 657 l 632 671 b 346 781 565 739 471 781 b 69 564 189 781 69 690 b 539 208 69 288 539 403 b 353 78 539 140 486 78 b 103 185 244 78 154 129 l 44 103 b 310 -15 100 42 193 -6 l 278 -101 l 324 -128 b 376 -104 336 -112 357 -104 b 428 -153 411 -104 428 -124 b 343 -211 428 -190 389 -211 b 232 -171 306 -211 267 -199 l 206 -224 b 346 -265 233 -246 286 -265 z "},"":{"ha":700,"x_min":0,"x_max":0,"o":"m 350 -17 b 650 213 554 -17 650 83 b 182 565 650 501 182 400 b 346 686 182 636 250 686 b 575 594 429 686 517 657 l 632 671 b 346 781 565 739 471 781 b 69 564 189 781 69 690 b 539 208 69 288 539 403 b 353 78 539 140 486 78 b 103 185 244 78 154 129 l 44 103 b 350 -17 107 35 215 -17 z m 536 842 l 400 1042 l 300 1042 l 168 842 l 239 842 l 350 989 l 465 842 z "},"":{"ha":700,"x_min":0,"x_max":0,"o":"m 350 -17 b 650 213 554 -17 650 83 b 182 565 650 501 182 400 b 346 686 182 636 250 686 b 575 594 429 686 517 657 l 632 671 b 346 781 565 739 471 781 b 69 564 189 781 69 690 b 539 208 69 288 539 403 b 353 78 539 140 486 78 b 103 185 244 78 154 129 l 44 103 b 350 -17 107 35 215 -17 z m 428 -192 b 354 -99 428 -132 393 -99 b 290 -162 318 -99 290 -128 b 349 -224 290 -199 315 -224 b 364 -222 354 -224 363 -222 b 285 -342 360 -262 325 -314 l 329 -378 b 428 -192 383 -337 428 -267 z "},"":{"ha":656,"x_min":0,"x_max":0,"o":"m 382 0 l 382 335 l 544 335 l 544 401 l 382 401 l 382 668 l 618 668 l 618 764 l 36 764 l 36 668 l 274 668 l 274 401 l 111 401 l 111 335 l 274 335 l 274 0 z "},"":{"ha":656,"x_min":0,"x_max":0,"o":"m 382 0 l 382 668 l 618 668 l 618 764 l 36 764 l 36 668 l 274 668 l 274 0 z m 381 842 l 513 1042 l 442 1042 l 331 894 l 215 1042 l 144 1042 l 281 842 z "},"":{"ha":656,"x_min":0,"x_max":0,"o":"m 382 0 l 382 668 l 618 668 l 618 764 l 36 764 l 36 668 l 274 668 l 274 0 z m 400 -192 b 326 -99 400 -132 365 -99 b 263 -162 290 -99 263 -128 b 321 -224 263 -199 288 -224 b 336 -222 326 -224 335 -222 b 257 -342 332 -262 297 -314 l 301 -378 b 400 -192 356 -337 400 -267 z "},"":{"ha":865,"x_min":0,"x_max":0,"o":"m 432 -17 b 761 294 650 -17 761 106 l 761 764 l 651 764 l 651 301 b 432 79 651 165 574 79 b 214 301 290 79 214 165 l 214 764 l 104 764 l 104 294 b 432 -17 104 107 214 -17 z m 675 960 l 625 1004 b 432 904 581 942 513 904 b 240 1004 350 904 283 943 l 188 960 b 432 838 244 885 333 838 b 675 960 532 838 619 885 z "},"":{"ha":865,"x_min":0,"x_max":0,"o":"m 432 -17 b 761 294 650 -17 761 106 l 761 764 l 651 764 l 651 301 b 432 79 651 165 574 79 b 214 301 290 79 214 165 l 214 764 l 104 764 l 104 294 b 432 -17 104 107 214 -17 z m 507 1042 l 411 1042 l 281 842 l 347 842 z m 704 1042 l 608 1042 l 478 842 l 544 842 z "},"":{"ha":865,"x_min":0,"x_max":0,"o":"m 432 -17 b 761 294 650 -17 761 106 l 761 764 l 651 764 l 651 301 b 432 79 651 165 574 79 b 214 301 290 79 214 165 l 214 764 l 104 764 l 104 294 b 432 -17 104 107 214 -17 z m 686 872 l 686 939 l 182 939 l 182 872 z "},"":{"ha":865,"x_min":0,"x_max":0,"o":"m 432 -17 l 444 -17 b 390 -137 411 -50 390 -92 b 515 -258 390 -222 450 -258 b 638 -175 581 -258 618 -219 l 586 -146 b 515 -204 574 -183 553 -204 b 453 -135 478 -204 453 -182 b 558 0 453 -76 492 -33 b 761 294 693 39 761 146 l 761 764 l 651 764 l 651 301 b 432 79 651 165 574 79 b 214 301 290 79 214 165 l 214 764 l 104 764 l 104 294 b 432 -17 104 107 214 -17 z "},"":{"ha":865,"x_min":0,"x_max":0,"o":"m 432 -17 b 761 294 650 -17 761 106 l 761 764 l 651 764 l 651 301 b 432 79 651 165 574 79 b 214 301 290 79 214 165 l 214 764 l 104 764 l 104 294 b 432 -17 104 107 214 -17 z m 436 839 b 571 976 511 839 571 901 b 436 1114 571 1051 511 1114 b 299 976 361 1114 299 1051 b 436 839 299 901 361 839 z m 436 894 b 354 976 390 894 354 932 b 436 1058 354 1021 390 1058 b 517 976 481 1058 517 1021 b 436 894 517 932 481 894 z "},"":{"ha":865,"x_min":0,"x_max":0,"o":"m 432 -17 b 761 294 650 -17 761 106 l 761 764 l 651 764 l 651 301 b 432 79 651 165 574 79 b 214 301 290 79 214 165 l 214 764 l 104 764 l 104 294 b 432 -17 104 107 214 -17 z m 515 839 b 650 1025 603 839 650 917 l 588 1025 b 521 906 588 942 558 906 b 350 1033 454 906 450 1033 b 215 847 263 1033 215 956 l 278 847 b 344 967 278 931 307 967 b 515 839 411 967 415 839 z "},"":{"ha":1061,"x_min":0,"x_max":0,"o":"m 715 842 l 579 1042 l 479 1042 l 347 842 l 418 842 l 529 989 l 644 842 z m 817 0 l 1046 764 l 926 764 l 754 147 l 576 764 l 485 764 l 306 149 l 135 764 l 14 764 l 243 0 l 358 0 l 529 599 l 703 0 z "},"":{"ha":760,"x_min":0,"x_max":0,"o":"m 436 0 l 436 324 l 750 764 l 625 764 l 383 417 l 136 764 l 10 764 l 328 324 l 328 0 z m 568 842 l 432 1042 l 332 1042 l 200 842 l 271 842 l 382 989 l 497 842 z "},"":{"ha":717,"x_min":0,"x_max":0,"o":"m 663 0 l 663 96 l 201 96 l 653 682 l 653 764 l 56 764 l 56 668 l 507 668 l 56 82 l 56 0 z m 579 1042 l 471 1042 l 265 842 l 344 842 z "},"":{"ha":717,"x_min":0,"x_max":0,"o":"m 663 0 l 663 96 l 201 96 l 653 682 l 653 764 l 56 764 l 56 668 l 507 668 l 56 82 l 56 0 z m 368 874 b 433 939 404 874 433 903 b 368 1004 433 975 404 1004 b 303 939 333 1004 303 975 b 368 874 303 903 333 874 z "},"":{"ha":281,"x_min":0,"x_max":0,"o":"m 197 0 l 197 764 l 88 764 l 88 0 z m 142 874 b 207 939 178 874 207 903 b 142 1004 207 975 178 1004 b 76 939 107 1004 76 975 b 142 874 76 903 107 874 z "},"":{"ha":344,"x_min":0,"x_max":0,"o":"m 321 -103 b 175 463 231 72 175 232 b 321 1029 175 694 231 853 l 257 1076 b 61 463 132 904 61 686 b 257 -151 61 239 132 21 z "},"":{"ha":344,"x_min":0,"x_max":0,"o":"m 24 -103 b 169 463 114 72 169 232 b 24 1029 169 694 114 853 l 88 1076 b 283 463 213 904 283 686 b 88 -151 283 239 213 21 z "},"":{"ha":338,"x_min":0,"x_max":0,"o":"m 314 -139 l 314 -62 l 138 -62 l 138 990 l 314 990 l 314 1067 l 56 1067 l 56 -139 z "},"":{"ha":338,"x_min":0,"x_max":0,"o":"m 283 -139 l 283 1067 l 24 1067 l 24 990 l 201 990 l 201 -62 l 24 -62 l 24 -139 z "},"":{"ha":363,"x_min":0,"x_max":0,"o":"m 339 -139 l 339 -62 l 253 -62 b 161 49 204 -62 161 -15 l 161 342 b 99 464 161 400 144 444 b 161 586 144 483 161 528 l 161 881 b 253 990 161 946 204 990 l 339 990 l 339 1067 l 253 1067 b 81 879 165 1067 81 994 l 81 594 b 7 499 81 543 57 499 l 7 429 b 81 333 57 429 81 385 l 81 47 b 253 -139 81 -67 165 -139 z "},"":{"ha":363,"x_min":0,"x_max":0,"o":"m 24 -139 l 108 -139 b 282 47 197 -139 282 -67 l 282 333 b 354 429 282 385 306 429 l 354 499 b 282 594 306 499 282 543 l 282 879 b 108 1067 282 994 197 1067 l 24 1067 l 24 990 l 108 990 b 201 881 158 990 201 946 l 201 586 b 264 464 201 528 218 483 b 201 342 218 444 201 400 l 201 49 b 108 -62 201 -15 158 -62 l 24 -62 z "},"":{"ha":319,"x_min":0,"x_max":0,"o":"m 94 0 l 225 0 l 203 667 l 115 667 z m 83 864 b 160 789 83 824 118 789 b 235 864 201 789 235 824 b 160 940 235 906 201 940 b 83 864 118 940 83 906 z "},"":{"ha":642,"x_min":0,"x_max":0,"o":"m 360 667 l 275 629 b 311 563 299 613 311 585 b 43 199 311 426 43 408 b 315 -17 43 79 146 -17 b 617 125 447 -17 550 38 l 547 199 b 325 86 496 131 431 86 b 163 215 217 86 163 146 b 413 553 163 363 413 376 b 360 667 413 596 397 635 z m 331 940 b 254 864 289 940 254 906 b 331 788 254 822 289 788 b 407 864 372 788 407 822 b 331 940 407 906 372 940 z "},"":{"ha":610,"x_min":0,"x_max":0,"o":"m 568 225 l 346 475 l 568 721 l 464 721 l 242 475 l 464 225 z m 368 225 l 146 475 l 368 721 l 264 721 l 42 475 l 264 225 z "},"":{"ha":610,"x_min":0,"x_max":0,"o":"m 368 475 l 146 721 l 42 721 l 264 475 l 42 225 l 146 225 z m 568 475 l 346 721 l 242 721 l 464 475 l 242 225 l 346 225 z "},"":{"ha":410,"x_min":0,"x_max":0,"o":"m 368 225 l 146 475 l 368 721 l 264 721 l 42 475 l 264 225 z "},"":{"ha":410,"x_min":0,"x_max":0,"o":"m 368 475 l 146 721 l 42 721 l 264 475 l 42 225 l 146 225 z "},"":{"ha":417,"x_min":0,"x_max":0,"o":"m 375 428 l 375 519 l 42 519 l 42 428 z "},"":{"ha":824,"x_min":0,"x_max":0,"o":"m 782 428 l 782 519 l 42 519 l 42 428 z "},"":{"ha":1157,"x_min":0,"x_max":0,"o":"m 1115 428 l 1115 519 l 42 519 l 42 428 z "},"":{"ha":321,"x_min":0,"x_max":0,"o":"m 236 476 b 160 551 236 517 201 551 b 83 476 118 551 83 517 b 160 400 83 435 118 400 b 236 476 201 400 236 435 z "},"":{"ha":497,"x_min":0,"x_max":0,"o":"m 400 474 b 250 624 400 556 332 624 b 100 474 168 624 100 556 b 250 325 100 393 168 325 b 400 474 332 325 400 393 z "},"":{"ha":689,"x_min":0,"x_max":0,"o":"m 350 -12 l 432 -12 l 432 111 b 646 226 535 118 599 165 l 576 290 b 432 204 538 238 489 210 l 432 719 b 576 635 489 714 538 688 l 646 697 b 432 813 599 757 535 804 l 432 911 l 350 911 l 350 810 b 65 463 178 786 65 643 b 350 113 65 281 178 136 z m 174 463 b 350 715 174 590 240 690 l 350 208 b 174 463 240 233 174 333 z "},"":{"ha":319,"x_min":0,"x_max":0,"o":"m 232 -192 b 158 -99 232 -132 197 -99 b 94 -162 122 -99 94 -128 b 153 -224 94 -199 119 -224 b 168 -222 158 -224 167 -222 b 89 -342 164 -262 129 -314 l 133 -378 b 232 -192 188 -337 232 -267 z "},"":{"ha":831,"x_min":0,"x_max":0,"o":"m 550 0 l 550 926 l 449 926 l 217 688 l 286 617 l 435 775 l 435 0 z "},"":{"ha":668,"x_min":0,"x_max":0,"o":"m 14 238 l 136 308 l 136 0 l 615 0 l 615 96 l 246 96 l 246 371 l 376 447 l 376 547 l 246 471 l 246 764 l 136 764 l 136 408 l 14 338 z "},"":{"ha":1324,"x_min":0,"x_max":0,"o":"m 1253 0 l 1253 96 l 829 96 l 829 343 l 1244 343 l 1244 439 l 829 439 l 829 668 l 1253 668 l 1253 764 l 721 764 l 721 628 b 444 781 661 731 563 781 b 65 382 215 781 65 607 b 444 -17 65 157 215 -17 b 721 138 563 -17 661 33 l 721 0 z m 721 269 b 461 79 676 136 575 79 b 176 382 288 79 176 210 b 461 685 176 556 288 685 b 721 497 571 685 676 631 z "},"":{"ha":700,"x_min":0,"x_max":0,"o":"m 350 -17 b 650 213 554 -17 650 83 b 182 565 650 501 182 400 b 346 686 182 636 250 686 b 575 594 429 686 517 657 l 632 671 b 346 781 565 739 471 781 b 69 564 189 781 69 690 b 539 208 69 288 539 403 b 353 78 539 140 486 78 b 103 185 244 78 154 129 l 44 103 b 350 -17 107 35 215 -17 z m 404 842 l 536 1042 l 465 1042 l 354 894 l 239 1042 l 168 1042 l 304 842 z "},"":{"ha":717,"x_min":0,"x_max":0,"o":"m 663 0 l 663 96 l 201 96 l 653 682 l 653 764 l 56 764 l 56 668 l 507 668 l 56 82 l 56 0 z m 407 842 l 539 1042 l 468 1042 l 357 894 l 242 1042 l 171 1042 l 307 842 z "},"":{"ha":256,"x_min":0,"x_max":0,"o":"m 188 764 l 68 764 l 88 231 l 168 231 z m 204 63 b 128 139 204 103 169 139 b 51 63 86 139 51 103 b 128 -14 51 21 86 -14 b 204 63 169 -14 204 21 z "},"":{"ha":700,"x_min":0,"x_max":0,"o":"m 313 -103 l 394 -103 l 394 -15 b 650 213 568 -1 650 93 b 394 440 650 365 518 408 l 394 682 b 575 594 461 674 528 644 l 632 671 b 394 778 574 729 496 768 l 394 872 l 313 872 l 313 779 b 69 564 172 767 69 681 b 313 353 69 422 192 383 l 313 79 b 103 185 222 90 147 136 l 44 103 b 313 -15 100 40 194 -7 z m 539 208 b 394 79 539 147 497 92 l 394 332 b 539 208 475 308 539 279 z m 182 565 b 313 683 182 628 235 674 l 313 461 b 182 565 239 482 182 507 z "},"":{"ha":772,"x_min":0,"x_max":0,"o":"m 744 0 b 583 149 682 57 632 103 b 690 347 625 206 660 274 l 608 381 b 525 207 590 322 561 261 b 431 307 494 238 464 269 b 339 410 399 340 367 375 b 543 626 440 458 543 510 b 358 781 543 729 458 781 b 153 599 243 781 153 704 b 213 429 153 544 175 489 b 38 201 119 382 38 321 b 290 -15 38 65 146 -15 b 524 81 383 -15 460 21 b 613 0 554 53 583 25 z m 300 61 b 139 208 206 61 139 124 b 256 368 139 285 190 331 b 358 249 285 331 319 290 b 465 136 385 218 424 178 b 300 61 418 90 363 61 z m 249 597 b 361 707 249 658 294 707 b 454 622 415 707 454 678 b 297 469 454 547 382 508 b 249 597 268 514 249 558 z "},"":{"ha":850,"x_min":0,"x_max":0,"o":"m 779 382 b 425 781 779 582 672 781 b 71 382 178 781 71 582 b 425 -17 71 183 178 -17 b 779 382 672 -17 779 183 z m 661 382 b 425 86 661 233 592 86 b 189 382 258 86 189 233 b 425 678 189 531 258 678 b 661 382 593 678 661 531 z "},"":{"ha":471,"x_min":0,"x_max":0,"o":"m 363 0 l 363 764 l 261 764 l 29 525 l 99 454 l 247 613 l 247 0 z "},"":{"ha":803,"x_min":0,"x_max":0,"o":"m 682 0 l 682 103 l 296 103 b 697 531 521 200 697 363 b 394 781 697 683 567 781 b 63 635 264 781 135 729 l 133 561 b 392 678 189 633 283 678 b 581 515 496 678 581 611 b 83 93 581 382 428 233 l 83 0 z "},"":{"ha":768,"x_min":0,"x_max":0,"o":"m 364 -179 b 693 88 568 -179 693 -67 b 479 317 693 238 563 308 b 678 532 565 331 678 397 b 365 778 678 688 543 778 b 47 635 221 778 114 717 l 111 563 b 356 675 179 636 254 675 b 563 517 468 675 563 619 b 347 364 563 410 464 364 b 251 365 310 364 267 364 l 251 260 b 347 261 265 261 308 261 b 578 97 483 261 578 213 b 361 -76 578 -8 496 -76 b 103 46 251 -76 157 -26 l 35 -26 b 364 -179 92 -110 207 -179 z "},"":{"ha":775,"x_min":0,"x_max":0,"o":"m 731 76 l 731 178 l 600 178 l 600 764 l 442 764 l 44 172 l 44 76 l 485 76 l 485 -162 l 600 -162 l 600 76 z m 485 178 l 160 178 l 485 657 z "},"":{"ha":819,"x_min":0,"x_max":0,"o":"m 418 -179 b 749 126 604 -179 749 -61 b 453 422 749 318 608 422 b 236 339 360 422 282 383 l 236 661 l 688 661 l 688 764 l 121 764 l 121 265 l 206 236 b 419 322 268 296 339 322 b 632 122 544 322 632 244 b 418 -76 632 10 544 -76 b 163 47 306 -76 224 -32 l 92 -31 b 418 -179 161 -122 263 -179 z "},"":{"ha":821,"x_min":0,"x_max":0,"o":"m 429 -17 b 753 286 631 -17 753 126 b 450 582 753 483 617 582 b 188 438 331 582 228 501 b 188 474 188 450 188 461 b 449 838 188 656 268 838 b 646 743 544 838 599 799 l 704 829 b 449 940 647 896 567 940 b 71 463 188 940 71 713 b 429 -17 71 210 169 -17 z m 424 86 b 192 344 263 86 201 229 b 424 482 242 425 331 482 b 636 282 542 482 636 418 b 424 86 636 194 567 86 z "},"":{"ha":715,"x_min":0,"x_max":0,"o":"m 296 -162 l 675 685 l 675 764 l 43 764 l 43 661 l 542 661 l 168 -162 z "},"":{"ha":808,"x_min":0,"x_max":0,"o":"m 404 -17 b 736 235 586 -17 736 78 b 515 478 736 358 631 443 b 722 700 622 508 722 579 b 404 940 722 867 557 940 b 88 700 250 940 88 867 b 293 478 88 579 186 508 b 72 235 178 443 72 358 b 404 -17 72 76 221 -17 z m 404 525 b 204 685 349 535 204 572 b 404 838 204 781 292 838 b 606 685 515 838 606 781 b 404 525 606 572 461 535 z m 404 86 b 189 247 289 86 189 147 b 404 426 189 368 347 419 b 619 247 461 419 619 368 b 404 86 619 147 518 86 z "},"":{"ha":821,"x_min":0,"x_max":0,"o":"m 374 -178 b 751 300 633 -178 751 50 b 393 779 751 553 651 779 b 68 476 190 779 68 636 b 372 181 68 279 206 181 b 633 325 490 181 593 261 b 635 289 635 313 635 300 b 374 -75 635 113 561 -75 b 175 19 278 -75 222 -36 l 117 -67 b 374 -178 175 -132 256 -178 z m 399 281 b 185 481 279 281 185 344 b 397 676 185 569 256 676 b 631 419 558 676 619 533 b 399 281 581 338 490 281 z "},"":{"ha":550,"x_min":0,"x_max":0,"o":"m 518 603 b 278 779 518 699 428 779 b 14 657 164 779 74 732 l 69 592 b 269 688 115 649 176 688 b 411 585 360 688 411 644 b 192 315 411 469 192 456 b 242 224 192 286 204 253 l 321 257 b 285 313 293 276 285 296 b 518 603 285 415 518 433 z m 342 63 b 265 139 342 104 307 139 b 189 63 224 139 189 104 b 265 -14 189 21 224 -14 b 342 63 307 -14 342 21 z "},"":{"ha":794,"x_min":0,"x_max":0,"o":"m 333 764 l 10 0 l 132 0 l 203 167 l 593 167 l 664 0 l 785 0 l 463 764 z m 560 263 l 236 263 l 399 650 z "},"":{"ha":769,"x_min":0,"x_max":0,"o":"m 472 0 b 708 207 621 0 708 83 b 561 394 708 296 643 375 b 692 568 631 414 692 476 b 464 764 692 683 606 764 l 104 764 l 104 0 z m 457 96 l 214 96 l 214 343 l 457 343 b 594 218 547 343 594 283 b 457 96 594 143 543 96 z m 451 439 l 214 439 l 214 668 l 451 668 b 579 553 533 668 579 622 b 451 439 579 489 535 439 z "},"":{"ha":808,"x_min":0,"x_max":0,"o":"m 474 -17 b 778 140 610 -17 710 47 l 689 189 b 474 79 646 124 563 79 b 176 383 306 79 176 207 b 474 685 176 560 306 685 b 689 575 563 685 643 642 l 776 624 b 474 781 711 717 610 781 b 65 383 242 781 65 618 b 474 -17 65 147 242 -17 z "},"":{"ha":854,"x_min":0,"x_max":0,"o":"m 382 0 b 789 381 632 0 789 164 b 382 764 789 597 632 764 l 104 764 l 104 0 z m 382 96 l 214 96 l 214 668 l 382 668 b 676 381 575 668 676 540 b 382 96 676 224 572 96 z "},"":{"ha":707,"x_min":0,"x_max":0,"o":"m 635 0 l 635 96 l 214 96 l 214 343 l 628 343 l 628 439 l 214 439 l 214 668 l 635 668 l 635 764 l 104 764 l 104 0 z "},"":{"ha":682,"x_min":0,"x_max":0,"o":"m 214 0 l 214 343 l 628 343 l 628 439 l 214 439 l 214 668 l 635 668 l 635 764 l 104 764 l 104 0 z "},"":{"ha":869,"x_min":0,"x_max":0,"o":"m 474 -17 b 786 117 601 -17 711 36 l 786 399 l 442 399 l 442 307 l 678 307 l 678 158 b 474 79 639 121 567 79 b 178 382 306 79 178 207 b 474 683 178 558 306 683 b 696 583 565 683 646 643 l 781 640 b 474 781 710 722 608 781 b 65 382 246 781 65 619 b 474 -17 65 144 246 -17 z "},"":{"ha":882,"x_min":0,"x_max":0,"o":"m 778 0 l 778 764 l 671 764 l 671 440 l 214 440 l 214 764 l 104 764 l 104 0 l 214 0 l 214 344 l 671 344 l 671 0 z "},"":{"ha":318,"x_min":0,"x_max":0,"o":"m 214 0 l 214 764 l 104 764 l 104 0 z "},"":{"ha":586,"x_min":0,"x_max":0,"o":"m 219 -17 b 481 228 368 -17 481 61 l 481 764 l 372 764 l 372 236 b 213 79 372 143 311 79 b 64 157 146 79 97 114 l 11 78 b 219 -17 64 14 135 -17 z "},"":{"ha":742,"x_min":0,"x_max":0,"o":"m 722 0 l 358 401 l 694 764 l 558 764 l 214 382 l 214 764 l 104 764 l 104 0 l 214 0 l 214 257 l 288 338 l 588 0 z "},"":{"ha":636,"x_min":0,"x_max":0,"o":"m 583 0 l 583 96 l 214 96 l 214 764 l 104 764 l 104 0 z "},"":{"ha":999,"x_min":0,"x_max":0,"o":"m 894 0 l 894 764 l 746 764 l 499 182 l 253 764 l 104 764 l 104 0 l 214 0 l 214 617 l 476 0 l 524 0 l 786 617 l 786 0 z "},"":{"ha":878,"x_min":0,"x_max":0,"o":"m 774 0 l 774 764 l 665 764 l 665 181 l 218 764 l 104 764 l 104 0 l 213 0 l 213 594 l 664 0 z "},"":{"ha":919,"x_min":0,"x_max":0,"o":"m 460 -17 b 854 382 697 -17 854 157 b 460 781 854 607 697 781 b 65 382 222 781 65 607 b 460 -17 65 157 222 -17 z m 460 79 b 176 382 288 79 176 210 b 460 685 176 556 288 685 b 743 382 632 685 743 556 b 460 79 743 210 632 79 z "},"":{"ha":726,"x_min":0,"x_max":0,"o":"m 214 0 l 214 297 l 432 297 b 683 531 600 297 683 406 b 432 764 683 656 597 764 l 104 764 l 104 0 z m 422 392 l 214 392 l 214 668 l 422 668 b 572 531 519 668 572 611 b 422 392 572 451 522 392 z "},"":{"ha":919,"x_min":0,"x_max":0,"o":"m 460 -17 b 672 39 540 -17 613 3 l 746 -40 l 814 17 l 743 94 b 854 382 814 167 854 268 b 460 781 854 607 697 781 b 65 382 222 781 65 607 b 460 -17 65 157 222 -17 z m 460 79 b 176 382 288 79 176 210 b 460 685 176 556 288 685 b 743 382 632 685 743 556 b 672 174 743 300 717 226 l 567 290 l 499 232 l 604 115 b 460 79 563 92 514 79 z "},"":{"ha":757,"x_min":0,"x_max":0,"o":"m 694 0 l 478 306 b 685 531 599 314 685 399 b 432 764 685 661 593 764 l 104 764 l 104 0 l 214 0 l 214 297 l 367 297 l 567 0 z m 422 392 l 214 392 l 214 668 l 422 668 b 572 531 519 668 572 611 b 422 392 572 450 522 392 z "},"":{"ha":700,"x_min":0,"x_max":0,"o":"m 350 -17 b 650 213 554 -17 650 83 b 182 565 650 501 182 400 b 346 686 182 636 250 686 b 575 594 429 686 517 657 l 632 671 b 346 781 565 739 471 781 b 69 564 189 781 69 690 b 539 208 69 288 539 403 b 353 78 539 140 486 78 b 103 185 244 78 154 129 l 44 103 b 350 -17 107 35 215 -17 z "},"":{"ha":656,"x_min":0,"x_max":0,"o":"m 382 0 l 382 668 l 618 668 l 618 764 l 36 764 l 36 668 l 274 668 l 274 0 z "},"":{"ha":865,"x_min":0,"x_max":0,"o":"m 432 -17 b 761 294 650 -17 761 106 l 761 764 l 651 764 l 651 301 b 432 79 651 165 574 79 b 214 301 290 79 214 165 l 214 764 l 104 764 l 104 294 b 432 -17 104 107 214 -17 z "},"":{"ha":794,"x_min":0,"x_max":0,"o":"m 463 0 l 785 764 l 664 764 l 399 121 l 133 764 l 10 764 l 333 0 z "},"":{"ha":1061,"x_min":0,"x_max":0,"o":"m 817 0 l 1046 764 l 926 764 l 754 147 l 576 764 l 485 764 l 306 149 l 135 764 l 14 764 l 243 0 l 358 0 l 529 599 l 703 0 z "},"":{"ha":788,"x_min":0,"x_max":0,"o":"m 776 0 l 464 393 l 757 764 l 626 764 l 393 465 l 161 764 l 31 764 l 325 392 l 13 0 l 143 0 l 393 318 l 646 0 z "},"":{"ha":760,"x_min":0,"x_max":0,"o":"m 436 0 l 436 324 l 750 764 l 625 764 l 383 417 l 136 764 l 10 764 l 328 324 l 328 0 z "},"":{"ha":717,"x_min":0,"x_max":0,"o":"m 663 0 l 663 96 l 201 96 l 653 682 l 653 764 l 56 764 l 56 668 l 507 668 l 56 82 l 56 0 z "},"":{"ha":256,"x_min":0,"x_max":0,"o":"m 68 0 l 188 0 l 168 533 l 88 533 z m 51 701 b 128 625 51 661 86 625 b 204 701 169 625 204 661 b 128 778 204 743 169 778 b 51 701 86 778 51 743 z "},"":{"ha":550,"x_min":0,"x_max":0,"o":"m 32 161 b 272 -15 32 65 122 -15 b 536 107 386 -15 476 32 l 481 172 b 281 76 435 115 374 76 b 139 179 190 76 139 119 b 358 449 139 294 358 308 b 308 540 358 478 346 511 l 229 507 b 265 451 257 488 265 468 b 32 161 265 349 32 331 z m 208 701 b 285 625 208 660 243 625 b 361 701 326 625 361 660 b 285 778 361 743 326 778 b 208 701 243 778 208 743 z "},"":{"ha":794,"x_min":0,"x_max":0,"o":"m 333 764 l 10 0 l 132 0 l 203 167 l 593 167 l 664 0 l 785 0 l 463 764 z m 560 263 l 236 263 l 399 650 z m 490 842 l 285 1042 l 176 1042 l 411 842 z "},"":{"ha":794,"x_min":0,"x_max":0,"o":"m 333 764 l 10 0 l 132 0 l 203 167 l 593 167 l 664 0 l 785 0 l 463 764 z m 560 263 l 236 263 l 399 650 z m 622 1042 l 514 1042 l 308 842 l 388 842 z "},"":{"ha":794,"x_min":0,"x_max":0,"o":"m 333 764 l 10 0 l 132 0 l 203 167 l 593 167 l 664 0 l 785 0 l 463 764 z m 560 263 l 236 263 l 399 650 z m 583 842 l 447 1042 l 347 1042 l 215 842 l 286 842 l 397 989 l 513 842 z "},"":{"ha":794,"x_min":0,"x_max":0,"o":"m 333 764 l 10 0 l 132 0 l 203 167 l 593 167 l 664 0 l 785 0 l 463 764 z m 560 263 l 236 263 l 399 650 z m 482 839 b 617 1025 569 839 617 917 l 554 1025 b 488 906 554 942 525 906 b 317 1033 421 906 417 1033 b 182 847 229 1033 182 956 l 244 847 b 311 967 244 931 274 967 b 482 839 378 967 382 839 z "},"":{"ha":794,"x_min":0,"x_max":0,"o":"m 333 764 l 10 0 l 132 0 l 203 167 l 593 167 l 664 0 l 785 0 l 463 764 z m 560 263 l 236 263 l 399 650 z m 607 917 b 542 981 607 953 578 981 b 478 917 507 981 478 953 b 542 853 478 882 507 853 b 607 917 578 853 607 882 z m 319 917 b 256 981 319 953 290 981 b 190 917 219 981 190 953 b 256 853 190 882 219 853 b 319 917 290 853 319 882 z "},"":{"ha":794,"x_min":0,"x_max":0,"o":"m 333 764 l 10 0 l 132 0 l 203 167 l 593 167 l 664 0 l 785 0 l 463 764 z m 560 263 l 236 263 l 399 650 z m 400 839 b 535 976 475 839 535 901 b 400 1114 535 1051 475 1114 b 263 976 325 1114 263 1051 b 400 839 263 901 325 839 z m 400 894 b 318 976 354 894 318 932 b 400 1058 318 1021 354 1058 b 481 976 444 1058 481 1021 b 400 894 481 932 444 894 z "},"":{"ha":1140,"x_min":0,"x_max":0,"o":"m 1069 0 l 1069 96 l 646 96 l 646 343 l 1061 343 l 1061 439 l 646 439 l 646 668 l 1069 668 l 1069 764 l 497 764 l 8 0 l 132 0 l 238 167 l 538 167 l 538 0 z m 538 263 l 290 263 l 538 650 z "},"":{"ha":808,"x_min":0,"x_max":0,"o":"m 472 -265 b 617 -154 553 -265 617 -222 b 525 -61 617 -97 578 -61 b 474 -76 507 -61 488 -65 l 497 -15 b 778 140 621 -8 714 53 l 689 189 b 474 79 646 124 563 79 b 176 383 306 79 176 207 b 474 685 176 560 306 685 b 689 575 563 685 643 642 l 776 624 b 474 781 711 717 610 781 b 65 383 242 781 65 618 b 436 -15 65 160 222 1 l 404 -101 l 450 -128 b 503 -104 463 -112 483 -104 b 554 -153 538 -104 554 -124 b 469 -211 554 -190 515 -211 b 358 -171 432 -211 393 -199 l 332 -224 b 472 -265 360 -246 413 -265 z "},"":{"ha":707,"x_min":0,"x_max":0,"o":"m 635 0 l 635 96 l 214 96 l 214 343 l 628 343 l 628 439 l 214 439 l 214 668 l 635 668 l 635 764 l 104 764 l 104 0 z m 467 842 l 261 1042 l 153 1042 l 388 842 z "},"":{"ha":707,"x_min":0,"x_max":0,"o":"m 635 0 l 635 96 l 214 96 l 214 343 l 628 343 l 628 439 l 214 439 l 214 668 l 635 668 l 635 764 l 104 764 l 104 0 z m 597 1042 l 489 1042 l 283 842 l 363 842 z "},"":{"ha":707,"x_min":0,"x_max":0,"o":"m 635 0 l 635 96 l 214 96 l 214 343 l 628 343 l 628 439 l 214 439 l 214 668 l 635 668 l 635 764 l 104 764 l 104 0 z m 560 842 l 424 1042 l 324 1042 l 192 842 l 263 842 l 374 989 l 489 842 z "},"":{"ha":707,"x_min":0,"x_max":0,"o":"m 635 0 l 635 96 l 214 96 l 214 343 l 628 343 l 628 439 l 214 439 l 214 668 l 635 668 l 635 764 l 104 764 l 104 0 z m 578 917 b 513 981 578 953 549 981 b 449 917 478 981 449 953 b 513 853 449 882 478 853 b 578 917 549 853 578 882 z m 290 917 b 226 981 290 953 261 981 b 161 917 190 981 161 953 b 226 853 161 882 190 853 b 290 917 261 853 290 882 z "},"":{"ha":315,"x_min":0,"x_max":0,"o":"m 214 0 l 214 764 l 104 764 l 104 0 z m 250 842 l 44 1042 l -64 1042 l 171 842 z "},"":{"ha":315,"x_min":0,"x_max":0,"o":"m 214 0 l 214 764 l 104 764 l 104 0 z m 382 1042 l 274 1042 l 68 842 l 147 842 z "},"":{"ha":315,"x_min":0,"x_max":0,"o":"m 214 0 l 214 764 l 104 764 l 104 0 z m 343 842 l 207 1042 l 107 1042 l -25 842 l 46 842 l 157 989 l 272 842 z "},"":{"ha":315,"x_min":0,"x_max":0,"o":"m 214 0 l 214 764 l 104 764 l 104 0 z m 368 917 b 303 981 368 953 339 981 b 239 917 268 981 239 953 b 303 853 239 882 268 853 b 368 917 339 853 368 882 z m 81 917 b 17 981 81 953 51 981 b -49 917 -19 981 -49 953 b 17 853 -49 882 -19 853 b 81 917 51 853 81 882 z "},"":{"ha":869,"x_min":0,"x_max":0,"o":"m 379 0 b 786 381 629 0 786 164 b 379 764 786 597 629 764 l 101 764 l 101 421 l 14 421 l 14 349 l 101 349 l 101 0 z m 396 349 l 396 421 l 211 421 l 211 668 l 379 668 b 674 381 572 668 674 540 b 379 96 674 224 569 96 l 211 96 l 211 349 z "},"":{"ha":878,"x_min":0,"x_max":0,"o":"m 774 0 l 774 764 l 665 764 l 665 181 l 218 764 l 104 764 l 104 0 l 213 0 l 213 594 l 664 0 z m 521 839 b 656 1025 608 839 656 917 l 593 1025 b 526 906 593 942 564 906 b 356 1033 460 906 456 1033 b 221 847 268 1033 221 956 l 283 847 b 350 967 283 931 313 967 b 521 839 417 967 421 839 z "},"":{"ha":919,"x_min":0,"x_max":0,"o":"m 460 -17 b 854 382 697 -17 854 157 b 460 781 854 607 697 781 b 65 382 222 781 65 607 b 460 -17 65 157 222 -17 z m 460 79 b 176 382 288 79 176 210 b 460 685 176 556 288 685 b 743 382 632 685 743 556 b 460 79 743 210 632 79 z m 551 842 l 346 1042 l 238 1042 l 472 842 z "},"":{"ha":919,"x_min":0,"x_max":0,"o":"m 460 -17 b 854 382 697 -17 854 157 b 460 781 854 607 697 781 b 65 382 222 781 65 607 b 460 -17 65 157 222 -17 z m 460 79 b 176 382 288 79 176 210 b 460 685 176 556 288 685 b 743 382 632 685 743 556 b 460 79 743 210 632 79 z m 685 1042 l 576 1042 l 371 842 l 450 842 z "},"":{"ha":919,"x_min":0,"x_max":0,"o":"m 460 -17 b 854 382 697 -17 854 157 b 460 781 854 607 697 781 b 65 382 222 781 65 607 b 460 -17 65 157 222 -17 z m 460 79 b 176 382 288 79 176 210 b 460 685 176 556 288 685 b 743 382 632 685 743 556 b 460 79 743 210 632 79 z m 647 842 l 511 1042 l 411 1042 l 279 842 l 350 842 l 461 989 l 576 842 z "},"":{"ha":919,"x_min":0,"x_max":0,"o":"m 460 -17 b 854 382 697 -17 854 157 b 460 781 854 607 697 781 b 65 382 222 781 65 607 b 460 -17 65 157 222 -17 z m 460 79 b 176 382 288 79 176 210 b 460 685 176 556 288 685 b 743 382 632 685 743 556 b 460 79 743 210 632 79 z m 547 839 b 682 1025 635 839 682 917 l 619 1025 b 553 906 619 942 590 906 b 382 1033 486 906 482 1033 b 247 847 294 1033 247 956 l 310 847 b 376 967 310 931 339 967 b 547 839 443 967 447 839 z "},"":{"ha":919,"x_min":0,"x_max":0,"o":"m 460 -17 b 854 382 697 -17 854 157 b 460 781 854 607 697 781 b 65 382 222 781 65 607 b 460 -17 65 157 222 -17 z m 460 79 b 176 382 288 79 176 210 b 460 685 176 556 288 685 b 743 382 632 685 743 556 b 460 79 743 210 632 79 z m 671 917 b 606 981 671 953 642 981 b 542 917 571 981 542 953 b 606 853 542 882 571 853 b 671 917 642 853 671 882 z m 383 917 b 319 981 383 953 354 981 b 254 917 283 981 254 953 b 319 853 254 882 283 853 b 383 917 354 853 383 882 z "},"":{"ha":919,"x_min":0,"x_max":0,"o":"m 460 -17 b 854 382 697 -17 854 157 b 726 683 854 504 807 611 l 785 764 l 692 764 l 665 728 b 460 781 607 761 538 781 b 65 382 222 781 65 607 b 189 82 65 261 110 154 l 129 0 l 222 0 l 250 38 b 460 -17 308 3 379 -17 z m 460 79 b 310 119 403 79 351 93 l 664 600 b 743 382 714 546 743 469 b 460 79 743 210 632 79 z m 176 382 b 460 685 176 556 288 685 b 606 647 515 685 564 671 l 251 167 b 176 382 203 221 176 296 z "},"":{"ha":865,"x_min":0,"x_max":0,"o":"m 432 -17 b 761 294 650 -17 761 106 l 761 764 l 651 764 l 651 301 b 432 79 651 165 574 79 b 214 301 290 79 214 165 l 214 764 l 104 764 l 104 294 b 432 -17 104 107 214 -17 z m 524 842 l 318 1042 l 210 1042 l 444 842 z "},"":{"ha":865,"x_min":0,"x_max":0,"o":"m 432 -17 b 761 294 650 -17 761 106 l 761 764 l 651 764 l 651 301 b 432 79 651 165 574 79 b 214 301 290 79 214 165 l 214 764 l 104 764 l 104 294 b 432 -17 104 107 214 -17 z m 658 1042 l 550 1042 l 344 842 l 424 842 z "},"":{"ha":865,"x_min":0,"x_max":0,"o":"m 432 -17 b 761 294 650 -17 761 106 l 761 764 l 651 764 l 651 301 b 432 79 651 165 574 79 b 214 301 290 79 214 165 l 214 764 l 104 764 l 104 294 b 432 -17 104 107 214 -17 z m 617 842 l 481 1042 l 381 1042 l 249 842 l 319 842 l 431 989 l 546 842 z "},"":{"ha":865,"x_min":0,"x_max":0,"o":"m 432 -17 b 761 294 650 -17 761 106 l 761 764 l 651 764 l 651 301 b 432 79 651 165 574 79 b 214 301 290 79 214 165 l 214 764 l 104 764 l 104 294 b 432 -17 104 107 214 -17 z m 642 917 b 576 981 642 953 613 981 b 513 917 542 981 513 953 b 576 853 513 882 542 853 b 642 917 613 853 642 882 z m 354 917 b 290 981 354 953 325 981 b 225 917 254 981 225 953 b 290 853 225 882 254 853 b 354 917 325 853 354 882 z "},"":{"ha":760,"x_min":0,"x_max":0,"o":"m 436 0 l 436 324 l 750 764 l 625 764 l 383 417 l 136 764 l 10 764 l 328 324 l 328 0 z m 606 1042 l 497 1042 l 292 842 l 371 842 z "},"":{"ha":726,"x_min":0,"x_max":0,"o":"m 214 0 l 214 168 l 432 168 b 683 403 600 168 683 276 b 432 636 683 528 597 636 l 214 636 l 214 764 l 104 764 l 104 0 z m 422 264 l 214 264 l 214 540 l 422 540 b 572 403 522 540 572 481 b 422 264 572 322 522 264 z "},"":{"ha":760,"x_min":0,"x_max":0,"o":"m 436 0 l 436 324 l 750 764 l 625 764 l 383 417 l 136 764 l 10 764 l 328 324 l 328 0 z m 592 917 b 526 981 592 953 563 981 b 463 917 492 981 463 953 b 526 853 463 882 492 853 b 592 917 563 853 592 882 z m 304 917 b 240 981 304 953 275 981 b 175 917 204 981 175 953 b 240 853 175 882 204 853 b 304 917 275 853 304 882 z "},"ﬀ":{"ha":788,"x_min":0,"x_max":0,"o":"m 238 0 l 238 579 l 374 579 l 374 671 l 238 671 l 238 722 b 344 854 238 808 275 854 b 426 822 378 854 404 842 l 469 889 b 328 940 428 928 382 940 b 133 722 210 940 133 860 l 133 671 l 22 671 l 22 579 l 133 579 l 133 0 z m 632 0 l 632 579 l 768 579 l 768 671 l 632 671 l 632 722 b 739 854 632 808 669 854 b 821 822 772 854 799 842 l 864 889 b 722 940 822 928 776 940 b 528 722 604 940 528 860 l 528 671 l 417 671 l 417 579 l 528 579 l 528 0 z "},"ﬃ":{"ha":1100,"x_min":0,"x_max":0,"o":"m 238 0 l 238 579 l 374 579 l 374 671 l 238 671 l 238 722 b 344 854 238 808 275 854 b 426 822 378 854 404 842 l 469 889 b 328 940 428 928 382 940 b 133 722 210 940 133 860 l 133 671 l 22 671 l 22 579 l 133 579 l 133 0 z m 632 0 l 632 579 l 768 579 l 768 671 l 632 671 l 632 722 b 739 854 632 808 669 854 b 799 839 764 854 782 849 l 825 918 b 722 940 797 933 763 940 b 528 722 607 940 528 861 l 528 671 l 417 671 l 417 579 l 528 579 l 528 0 z m 944 767 b 1014 836 983 767 1014 797 b 944 907 1014 875 983 907 b 874 836 906 907 874 875 b 944 767 874 797 906 767 z m 996 0 l 996 671 l 892 671 l 892 0 z "},"ﬄ":{"ha":1100,"x_min":0,"x_max":0,"o":"m 238 0 l 238 579 l 374 579 l 374 671 l 238 671 l 238 722 b 344 854 238 808 275 854 b 426 822 378 854 404 842 l 469 889 b 328 940 428 928 382 940 b 133 722 210 940 133 860 l 133 671 l 22 671 l 22 579 l 133 579 l 133 0 z m 632 0 l 632 579 l 768 579 l 768 671 l 632 671 l 632 722 b 739 854 632 808 669 854 b 799 839 764 854 782 849 l 825 918 b 722 940 797 933 763 940 b 528 722 607 940 528 861 l 528 671 l 417 671 l 417 579 l 528 579 l 528 0 z m 996 0 l 996 926 l 892 926 l 892 0 z "}}}
